<svg width="273" height="57" viewBox="0 0 273 57" fill="none" xmlns="http://www.w3.org/2000/svg">
<g clip-path="url(#clip0_143_204)">
<path d="M48.9541 24.7218L39.1466 29.7474L39.1045 35.3976V35.527H39.098L39.1627 26.6279L29.7438 23.1977L29.6466 36.692L20.1046 35.527V35.3879H20.0398L20.0625 29.618L10.31 24.4403C10.2873 24.4274 10.2679 24.4177 10.2485 24.4047L10.2258 27.2524C10.5593 27.3333 10.7989 27.5502 10.7957 27.7993L10.7536 33.5757C10.7504 33.8928 10.3618 34.1453 9.8826 34.142C9.40016 34.1388 9.01485 33.8799 9.01809 33.5628L9.06018 27.7864C9.06018 27.5372 9.29978 27.3269 9.63652 27.2492L9.66242 23.5375C9.58472 23.0585 9.78546 22.5375 10.2711 22.2592L15.1247 19.4535L19.729 16.7967L22.8535 14.991L27.4546 12.3342L29.0962 11.3893C29.2904 11.2728 29.5106 11.221 29.7276 11.221C29.9477 11.221 30.1647 11.2793 30.3589 11.3958L30.5791 11.5284L35.1802 14.2758L38.3047 16.1398L42.9057 18.8872L49.0253 22.5407C49.8672 23.0423 49.8283 24.2753 48.9541 24.7218Z" fill="#090909"/>
<path d="M39.1626 26.6279L39.0979 35.527V35.5368L29.6465 36.692L29.7436 23.1977L39.1626 26.6279Z" fill="#F5F5F5"/>
</g>
<g clip-path="url(#clip1_143_204)">
<path d="M2.82186 20.1976L2.32851 21.5262L3.16136 21.8371L3.74223 20.2667L4.39206 20.5085L3.49821 22.9239L-0.00292969 21.6219L0.893575 19.2011L1.54606 19.4429L0.962537 21.0187L1.6999 21.2924L2.19324 19.9638L2.82186 20.1976Z" fill="#F5F5F5"/>
<path d="M4.77653 19.6263L1.49023 17.8539L2.0605 16.7937C2.21699 16.5014 2.42387 16.2755 2.68115 16.1161C2.93843 15.954 3.22224 15.8743 3.52991 15.8743C3.84024 15.8743 4.14527 15.9513 4.44233 16.1108L4.59352 16.1932C4.89324 16.3552 5.1293 16.5652 5.29905 16.8203C5.4688 17.0754 5.55899 17.357 5.56959 17.6599C5.5802 17.9629 5.50859 18.2578 5.3574 18.5448L4.77388 19.629L4.77653 19.6263ZM2.52731 17.3889L4.59352 18.5023L4.74205 18.2259C4.86406 17.9974 4.87732 17.7795 4.78184 17.5696C4.68635 17.3597 4.47681 17.1684 4.15853 16.9983L4.0153 16.9212C3.69701 16.7512 3.42647 16.6821 3.19837 16.7166C2.97026 16.7512 2.79521 16.8867 2.67054 17.1205L2.52731 17.3863V17.3889Z" fill="#F5F5F5"/>
<path d="M5.9784 11.9868L5.31265 12.8902L7.75814 14.6971L7.22501 15.4226L4.77952 13.6156L4.12704 14.5032L3.56738 14.0886L5.41874 11.5722L5.9784 11.9868Z" fill="#F5F5F5"/>
<path d="M12.9965 7.75114C13.1477 7.96372 13.2378 8.18693 13.2591 8.42342C13.2829 8.65991 13.2378 8.89375 13.1238 9.12227C13.0097 9.35345 12.8373 9.56072 12.6039 9.74672C12.2193 10.0523 11.8188 10.1666 11.3971 10.0922C10.978 10.0178 10.5855 9.75204 10.2247 9.29499L10.1107 9.1515C9.88257 8.86452 9.73404 8.57488 9.66242 8.27993C9.59081 7.98498 9.60407 7.70597 9.69691 7.43759C9.79239 7.17186 9.96214 6.94069 10.2088 6.74405C10.5642 6.46238 10.9223 6.32952 11.2857 6.34281C11.6491 6.35875 11.9753 6.51819 12.2671 6.82377L11.5642 7.38179C11.4183 7.20907 11.2724 7.11606 11.1239 7.10543C10.9754 7.09481 10.8189 7.15858 10.6465 7.2941C10.4714 7.43493 10.3945 7.60234 10.4184 7.79897C10.4396 7.99561 10.5642 8.24007 10.7897 8.52971L10.9541 8.73697C11.2008 9.05053 11.4183 9.24185 11.6013 9.31359C11.787 9.38534 11.9753 9.34548 12.1663 9.19402C12.3281 9.06647 12.4209 8.92829 12.4474 8.7848C12.4713 8.64131 12.4209 8.48188 12.2962 8.31182L12.9965 7.7538V7.75114Z" fill="#F5F5F5"/>
<path d="M16.8053 6.88222L16.0334 7.33661L15.243 5.98939L14.0998 6.66167L14.8903 8.00889L14.1158 8.46593L12.2246 5.24271L13.0018 4.78567L13.7524 6.06645L14.8956 5.39418L14.1449 4.11339L14.9168 3.659L16.8079 6.88222H16.8053Z" fill="#F5F5F5"/>
<path d="M20.9219 4.40037L19.7523 4.79364L19.7708 5.52438L18.8584 5.82996L18.9671 1.84677L19.7708 1.57574L22.2667 4.68204L21.349 4.99028L20.9193 4.39771L20.9219 4.40037ZM19.7363 4.06556L20.4976 3.81047L19.7045 2.71037L19.739 4.06822L19.7363 4.06556Z" fill="#F5F5F5"/>
<path d="M25.6563 2.72366C25.6934 2.98141 25.6669 3.22056 25.5794 3.44111C25.4892 3.66166 25.3433 3.84767 25.1364 3.99647C24.9295 4.14793 24.6802 4.25157 24.3885 4.30737C23.9057 4.39771 23.4973 4.31268 23.1604 4.05227C22.8235 3.78921 22.6008 3.37202 22.492 2.79806L22.4575 2.61737C22.3886 2.25864 22.3912 1.9318 22.4655 1.63685C22.5397 1.3419 22.6803 1.10009 22.8872 0.90877C23.0941 0.717449 23.3514 0.59256 23.6617 0.5341C24.1073 0.449069 24.4866 0.499556 24.8022 0.682905C25.1179 0.866254 25.3327 1.16121 25.4468 1.56511L24.5635 1.73251C24.5158 1.5093 24.4282 1.3605 24.3036 1.28344C24.1789 1.20638 24.0092 1.18778 23.7917 1.22764C23.5715 1.27015 23.4256 1.38176 23.354 1.56776C23.2824 1.75111 23.2798 2.02481 23.3434 2.38885L23.3912 2.64926C23.4654 3.03987 23.5689 3.31091 23.6988 3.46237C23.8288 3.61117 24.0145 3.66432 24.2532 3.61914C24.4574 3.57929 24.6033 3.50223 24.6908 3.38797C24.781 3.27105 24.8075 3.10896 24.7757 2.89904L25.6536 2.73163L25.6563 2.72366Z" fill="#F5F5F5"/>
<path d="M28.3991 3.09301L27.1684 3.15413L26.988 3.86361L26.0278 3.91144L27.2055 0.108945L28.0516 0.0664291L29.6165 3.73341L28.651 3.78124L28.3991 3.09567V3.09301ZM27.3487 2.44996L28.1497 2.41011L27.6829 1.13464L27.3487 2.44996Z" fill="#F5F5F5"/>
<path d="M30.2527 3.72278L30.6054 0L31.8016 0.114261C32.1305 0.146148 32.4196 0.247122 32.6663 0.4225C32.913 0.597877 33.0987 0.826399 33.2207 1.11338C33.3427 1.40036 33.3878 1.71126 33.3559 2.04872L33.34 2.21879C33.3082 2.55891 33.2074 2.85918 33.0376 3.11427C32.8679 3.37202 32.6451 3.56335 32.3693 3.69089C32.0934 3.81844 31.7937 3.86893 31.4727 3.8397L30.25 3.72278H30.2527ZM31.4356 0.778568L31.2128 3.11693L31.5231 3.14616C31.7804 3.17008 31.9873 3.09833 32.1411 2.92827C32.2976 2.7582 32.3905 2.49248 32.425 2.1311L32.4409 1.96901C32.4753 1.61028 32.4329 1.33127 32.3109 1.13729C32.1915 0.940659 31.9979 0.831713 31.7353 0.805141L31.4356 0.775911V0.778568Z" fill="#F5F5F5"/>
<path d="M36.823 3.16742L35.4464 2.83792L35.2395 3.70418L36.8654 4.09213L36.7063 4.76707L34.2051 4.17185L35.0698 0.534103L37.5763 1.13198L37.4145 1.80957L35.7832 1.42162L35.6002 2.18956L36.9768 2.5164L36.823 3.17008V3.16742Z" fill="#F5F5F5"/>
<path d="M40.1198 1.90789L39.9076 4.63155L41.6608 2.53765L42.7562 2.98672L41.3425 6.4491L40.507 6.10631L40.8386 5.29851L41.5945 3.6776L39.7538 5.79807L39.2047 5.57221L39.3745 2.76352L38.7777 4.45352L38.4461 5.26131L37.6133 4.92119L39.027 1.45882L40.1198 1.90789Z" fill="#F5F5F5"/>
<path d="M48.3447 9.37471C48.6285 9.06913 48.9336 8.82201 49.2572 8.63334C49.5834 8.44468 49.9017 8.3251 50.2147 8.27727C50.5276 8.22679 50.8061 8.24804 51.0475 8.33839L50.8778 8.76355C50.5833 8.729 50.2597 8.80606 49.9096 8.98941C49.5595 9.17542 49.2121 9.45177 48.8699 9.81847L48.793 9.90084C48.4429 10.2782 48.1882 10.6502 48.0264 11.0169C47.8647 11.3836 47.8143 11.7131 47.87 12.008L47.4615 12.21C47.3527 11.9788 47.313 11.7024 47.3395 11.3809C47.366 11.0594 47.4588 10.7326 47.6206 10.4004C47.7824 10.0682 47.9946 9.75469 48.2625 9.4624L48.3421 9.37737L48.3447 9.37471Z" fill="#F5F5F5"/>
<path d="M48.8488 11.8884L51.671 9.44114L52.5489 10.4562C52.8645 10.8202 53.037 11.1551 53.0661 11.4606C53.098 11.7662 52.9866 12.0293 52.7319 12.2472C52.586 12.3747 52.4322 12.4491 52.2704 12.4704C52.1086 12.4916 51.9468 12.4598 51.785 12.3721C51.8726 12.5528 51.8991 12.7281 51.8619 12.9009C51.8248 13.0709 51.7293 13.2224 51.5755 13.3552C51.2996 13.5944 51.0158 13.6874 50.7241 13.6316C50.4323 13.5758 50.1379 13.3792 49.8382 13.0364L48.8462 11.8884H48.8488ZM50.6365 11.5297L49.9602 12.117L50.3474 12.5634C50.4535 12.6856 50.5649 12.7574 50.6763 12.7733C50.7904 12.7919 50.8965 12.7547 50.9999 12.667C51.236 12.4624 51.2519 12.2445 51.0503 12.008L50.6365 11.5297ZM51.0821 11.1418L51.3898 11.4978C51.5198 11.6466 51.6391 11.729 51.7452 11.745C51.854 11.7636 51.9574 11.7264 52.0609 11.636C52.1802 11.5324 52.2359 11.4234 52.228 11.3092C52.22 11.1949 52.1511 11.062 52.0184 10.9079L51.7293 10.5731L51.0768 11.1391L51.0821 11.1418Z" fill="#F5F5F5"/>
<path d="M55.4029 15.5342L54.7928 14.5935L52.2465 16.2543L51.7559 15.4996L54.3021 13.8389L53.7027 12.9141L54.2862 12.5341L55.9864 15.1542L55.4029 15.5342Z" fill="#F5F5F5"/>
<path d="M53.2598 17.8619L56.6389 16.2702L57.2092 17.4872C57.4134 17.923 57.4903 18.2924 57.4373 18.5926C57.3842 18.8956 57.2065 19.1161 56.9041 19.2596C56.7291 19.342 56.562 19.3712 56.4002 19.3499C56.2384 19.3287 56.0925 19.2516 55.9599 19.1241C55.997 19.3234 55.9731 19.4988 55.8909 19.6529C55.8087 19.807 55.6761 19.9266 55.4931 20.0143C55.1615 20.171 54.8645 20.1817 54.5992 20.0515C54.334 19.9186 54.1032 19.6476 53.9069 19.2383L53.2624 17.8646L53.2598 17.8619ZM55.0793 18.0001L54.2703 18.3827L54.5223 18.9168C54.5913 19.063 54.6788 19.1613 54.7822 19.2091C54.8857 19.2569 54.9997 19.2516 55.1217 19.1932C55.4029 19.0603 55.4798 18.853 55.3498 18.5714L55.0819 18.0001H55.0793ZM55.6124 17.7476L55.8114 18.1728C55.8962 18.3508 55.9891 18.4624 56.0872 18.5076C56.1853 18.5528 56.2967 18.5475 56.4214 18.489C56.5646 18.4226 56.6469 18.3322 56.6707 18.2206C56.6946 18.109 56.6628 17.9602 56.5779 17.7795L56.3896 17.3809L55.6098 17.7476H55.6124Z" fill="#F5F5F5"/>
<path d="M56.6279 22.1214C56.2486 22.2516 55.8693 22.3207 55.49 22.326C55.1107 22.3314 54.7659 22.2782 54.453 22.164C54.14 22.0524 53.9013 21.8956 53.7368 21.6963L54.0869 21.4013C54.3309 21.5687 54.6492 21.6538 55.0418 21.6564C55.4343 21.6591 55.8561 21.5847 56.3123 21.4332L56.4608 21.3827C56.9462 21.2153 57.3494 21.0081 57.6623 20.7609C57.9753 20.5138 58.1795 20.2481 58.2671 19.9638L58.7233 19.9797C58.7127 20.2375 58.6198 20.5058 58.4474 20.7822C58.275 21.0585 58.039 21.3136 57.7393 21.5422C57.4395 21.7707 57.108 21.9487 56.7367 22.0816L56.6306 22.1188L56.6279 22.1214Z" fill="#F5F5F5"/>
<path d="M9.36022 10.4084L8.37619 11.4261L9.01541 12.0452L10.1772 10.8415L10.6758 11.3251L8.8881 13.1772L6.20654 10.5758L7.99955 8.72102L8.4982 9.20464L7.33115 10.411L7.89611 10.9584L8.88014 9.94069L9.36022 10.4057V10.4084Z" fill="#F5F5F5"/>
<path d="M44.3927 5.77682L45.8383 4.76973L46.6605 5.28789L44.3688 6.67231L43.6527 7.8096L42.8809 7.32333L43.597 6.18603L43.8569 3.51817L44.6739 4.03368L44.3927 5.77416V5.77682Z" fill="#F5F5F5"/>
</g>
<g clip-path="url(#clip2_143_204)">
<path d="M3.87577 55.0737C3.87577 55.3126 3.83448 55.5195 3.75407 55.6966C3.67366 55.8737 3.56282 56.0166 3.42156 56.1232L3.84534 56.4518L3.45416 56.776L2.89129 56.3302C2.83914 56.3366 2.78481 56.3408 2.73265 56.3408C2.50881 56.3408 2.31104 56.2896 2.13718 56.1894C1.96332 56.087 1.82858 55.9419 1.73296 55.7542C1.63517 55.5665 1.58518 55.3489 1.58301 55.1036V54.967C1.58301 54.7132 1.63082 54.4913 1.72427 54.2993C1.81772 54.1074 1.95246 53.958 2.12849 53.8535C2.30235 53.749 2.50229 53.6956 2.7283 53.6956C2.95432 53.6956 3.14774 53.7468 3.32377 53.8514C3.49763 53.9559 3.63237 54.1031 3.73016 54.2951C3.82796 54.4871 3.87577 54.7068 3.87794 54.9542V55.0737H3.87577ZM3.23249 54.9649C3.23249 54.7089 3.18903 54.5148 3.1021 54.3825C3.01517 54.2503 2.89129 54.1842 2.7283 54.1842C2.56531 54.1842 2.43492 54.2503 2.35233 54.3804C2.26975 54.5105 2.22628 54.7025 2.22411 54.9542V55.0737C2.22411 55.3276 2.26758 55.5217 2.35233 55.6561C2.43709 55.7905 2.56531 55.8587 2.73265 55.8587C2.89999 55.8587 3.01734 55.7926 3.1021 55.6582C3.18903 55.5259 3.23249 55.334 3.23249 55.0844V54.9649Z" fill="#F5F5F5"/>
<path d="M6.27307 53.7319V55.4172C6.27307 55.6091 6.23178 55.7734 6.14919 55.9142C6.06661 56.0529 5.94708 56.1595 5.79278 56.2342C5.63848 56.3088 5.45376 56.343 5.24296 56.343C4.92349 56.343 4.67139 56.2619 4.48884 56.0998C4.30629 55.9377 4.21067 55.7137 4.2085 55.4321V53.7319H4.84525V55.4428C4.85177 55.7243 4.98651 55.8651 5.24513 55.8651C5.37552 55.8651 5.47549 55.8289 5.54286 55.7585C5.61023 55.6881 5.64283 55.5729 5.64283 55.4129V53.7319H6.27524H6.27307Z" fill="#F5F5F5"/>
<path d="M8.15899 55.8267H7.29187L7.13974 56.3067H6.46387L7.42661 53.7319H8.02208L8.99134 56.3067H8.31329L8.16116 55.8267H8.15899ZM7.444 55.3468H8.00686L7.72434 54.4529L7.444 55.3468Z" fill="#F5F5F5"/>
<path d="M9.65438 55.8289H10.754V56.3067H9.02197V53.7319H9.65438V55.8289Z" fill="#F5F5F5"/>
<path d="M11.4735 56.3067H10.8433V53.7319H11.4735V56.3067Z" fill="#F5F5F5"/>
<path d="M13.8617 54.2119H13.075V56.3067H12.4426V54.2119H11.6689V53.7319H13.8617V54.2119Z" fill="#F5F5F5"/>
<path d="M14.8072 54.8497L15.2918 53.7319H15.9742L15.1289 55.3809V56.3046H14.4877V55.3809L13.6445 53.7319H14.3226L14.8072 54.8497Z" fill="#F5F5F5"/>
<path d="M16.2937 57L15.9873 56.8592L16.0482 56.7398C16.1329 56.5862 16.1764 56.4411 16.1786 56.3003V55.8587H16.6654V56.2427C16.6632 56.3792 16.6262 56.5158 16.5567 56.6566C16.4871 56.7973 16.398 56.9125 16.2916 57.0021L16.2937 57Z" fill="#F5F5F5"/>
<path d="M20.0599 55.2166H19.0645V55.831H20.2381V56.3088H18.4321V53.7319H20.2424V54.2119H19.0645V54.7537H20.0599V55.2145V55.2166Z" fill="#F5F5F5"/>
<path d="M22.0179 55.2828H20.9986V56.3088H20.3662V53.7319H22.12V54.2119H20.9986V54.8049H22.0179V55.2828Z" fill="#F5F5F5"/>
<path d="M23.9436 55.2828H22.9244V56.3088H22.292V53.7319H24.0458V54.2119H22.9244V54.8049H23.9436V55.2828Z" fill="#F5F5F5"/>
<path d="M24.891 56.3067H24.2607V53.7319H24.891V56.3067Z" fill="#F5F5F5"/>
<path d="M27.3446 55.4364C27.3359 55.6155 27.2859 55.7734 27.1968 55.9121C27.1077 56.0486 26.9795 56.1552 26.8165 56.232C26.6535 56.3067 26.4688 56.3451 26.2602 56.3451C25.9146 56.3451 25.6451 56.2342 25.4452 56.0145C25.2453 55.7947 25.1475 55.4833 25.1475 55.0801V54.9521C25.1475 54.7004 25.1931 54.4785 25.2822 54.2908C25.3713 54.101 25.4995 53.9559 25.669 53.8514C25.8364 53.749 26.032 53.6956 26.2536 53.6956C26.5709 53.6956 26.8274 53.7788 27.0208 53.9431C27.2142 54.1074 27.325 54.3335 27.3511 54.6236H26.7209C26.7165 54.4679 26.6752 54.3548 26.5992 54.2865C26.5231 54.2183 26.4079 54.1842 26.2536 54.1842C26.0993 54.1842 25.982 54.2418 25.9081 54.3569C25.8342 54.4721 25.7973 54.6577 25.7929 54.9094V55.0908C25.7929 55.366 25.8277 55.5622 25.8972 55.6795C25.9668 55.7969 26.0885 55.8566 26.2602 55.8566C26.4058 55.8566 26.5166 55.8225 26.5927 55.7563C26.6687 55.6902 26.71 55.5835 26.7144 55.4364H27.3424H27.3446Z" fill="#F5F5F5"/>
<path d="M28.0638 56.3067H27.4336V53.7319H28.0638V56.3067Z" fill="#F5F5F5"/>
<path d="M30.0218 55.2166H29.0265V55.831H30.2V56.3088H28.394V53.7319H30.2043V54.2119H29.0265V54.7537H30.0218V55.2145V55.2166Z" fill="#F5F5F5"/>
<path d="M32.5187 56.3067H31.8907L30.9605 54.7047V56.3067H30.3281V53.7319H30.9605L31.8885 55.334V53.7319H32.5187V56.3067Z" fill="#F5F5F5"/>
<path d="M35.1854 55.4364C35.1767 55.6155 35.1267 55.7734 35.0376 55.9121C34.9485 56.0486 34.8203 56.1552 34.6573 56.232C34.4943 56.3067 34.3096 56.3451 34.101 56.3451C33.7554 56.3451 33.486 56.2342 33.286 56.0145C33.0861 55.7947 32.9883 55.4833 32.9883 55.0801V54.9521C32.9883 54.7004 33.0339 54.4785 33.123 54.2908C33.2121 54.101 33.3403 53.9559 33.5099 53.8514C33.6772 53.749 33.8728 53.6956 34.0945 53.6956C34.4118 53.6956 34.6682 53.7788 34.8616 53.9431C35.055 54.1074 35.1659 54.3335 35.1919 54.6236H34.5617C34.5574 54.4679 34.5161 54.3548 34.44 54.2865C34.3639 54.2183 34.2488 54.1842 34.0945 54.1842C33.9402 54.1842 33.8228 54.2418 33.7489 54.3569C33.675 54.4721 33.6381 54.6577 33.6337 54.9094V55.0908C33.6337 55.366 33.6685 55.5622 33.738 55.6795C33.8076 55.7969 33.9293 55.8566 34.101 55.8566C34.2466 55.8566 34.3574 55.8225 34.4335 55.7563C34.5095 55.6902 34.5508 55.5835 34.5552 55.4364H35.1832H35.1854Z" fill="#F5F5F5"/>
<path d="M36.1942 54.8497L36.6766 53.7319H37.359L36.5136 55.3809V56.3046H35.8725V55.3809L35.0293 53.7319H35.7073L36.192 54.8497H36.1942Z" fill="#F5F5F5"/>
<path d="M37.6805 57L37.374 56.8592L37.4349 56.7398C37.5196 56.5862 37.5631 56.4411 37.5653 56.3003V55.8587H38.0521V56.2427C38.0499 56.3792 38.013 56.5158 37.9434 56.6566C37.8739 56.7973 37.7848 56.9125 37.6783 57.0021L37.6805 57Z" fill="#F5F5F5"/>
<path d="M40.6492 53.7319L41.2338 55.5238L41.8184 53.7319H42.6508V56.3067H42.0162V55.7051L42.0771 54.4743L41.4425 56.3067H41.0252L40.3885 54.4721L40.4493 55.7051V56.3067H39.8169V53.7319H40.6471H40.6492Z" fill="#F5F5F5"/>
<path d="M45.2126 55.0737C45.2126 55.3254 45.1648 55.5473 45.0692 55.7393C44.9736 55.9313 44.8388 56.0806 44.665 56.1851C44.4911 56.2896 44.2912 56.3408 44.0673 56.3408C43.8435 56.3408 43.6457 56.2896 43.4719 56.1894C43.3002 56.0891 43.1633 55.9441 43.0677 55.7563C42.9699 55.5686 42.9199 55.3532 42.9155 55.11V54.9649C42.9155 54.7132 42.9633 54.4892 43.0568 54.2972C43.1502 54.1052 43.2872 53.9559 43.4632 53.8514C43.6392 53.7468 43.8392 53.6935 44.063 53.6935C44.2868 53.6935 44.4824 53.7447 44.6585 53.8492C44.8323 53.9538 44.9671 54.101 45.0649 54.2929C45.1627 54.4849 45.2105 54.7047 45.2126 54.9521V55.0716V55.0737ZM44.5694 54.9649C44.5694 54.7089 44.5259 54.5148 44.439 54.3825C44.352 54.2503 44.2282 54.1842 44.0652 54.1842C43.7479 54.1842 43.5805 54.4167 43.5632 54.8838V55.0737C43.5632 55.3254 43.6044 55.5195 43.6892 55.6561C43.774 55.7926 43.9022 55.8587 44.0695 55.8587C44.2369 55.8587 44.352 55.7926 44.439 55.6582C44.5259 55.5259 44.5694 55.334 44.5715 55.0844V54.9649H44.5694Z" fill="#F5F5F5"/>
<path d="M46.5971 55.398H46.2559V56.3067H45.6235V53.7319H46.6558C46.9666 53.7319 47.21 53.8002 47.386 53.9346C47.5621 54.0711 47.649 54.261 47.649 54.5084C47.649 54.6876 47.612 54.8369 47.5382 54.9542C47.4643 55.0716 47.3491 55.1676 47.1904 55.2401L47.7381 56.279V56.3046H47.06L46.5971 55.3958V55.398ZM46.2559 54.918H46.6558C46.7753 54.918 46.8666 54.886 46.9275 54.8241C46.9883 54.7623 47.0188 54.6769 47.0188 54.566C47.0188 54.4551 46.9883 54.3676 46.9275 54.3058C46.8666 54.2418 46.7754 54.2119 46.658 54.2119H46.2581V54.9201L46.2559 54.918Z" fill="#F5F5F5"/>
<path d="M49.3226 55.8267H48.4554L48.3033 56.3067H47.6274L48.5902 53.7319H49.1856L50.1549 56.3067H49.4769L49.3247 55.8267H49.3226ZM48.6076 55.3468H49.1704L48.8879 54.4529L48.6076 55.3468Z" fill="#F5F5F5"/>
<path d="M50.8175 55.8289H51.9171V56.3067H50.1851V53.7319H50.8175V55.8289Z" fill="#F5F5F5"/>
<path d="M52.6366 56.3067H52.0063V53.7319H52.6366V56.3067Z" fill="#F5F5F5"/>
<path d="M55.0273 54.2119H54.2406V56.3067H53.6081V54.2119H52.8345V53.7319H55.0273V54.2119Z" fill="#F5F5F5"/>
<path d="M55.9725 54.8497L56.4549 53.7319H57.1373L56.2919 55.3809V56.3046H55.6508V55.3809L54.8076 53.7319H55.4857L55.9703 54.8497H55.9725Z" fill="#F5F5F5"/>
</g>
<g clip-path="url(#clip3_143_204)">
<path d="M32.0043 48.0729C40.8177 43.7373 48.8161 42.9813 52.7836 42.9137C54.2215 42.8884 55.3913 44.0626 55.3638 45.5007C55.3364 46.8459 54.2637 47.9399 52.9187 47.9863C41.3519 48.396 29.9646 50.945 29.9646 50.945C29.9223 49.6335 29.9646 49.321 29.9646 49.321C30.1631 48.7592 32.0043 48.075 32.0043 48.075" fill="#F5F5F5"/>
<path d="M31.1256 45.26C36.3981 40.8653 41.7043 39.0343 44.3901 38.3332C45.3614 38.0798 46.3496 38.6838 46.5692 39.6658C46.7719 40.5844 46.225 41.503 45.3171 41.7565C37.5277 43.9401 30.2135 47.5449 30.2135 47.5449C29.9685 46.6622 29.9453 46.4405 29.9453 46.4405C29.9875 46.0265 31.1256 45.2578 31.1256 45.2578" fill="#F5F5F5"/>
<path d="M26.7331 48.0721C17.9197 43.7365 9.92129 42.9784 5.95378 42.9108C4.51584 42.8855 3.34607 44.0596 3.37352 45.4978C3.40097 46.843 4.47361 47.9369 5.81864 47.9834C17.3855 48.3931 28.7728 50.942 28.7728 50.942C28.815 49.6306 28.7728 49.3181 28.7728 49.3181C28.5743 48.7563 26.7331 48.0721 26.7331 48.0721Z" fill="#34C759"/>
<path d="M27.5998 45.26C22.3273 40.8653 17.0211 39.0343 14.3374 38.3332C13.364 38.0798 12.3758 38.6838 12.1583 39.6658C11.9556 40.5844 12.5025 41.503 13.4084 41.7565C21.1977 43.9401 28.5119 47.5449 28.5119 47.5449C28.7569 46.6622 28.7801 46.4405 28.7801 46.4405C28.7379 46.0265 27.5998 45.2578 27.5998 45.2578" fill="#34C759"/>
</g>
<path d="M68.9645 25V13.3636H76.8054V15.392H71.4247V18.1648H76.402V20.1932H71.4247V22.9716H76.8281V25H68.9645ZM82.8864 25H78.7614V13.3636H82.9205C84.0909 13.3636 85.0985 13.5966 85.9432 14.0625C86.7879 14.5246 87.4375 15.1894 87.892 16.0568C88.3504 16.9242 88.5795 17.9621 88.5795 19.1705C88.5795 20.3826 88.3504 21.4242 87.892 22.2955C87.4375 23.1667 86.7841 23.8352 85.9318 24.3011C85.0833 24.767 84.0682 25 82.8864 25ZM81.2216 22.892H82.7841C83.5114 22.892 84.1231 22.7633 84.6193 22.5057C85.1193 22.2443 85.4943 21.8409 85.7443 21.2955C85.9981 20.7462 86.125 20.0379 86.125 19.1705C86.125 18.3106 85.9981 17.608 85.7443 17.0625C85.4943 16.517 85.1212 16.1155 84.625 15.858C84.1288 15.6004 83.517 15.4716 82.7898 15.4716H81.2216V22.892ZM89.4276 15.392V13.3636H98.9844V15.392H95.4219V25H92.9901V15.392H89.4276ZM100.558 25V13.3636H108.399V15.392H103.018V18.1648H107.996V20.1932H103.018V22.9716H108.422V25H100.558ZM120.622 17.4375H118.134C118.088 17.1155 117.995 16.8295 117.855 16.5795C117.715 16.3258 117.535 16.1098 117.315 15.9318C117.096 15.7538 116.842 15.6174 116.554 15.5227C116.27 15.428 115.961 15.3807 115.628 15.3807C115.026 15.3807 114.501 15.5303 114.054 15.8295C113.607 16.125 113.26 16.5568 113.014 17.125C112.768 17.6894 112.645 18.375 112.645 19.1818C112.645 20.0114 112.768 20.7083 113.014 21.2727C113.264 21.8371 113.613 22.2633 114.06 22.5511C114.507 22.839 115.024 22.983 115.611 22.983C115.94 22.983 116.245 22.9394 116.526 22.8523C116.81 22.7652 117.062 22.6383 117.281 22.4716C117.501 22.3011 117.683 22.0947 117.827 21.8523C117.974 21.6098 118.077 21.3333 118.134 21.0227L120.622 21.0341C120.558 21.5682 120.397 22.0833 120.139 22.5795C119.885 23.072 119.543 23.5133 119.111 23.9034C118.683 24.2898 118.171 24.5966 117.577 24.8239C116.986 25.0473 116.317 25.1591 115.571 25.1591C114.533 25.1591 113.605 24.9242 112.787 24.4545C111.973 23.9848 111.329 23.3049 110.855 22.4148C110.385 21.5246 110.151 20.447 110.151 19.1818C110.151 17.9129 110.389 16.8333 110.866 15.9432C111.344 15.053 111.991 14.375 112.81 13.9091C113.628 13.4394 114.548 13.2045 115.571 13.2045C116.245 13.2045 116.87 13.2992 117.446 13.4886C118.026 13.678 118.539 13.9545 118.986 14.3182C119.433 14.678 119.796 15.1193 120.077 15.642C120.361 16.1648 120.543 16.7633 120.622 17.4375ZM122.386 25V13.3636H124.847V18.1648H129.841V13.3636H132.295V25H129.841V20.1932H124.847V25H122.386ZM140.033 25H137.396L141.413 13.3636H144.584L148.595 25H145.959L143.044 16.0227H142.953L140.033 25ZM139.868 20.4261H146.095V22.3466H139.868V20.4261ZM159.716 17.4375H157.227C157.182 17.1155 157.089 16.8295 156.949 16.5795C156.809 16.3258 156.629 16.1098 156.409 15.9318C156.189 15.7538 155.936 15.6174 155.648 15.5227C155.364 15.428 155.055 15.3807 154.722 15.3807C154.119 15.3807 153.595 15.5303 153.148 15.8295C152.701 16.125 152.354 16.5568 152.108 17.125C151.862 17.6894 151.739 18.375 151.739 19.1818C151.739 20.0114 151.862 20.7083 152.108 21.2727C152.358 21.8371 152.706 22.2633 153.153 22.5511C153.6 22.839 154.117 22.983 154.705 22.983C155.034 22.983 155.339 22.9394 155.619 22.8523C155.903 22.7652 156.155 22.6383 156.375 22.4716C156.595 22.3011 156.777 22.0947 156.92 21.8523C157.068 21.6098 157.17 21.3333 157.227 21.0227L159.716 21.0341C159.652 21.5682 159.491 22.0833 159.233 22.5795C158.979 23.072 158.636 23.5133 158.205 23.9034C157.777 24.2898 157.265 24.5966 156.67 24.8239C156.08 25.0473 155.411 25.1591 154.665 25.1591C153.627 25.1591 152.699 24.9242 151.881 24.4545C151.066 23.9848 150.422 23.3049 149.949 22.4148C149.479 21.5246 149.244 20.447 149.244 19.1818C149.244 17.9129 149.483 16.8333 149.96 15.9432C150.438 15.053 151.085 14.375 151.903 13.9091C152.722 13.4394 153.642 13.2045 154.665 13.2045C155.339 13.2045 155.964 13.2992 156.54 13.4886C157.119 13.678 157.633 13.9545 158.08 14.3182C158.527 14.678 158.89 15.1193 159.17 15.642C159.455 16.1648 159.636 16.7633 159.716 17.4375ZM163.267 25H160.631L164.648 13.3636H167.818L171.83 25H169.193L166.278 16.0227H166.188L163.267 25ZM163.102 20.4261H169.33V22.3466H163.102V20.4261ZM177.355 25H173.23V13.3636H177.389C178.56 13.3636 179.567 13.5966 180.412 14.0625C181.257 14.5246 181.906 15.1894 182.361 16.0568C182.819 16.9242 183.048 17.9621 183.048 19.1705C183.048 20.3826 182.819 21.4242 182.361 22.2955C181.906 23.1667 181.253 23.8352 180.401 24.3011C179.552 24.767 178.537 25 177.355 25ZM175.69 22.892H177.253C177.98 22.892 178.592 22.7633 179.088 22.5057C179.588 22.2443 179.963 21.8409 180.213 21.2955C180.467 20.7462 180.594 20.0379 180.594 19.1705C180.594 18.3106 180.467 17.608 180.213 17.0625C179.963 16.517 179.59 16.1155 179.094 15.858C178.598 15.6004 177.986 15.4716 177.259 15.4716H175.69V22.892ZM186.22 25H183.584L187.601 13.3636H190.771L194.783 25H192.146L189.232 16.0227H189.141L186.22 25ZM186.055 20.4261H192.283V22.3466H186.055V20.4261ZM196.183 13.3636H199.217L202.422 21.1818H202.558L205.763 13.3636H208.797V25H206.411V17.4261H206.314L203.303 24.9432H201.678L198.666 17.3977H198.57V25H196.183V13.3636ZM210.142 13.3636H212.898L215.551 18.375H215.665L218.318 13.3636H221.074L216.83 20.8864V25H214.386V20.8864L210.142 13.3636ZM226.609 19.1818C226.609 17.7727 226.797 16.4754 227.172 15.2898C227.551 14.1042 228.128 13.0057 228.905 11.9943H231.217C230.922 12.3693 230.647 12.8277 230.393 13.3693C230.14 13.9072 229.918 14.4981 229.729 15.142C229.539 15.786 229.392 16.4527 229.286 17.142C229.179 17.8277 229.126 18.5076 229.126 19.1818C229.126 20.0795 229.217 20.9867 229.399 21.9034C229.585 22.8163 229.835 23.6648 230.149 24.4489C230.467 25.233 230.823 25.875 231.217 26.375H228.905C228.128 25.3636 227.551 24.2652 227.172 23.0795C226.797 21.8939 226.609 20.5947 226.609 19.1818ZM232.668 25V13.3636H237.327C238.183 13.3636 238.897 13.4905 239.469 13.7443C240.041 13.9981 240.471 14.3504 240.759 14.8011C241.046 15.2481 241.19 15.7633 241.19 16.3466C241.19 16.8011 241.099 17.2008 240.918 17.5455C240.736 17.8864 240.486 18.1667 240.168 18.3864C239.853 18.6023 239.493 18.7557 239.088 18.8466V18.9602C239.531 18.9792 239.946 19.1042 240.332 19.3352C240.723 19.5663 241.039 19.8902 241.281 20.3068C241.524 20.7197 241.645 21.2121 241.645 21.7841C241.645 22.4015 241.491 22.9527 241.185 23.4375C240.882 23.9186 240.433 24.2992 239.838 24.5795C239.243 24.8598 238.51 25 237.639 25H232.668ZM235.128 22.9886H237.134C237.819 22.9886 238.319 22.858 238.634 22.5966C238.948 22.3314 239.105 21.9792 239.105 21.5398C239.105 21.2178 239.027 20.9337 238.872 20.6875C238.717 20.4413 238.495 20.2481 238.207 20.108C237.923 19.9678 237.584 19.8977 237.19 19.8977H235.128V22.9886ZM235.128 18.233H236.952C237.289 18.233 237.588 18.1742 237.849 18.0568C238.115 17.9356 238.323 17.7652 238.474 17.5455C238.63 17.3258 238.707 17.0625 238.707 16.7557C238.707 16.3352 238.558 15.9962 238.259 15.7386C237.963 15.4811 237.543 15.3523 236.997 15.3523H235.128V18.233ZM242.803 15.392V13.3636H252.359V15.392H248.797V25H246.365V15.392H242.803ZM253.933 25V13.3636H258.592C259.448 13.3636 260.162 13.4905 260.734 13.7443C261.306 13.9981 261.736 14.3504 262.024 14.8011C262.312 15.2481 262.456 15.7633 262.456 16.3466C262.456 16.8011 262.365 17.2008 262.183 17.5455C262.001 17.8864 261.751 18.1667 261.433 18.3864C261.119 18.6023 260.759 18.7557 260.354 18.8466V18.9602C260.797 18.9792 261.212 19.1042 261.598 19.3352C261.988 19.5663 262.304 19.8902 262.547 20.3068C262.789 20.7197 262.911 21.2121 262.911 21.7841C262.911 22.4015 262.757 22.9527 262.45 23.4375C262.147 23.9186 261.698 24.2992 261.104 24.5795C260.509 24.8598 259.776 25 258.905 25H253.933ZM256.393 22.9886H258.399C259.085 22.9886 259.585 22.858 259.899 22.5966C260.214 22.3314 260.371 21.9792 260.371 21.5398C260.371 21.2178 260.293 20.9337 260.138 20.6875C259.982 20.4413 259.761 20.2481 259.473 20.108C259.189 19.9678 258.85 19.8977 258.456 19.8977H256.393V22.9886ZM256.393 18.233H258.217C258.554 18.233 258.854 18.1742 259.115 18.0568C259.38 17.9356 259.589 17.7652 259.74 17.5455C259.895 17.3258 259.973 17.0625 259.973 16.7557C259.973 16.3352 259.823 15.9962 259.524 15.7386C259.229 15.4811 258.808 15.3523 258.263 15.3523H256.393V18.233ZM268.545 19.1818C268.545 20.5947 268.356 21.8939 267.977 23.0795C267.602 24.2652 267.027 25.3636 266.25 26.375H263.938C264.233 26 264.508 25.5417 264.761 25C265.015 24.4583 265.237 23.8674 265.426 23.2273C265.616 22.5833 265.763 21.9167 265.869 21.2273C265.975 20.5379 266.028 19.8561 266.028 19.1818C266.028 18.2841 265.936 17.3788 265.75 16.4659C265.568 15.5492 265.318 14.7008 265 13.9205C264.686 13.1364 264.331 12.4943 263.938 11.9943H266.25C267.027 13.0057 267.602 14.1042 267.977 15.2898C268.356 16.4754 268.545 17.7727 268.545 19.1818Z" fill="white"/>
<path d="M85.717 45.4716H87.0238L87.6808 46.3168L88.3271 47.0696L89.5451 48.5966H88.1104L87.2724 47.5668L86.8427 46.956L85.717 45.4716ZM89.6552 44.3636C89.6552 45.1567 89.5049 45.8314 89.2042 46.3878C88.9059 46.9441 88.4987 47.3691 87.9826 47.6626C87.4689 47.9538 86.8912 48.0994 86.2496 48.0994C85.6033 48.0994 85.0233 47.9527 84.5096 47.6591C83.9959 47.3655 83.5898 46.9406 83.2915 46.3842C82.9933 45.8279 82.8441 45.1544 82.8441 44.3636C82.8441 43.5705 82.9933 42.8958 83.2915 42.3395C83.5898 41.7831 83.9959 41.3594 84.5096 41.0682C85.0233 40.7746 85.6033 40.6278 86.2496 40.6278C86.8912 40.6278 87.4689 40.7746 87.9826 41.0682C88.4987 41.3594 88.9059 41.7831 89.2042 42.3395C89.5049 42.8958 89.6552 43.5705 89.6552 44.3636ZM88.0962 44.3636C88.0962 43.8499 88.0193 43.4167 87.8654 43.0639C87.7139 42.7112 87.4996 42.4437 87.2227 42.2614C86.9457 42.0791 86.6213 41.9879 86.2496 41.9879C85.878 41.9879 85.5536 42.0791 85.2766 42.2614C84.9996 42.4437 84.7842 42.7112 84.6303 43.0639C84.4788 43.4167 84.4031 43.8499 84.4031 44.3636C84.4031 44.8774 84.4788 45.3106 84.6303 45.6634C84.7842 46.0161 84.9996 46.2836 85.2766 46.4659C85.5536 46.6482 85.878 46.7393 86.2496 46.7393C86.6213 46.7393 86.9457 46.6482 87.2227 46.4659C87.4996 46.2836 87.7139 46.0161 87.8654 45.6634C88.0193 45.3106 88.0962 44.8774 88.0962 44.3636ZM95.2864 40.7273H96.824V45.4503C96.824 45.9806 96.6974 46.4446 96.4441 46.8423C96.1931 47.2401 95.8416 47.5502 95.3894 47.7727C94.9372 47.9929 94.4105 48.103 93.8091 48.103C93.2054 48.103 92.6775 47.9929 92.2253 47.7727C91.7731 47.5502 91.4216 47.2401 91.1706 46.8423C90.9197 46.4446 90.7942 45.9806 90.7942 45.4503V40.7273H92.3319V45.3189C92.3319 45.5959 92.3922 45.8421 92.513 46.0575C92.6361 46.273 92.8089 46.4422 93.0314 46.5653C93.254 46.6884 93.5132 46.75 93.8091 46.75C94.1074 46.75 94.3667 46.6884 94.5868 46.5653C94.8094 46.4422 94.981 46.273 95.1017 46.0575C95.2248 45.8421 95.2864 45.5959 95.2864 45.3189V40.7273ZM99.3427 48H97.695L100.206 40.7273H102.187L104.694 48H103.047L101.225 42.3892H101.168L99.3427 48ZM99.2397 45.1413H103.132V46.3416H99.2397V45.1413ZM105.57 48V40.7273H107.107V46.7322H110.225V48H105.57ZM112.781 40.7273V48H111.243V40.7273H112.781ZM113.769 41.995V40.7273H119.742V41.995H117.516V48H115.996V41.995H113.769ZM120.3 40.7273H122.022L123.68 43.8594H123.751L125.41 40.7273H127.132L124.479 45.429V48H122.952V45.429L120.3 40.7273ZM134.915 48V40.7273H139.816V41.995H136.453V43.728H139.564V44.9957H136.453V46.7322H139.83V48H134.915ZM141.038 48V40.7273H145.854V41.995H142.576V43.728H145.534V44.9957H142.576V48H141.038ZM146.888 48V40.7273H151.703V41.995H148.426V43.728H151.384V44.9957H148.426V48H146.888ZM154.275 40.7273V48H152.738V40.7273H154.275ZM161.957 43.2734H160.402C160.373 43.0722 160.315 42.8935 160.228 42.7372C160.14 42.5786 160.028 42.4437 159.89 42.3324C159.753 42.2211 159.595 42.1359 159.415 42.0767C159.237 42.0175 159.044 41.9879 158.836 41.9879C158.459 41.9879 158.131 42.0814 157.852 42.2685C157.573 42.4531 157.356 42.723 157.202 43.0781C157.048 43.4309 156.971 43.8594 156.971 44.3636C156.971 44.8821 157.048 45.3177 157.202 45.6705C157.358 46.0232 157.576 46.2895 157.856 46.4695C158.135 46.6494 158.458 46.7393 158.825 46.7393C159.031 46.7393 159.222 46.7121 159.397 46.6577C159.574 46.6032 159.732 46.5239 159.869 46.4197C160.006 46.3132 160.12 46.1842 160.21 46.0327C160.302 45.8812 160.366 45.7083 160.402 45.5142L161.957 45.5213C161.917 45.8551 161.816 46.1771 161.655 46.4872C161.497 46.795 161.282 47.0708 161.013 47.3146C160.745 47.5561 160.425 47.7479 160.054 47.8899C159.684 48.0296 159.267 48.0994 158.8 48.0994C158.152 48.0994 157.572 47.9527 157.06 47.6591C156.551 47.3655 156.149 46.9406 155.853 46.3842C155.559 45.8279 155.412 45.1544 155.412 44.3636C155.412 43.5705 155.562 42.8958 155.86 42.3395C156.158 41.7831 156.563 41.3594 157.074 41.0682C157.586 40.7746 158.161 40.6278 158.8 40.6278C159.222 40.6278 159.612 40.687 159.972 40.8054C160.334 40.9238 160.655 41.0966 160.934 41.3239C161.214 41.5488 161.441 41.8246 161.616 42.1513C161.794 42.478 161.907 42.852 161.957 43.2734ZM163.06 48V40.7273H167.96V41.995H164.597V43.728H167.708V44.9957H164.597V46.7322H167.975V48H163.06ZM175.266 40.7273V48H173.938L170.774 43.4226H170.721V48H169.183V40.7273H170.532L173.672 45.3011H173.735V40.7273H175.266ZM182.953 43.2734H181.398C181.369 43.0722 181.311 42.8935 181.224 42.7372C181.136 42.5786 181.024 42.4437 180.887 42.3324C180.749 42.2211 180.591 42.1359 180.411 42.0767C180.233 42.0175 180.04 41.9879 179.832 41.9879C179.455 41.9879 179.128 42.0814 178.848 42.2685C178.569 42.4531 178.352 42.723 178.198 43.0781C178.044 43.4309 177.968 43.8594 177.968 44.3636C177.968 44.8821 178.044 45.3177 178.198 45.6705C178.355 46.0232 178.572 46.2895 178.852 46.4695C179.131 46.6494 179.454 46.7393 179.821 46.7393C180.027 46.7393 180.218 46.7121 180.393 46.6577C180.57 46.6032 180.728 46.5239 180.865 46.4197C181.003 46.3132 181.116 46.1842 181.206 46.0327C181.298 45.8812 181.362 45.7083 181.398 45.5142L182.953 45.5213C182.913 45.8551 182.812 46.1771 182.651 46.4872C182.493 46.795 182.279 47.0708 182.009 47.3146C181.741 47.5561 181.422 47.7479 181.05 47.8899C180.681 48.0296 180.263 48.0994 179.796 48.0994C179.148 48.0994 178.568 47.9527 178.056 47.6591C177.547 47.3655 177.145 46.9406 176.849 46.3842C176.555 45.8279 176.409 45.1544 176.409 44.3636C176.409 43.5705 176.558 42.8958 176.856 42.3395C177.154 41.7831 177.559 41.3594 178.07 41.0682C178.582 40.7746 179.157 40.6278 179.796 40.6278C180.218 40.6278 180.608 40.687 180.968 40.8054C181.33 40.9238 181.651 41.0966 181.931 41.3239C182.21 41.5488 182.437 41.8246 182.612 42.1513C182.79 42.478 182.904 42.852 182.953 43.2734ZM183.63 40.7273H185.352L187.01 43.8594H187.081L188.74 40.7273H190.462L187.809 45.429V48H186.282V45.429L183.63 40.7273ZM202.874 40.7273H204.771L206.773 45.6136H206.859L208.862 40.7273H210.758V48H209.266V43.2663H209.206L207.324 47.9645H206.308L204.426 43.2486H204.366V48H202.874V40.7273ZM218.708 44.3636C218.708 45.1567 218.558 45.8314 218.257 46.3878C217.959 46.9441 217.551 47.3691 217.035 47.6626C216.522 47.9538 215.944 48.0994 215.302 48.0994C214.656 48.0994 214.076 47.9527 213.562 47.6591C213.049 47.3655 212.643 46.9406 212.344 46.3842C212.046 45.8279 211.897 45.1544 211.897 44.3636C211.897 43.5705 212.046 42.8958 212.344 42.3395C212.643 41.7831 213.049 41.3594 213.562 41.0682C214.076 40.7746 214.656 40.6278 215.302 40.6278C215.944 40.6278 216.522 40.7746 217.035 41.0682C217.551 41.3594 217.959 41.7831 218.257 42.3395C218.558 42.8958 218.708 43.5705 218.708 44.3636ZM217.149 44.3636C217.149 43.8499 217.072 43.4167 216.918 43.0639C216.767 42.7112 216.552 42.4437 216.275 42.2614C215.998 42.0791 215.674 41.9879 215.302 41.9879C214.931 41.9879 214.606 42.0791 214.329 42.2614C214.052 42.4437 213.837 42.7112 213.683 43.0639C213.532 43.4167 213.456 43.8499 213.456 44.3636C213.456 44.8774 213.532 45.3106 213.683 45.6634C213.837 46.0161 214.052 46.2836 214.329 46.4659C214.606 46.6482 214.931 46.7393 215.302 46.7393C215.674 46.7393 215.998 46.6482 216.275 46.4659C216.552 46.2836 216.767 46.0161 216.918 45.6634C217.072 45.3106 217.149 44.8774 217.149 44.3636ZM219.847 48V40.7273H222.716C223.266 40.7273 223.734 40.8255 224.123 41.022C224.513 41.2161 224.81 41.492 225.014 41.8494C225.22 42.2045 225.323 42.6224 225.323 43.103C225.323 43.5859 225.219 44.0014 225.01 44.3494C224.802 44.6951 224.5 44.9602 224.105 45.1449C223.712 45.3295 223.236 45.4219 222.677 45.4219H220.756V44.1861H222.429C222.722 44.1861 222.966 44.1458 223.16 44.0653C223.354 43.9848 223.499 43.8641 223.593 43.7031C223.69 43.5421 223.739 43.3421 223.739 43.103C223.739 42.8615 223.69 42.6579 223.593 42.4922C223.499 42.3265 223.353 42.201 223.157 42.1158C222.962 42.0282 222.717 41.9844 222.422 41.9844H221.385V48H219.847ZM223.775 44.6903L225.582 48H223.885L222.116 44.6903H223.775ZM227.663 48H226.015L228.526 40.7273H230.507L233.015 48H231.367L229.545 42.3892H229.488L227.663 48ZM227.56 45.1413H231.452V46.3416H227.56V45.1413ZM233.89 48V40.7273H235.428V46.7322H238.545V48H233.89ZM241.101 40.7273V48H239.564V40.7273H241.101ZM242.089 41.995V40.7273H248.062V41.995H245.836V48H244.316V41.995H242.089ZM248.62 40.7273H250.342L252.001 43.8594H252.072L253.73 40.7273H255.452L252.8 45.429V48H251.273V45.429L248.62 40.7273Z" fill="white"/>
<line x1="70" y1="33.25" x2="268" y2="33.25" stroke="white" stroke-width="1.5"/>
<defs>
<clipPath id="clip0_143_204">
<rect width="40.616" height="25.471" fill="white" transform="translate(9.01807 11.221)"/>
</clipPath>
<clipPath id="clip1_143_204">
<rect width="58.721" height="22.9239" fill="white"/>
</clipPath>
<clipPath id="clip2_143_204">
<rect width="55.5544" height="3.30435" fill="white" transform="translate(1.58301 53.6956)"/>
</clipPath>
<clipPath id="clip3_143_204">
<rect width="51.9747" height="12.6667" fill="white" transform="translate(3.37305 38.2754)"/>
</clipPath>
</defs>
</svg>
