<svg width="313" height="240" viewBox="0 0 313 240" fill="none" xmlns="http://www.w3.org/2000/svg">
<g clip-path="url(#clip0_143_267)">
<path d="M274.496 81.3043L215.433 111.569L215.18 145.595V146.375H215.141L215.531 92.7828L158.808 72.1254L158.223 153.391L100.759 146.375V145.537H100.369L100.506 110.79L41.7749 79.6088C41.6384 79.5309 41.5214 79.4724 41.4044 79.3945L41.2679 96.544C43.2763 97.0312 44.7192 98.3369 44.6997 99.8375L44.4462 134.624C44.4267 136.534 42.0869 138.054 39.201 138.034C36.2956 138.015 33.9753 136.456 33.9948 134.546L34.2482 99.7595C34.2482 98.2589 35.6912 96.9922 37.7191 96.5245L37.8751 74.1717C37.4071 71.2874 38.616 68.1498 41.5409 66.4739L70.77 49.5777L98.4976 33.578L117.314 22.7036L145.022 6.7039L154.908 1.01338C156.078 0.311809 157.404 0 158.711 0C160.037 0 161.343 0.350786 162.513 1.05236L163.839 1.85137L191.547 18.3968L210.364 29.6219L238.072 46.1673L274.925 68.1693C279.995 71.19 279.761 78.6149 274.496 81.3043Z" fill="black"/>
<path d="M215.531 92.7828L215.141 146.375V146.434L158.223 153.391L158.808 72.1254L215.531 92.7828Z" fill="#1469C7"/>
</g>
<g clip-path="url(#clip1_143_267)">
<path d="M172.422 221.928C225.498 195.819 273.665 191.266 297.558 190.859C306.218 190.706 313.262 197.777 313.097 206.438C312.932 214.539 306.472 221.127 298.372 221.407C228.715 223.874 160.138 239.224 160.138 239.224C159.884 231.327 160.138 229.444 160.138 229.444C161.334 226.061 172.422 221.941 172.422 221.941" fill="#1469C7"/>
<path d="M167.132 204.988C198.883 178.523 230.838 167.496 247.013 163.274C252.862 161.748 258.813 165.385 260.136 171.299C261.356 176.831 258.063 182.363 252.595 183.889C205.686 197.04 161.639 218.749 161.639 218.749C160.164 213.433 160.024 212.097 160.024 212.097C160.278 209.605 167.132 204.975 167.132 204.975" fill="#1469C7"/>
<path d="M140.678 221.923C87.6022 195.814 39.4346 191.248 15.5416 190.841C6.88211 190.689 -0.162455 197.76 0.00285104 206.42C0.168157 214.522 6.6278 221.109 14.7278 221.389C84.3851 223.856 152.961 239.207 152.961 239.207C153.216 231.309 152.961 229.427 152.961 229.427C151.766 226.044 140.678 221.923 140.678 221.923Z" fill="#26E86D"/>
<path d="M145.898 204.988C114.146 178.523 82.1916 167.496 66.0298 163.274C60.1678 161.748 54.2168 165.385 52.907 171.299C51.6863 176.831 54.9797 182.363 60.4348 183.889C107.343 197.04 151.391 218.749 151.391 218.749C152.866 213.433 153.006 212.097 153.006 212.097C152.752 209.605 145.898 204.975 145.898 204.975" fill="#26E86D"/>
</g>
<defs>
<clipPath id="clip0_143_267">
<rect width="244.596" height="153.391" fill="white" transform="translate(33.9946)"/>
</clipPath>
<clipPath id="clip1_143_267">
<rect width="313" height="76.2808" fill="white" transform="translate(0 162.926)"/>
</clipPath>
</defs>
</svg>
