<svg width="156" height="57" viewBox="0 0 156 57" fill="none" xmlns="http://www.w3.org/2000/svg">
<path d="M67.7569 43.3423H68.7901V46.9595H67.7569C65.3447 46.9595 64.1396 45.7916 64.1396 43.4556V32.4886H67.7569V43.3423ZM70.8585 36.1059V32.4886H81.1946V36.1059H70.8585ZM74.4757 46.9595C72.0636 46.9595 70.8585 45.7877 70.8585 43.4458V42.0083C70.8585 40.395 71.3331 39.1821 72.2804 38.3637C73.2277 37.5473 74.4777 37.1391 76.0265 37.1391C77.5754 37.1391 78.8254 37.5473 79.7727 38.3637C80.72 39.1801 81.1946 40.395 81.1946 42.0083V46.9595H77.5773V42.6177C77.5773 42.0259 77.4387 41.5669 77.1594 41.2427C76.8801 40.9185 76.5031 40.7563 76.0285 40.7563C75.5539 40.7563 75.175 40.9185 74.8976 41.2427C74.6183 41.5669 74.4796 42.0239 74.4796 42.6177V43.3423H76.0304V46.9595H74.4796H74.4757Z" fill="#1469C7"/>
<path d="M84.294 31.6625C84.294 31.0706 84.1554 30.6117 83.8761 30.2874C83.5968 29.9632 83.2198 29.8011 82.7452 29.8011C82.2706 29.8011 81.8331 30.0081 81.4327 30.4203H79.6436C78.2647 30.4203 77.5772 29.5589 77.5772 27.8362V24.219H81.1944V26.9573C81.876 26.51 82.6007 26.2854 83.3643 26.2854C84.8468 26.2854 85.9737 26.6936 86.7491 27.5101C87.5245 28.3265 87.9113 29.5413 87.9113 31.1546V48.8092C87.9113 50.4225 87.4367 51.6354 86.4894 52.4538C85.5421 53.2721 84.2921 53.6784 82.7432 53.6784C81.1944 53.6784 79.9444 53.2702 78.9971 52.4538C78.0498 51.6373 77.5752 50.4225 77.5752 48.8092V48.5103H81.1924C81.1924 48.9654 81.3311 49.3541 81.6104 49.6783C81.8897 50.0025 82.2667 50.1647 82.7413 50.1647C83.2159 50.1647 83.5948 50.0025 83.8722 49.6783C84.1515 49.3541 84.2901 48.8971 84.2901 48.3033V31.6605L84.294 31.6625Z" fill="#1469C7"/>
<path d="M97.7315 37.1411V32.4906H101.349V42.0923C101.349 43.7056 100.874 44.9185 99.9269 45.7369C98.9796 46.5552 97.7296 46.9615 96.1807 46.9615C94.6319 46.9615 93.3819 46.5533 92.4346 45.7369C91.4873 44.9205 91.0127 43.7056 91.0127 42.0923V32.4906H94.6299V37.1411H97.7315ZM97.7315 40.7583H94.6299V41.481C94.6299 42.0747 94.7686 42.5318 95.0479 42.856C95.3272 43.1802 95.7042 43.3423 96.1788 43.3423C96.6534 43.3423 97.0323 43.1802 97.3097 42.856C97.587 42.5318 97.7276 42.0747 97.7276 41.481V40.7583H97.7315Z" fill="#1469C7"/>
<path d="M114.787 36.1078V43.4575C114.787 45.7935 113.582 46.9615 111.17 46.9615H110.136V43.3443H111.17V40.7602H108.068V43.4575C108.068 45.7935 106.863 46.9615 104.451 46.9615H103.417V43.3443H104.451V32.4906H108.068V37.1411H111.17V32.4906H116.338C117.888 32.4906 119.136 32.8988 120.084 33.7152C121.031 34.5316 121.506 35.7465 121.506 37.3579V46.9615H117.888V37.9692C117.888 37.3774 117.75 36.9184 117.47 36.5942C117.191 36.2699 116.814 36.1078 116.34 36.1078H114.789H114.787Z" fill="#1469C7"/>
<path d="M134.943 41.4829C134.943 42.0767 135.082 42.5337 135.361 42.8579C135.64 43.1821 136.017 43.3443 136.492 43.3443C136.966 43.3443 137.345 43.1821 137.623 42.8579C137.9 42.5337 138.041 42.0767 138.041 41.4829V32.4906H141.658V42.0923C141.658 43.7056 141.183 44.9185 140.236 45.7369C139.289 46.5533 138.039 46.9615 136.49 46.9615C135.138 46.9615 134.019 46.6549 133.13 46.0416C132.242 46.6549 131.121 46.9615 129.771 46.9615C128.22 46.9615 126.972 46.5533 126.025 45.7369C125.078 44.9205 124.603 43.7056 124.603 42.0923V36.0043C124.603 33.6605 125.808 32.4906 128.22 32.4906H129.253V36.1078H128.22V41.4829C128.22 42.0767 128.359 42.5337 128.638 42.8579C128.918 43.1821 129.294 43.3443 129.769 43.3443C130.244 43.3443 130.623 43.1821 130.9 42.8579C131.177 42.5337 131.318 42.0767 131.318 41.4829V32.4906H134.935V41.4829H134.943Z" fill="#1469C7"/>
<path d="M148.381 42.8267C148.381 43.1704 148.522 43.3443 148.805 43.3443C149.088 43.3443 149.455 43.0005 149.932 42.311C150.406 43.0005 150.785 43.3443 151.068 43.3443C151.352 43.3443 151.483 43.1724 151.483 42.8267V40.7602H150.449V37.143H151.483C153.895 37.143 155.1 38.3149 155.1 40.6567V43.9634C155.1 45.9615 154.238 46.9615 152.516 46.9615C151.572 46.9615 150.711 46.4439 149.932 45.4107C149.16 46.4439 148.299 46.9615 147.348 46.9615C145.625 46.9615 144.764 45.9615 144.764 43.9634V37.6586L144.246 36.6254V36.1078C144.246 33.6957 145.451 32.4906 147.863 32.4906H155.1V36.1078H148.381C148.037 36.1078 147.863 36.2797 147.863 36.6254L148.381 37.6586V42.8267Z" fill="#1469C7"/>
<path d="M151.998 26.9398V25.7718H155.1V30.9398H144.764V29.9066C144.764 28.6664 145.107 27.7523 145.797 27.1683C146.486 26.5823 147.52 26.2894 148.898 26.2894C149.981 26.2894 151.014 26.5062 152 26.9398H151.998ZM149.621 28.3558C149.139 28.3558 148.795 28.4593 148.588 28.6664C148.381 28.8734 148.277 29.1136 148.277 29.389H152.494C151.75 28.6996 150.793 28.3558 149.621 28.3558Z" fill="#1469C7"/>
<path d="M125.023 50.327H122.908V56.0634H121.209V50.327H119.132V49.0145H125.025V50.327H125.023Z" fill="#1469C7"/>
<path d="M127.55 56.0633H125.855V49.0143H127.55V56.0633Z" fill="#1469C7"/>
<path d="M133.103 53.0749H130.431V54.7546H133.587V56.0613H128.732V49.0123H133.597V50.3248H130.431V51.8112H133.103V53.0749Z" fill="#1469C7"/>
<path d="M136.512 49.0143L138.086 53.9187L139.654 49.0143H141.891V56.0633H140.186V54.4168L140.35 51.0476L138.645 56.0633H137.522L135.813 51.0437L135.977 54.4187V56.0652H134.277V49.0163H136.51L136.512 49.0143Z" fill="#1469C7"/>
<path d="M147.535 56.0633H145.84V49.0143H147.535V56.0633Z" fill="#1469C7"/>
<path d="M154.25 50.3269H152.135V56.0633H150.436V50.3269H148.359V49.0143H154.252V50.3269H154.25Z" fill="#1469C7"/>
<path d="M67.7569 43.3423H68.7901V46.9595H67.7569C65.3447 46.9595 64.1396 45.7916 64.1396 43.4556V32.4886H67.7569V43.3423ZM70.8585 36.1059V32.4886H81.1946V36.1059H70.8585ZM74.4757 46.9595C72.0636 46.9595 70.8585 45.7877 70.8585 43.4458V42.0083C70.8585 40.395 71.3331 39.1821 72.2804 38.3637C73.2277 37.5473 74.4777 37.1391 76.0265 37.1391C77.5754 37.1391 78.8254 37.5473 79.7727 38.3637C80.72 39.1801 81.1946 40.395 81.1946 42.0083V46.9595H77.5773V42.6177C77.5773 42.0259 77.4387 41.5669 77.1594 41.2427C76.8801 40.9185 76.5031 40.7563 76.0285 40.7563C75.5539 40.7563 75.175 40.9185 74.8976 41.2427C74.6183 41.5669 74.4796 42.0239 74.4796 42.6177V43.3423H76.0304V46.9595H74.4796H74.4757Z" fill="#1469C7"/>
<path d="M84.294 31.6625C84.294 31.0706 84.1554 30.6117 83.8761 30.2874C83.5968 29.9632 83.2198 29.8011 82.7452 29.8011C82.2706 29.8011 81.8331 30.0081 81.4327 30.4203H79.6436C78.2647 30.4203 77.5772 29.5589 77.5772 27.8362V24.219H81.1944V26.9573C81.876 26.51 82.6007 26.2854 83.3643 26.2854C84.8468 26.2854 85.9737 26.6936 86.7491 27.5101C87.5245 28.3265 87.9113 29.5413 87.9113 31.1546V48.8092C87.9113 50.4225 87.4367 51.6354 86.4894 52.4538C85.5421 53.2721 84.2921 53.6784 82.7432 53.6784C81.1944 53.6784 79.9444 53.2702 78.9971 52.4538C78.0498 51.6373 77.5752 50.4225 77.5752 48.8092V48.5103H81.1924C81.1924 48.9654 81.3311 49.3541 81.6104 49.6783C81.8897 50.0025 82.2667 50.1647 82.7413 50.1647C83.2159 50.1647 83.5948 50.0025 83.8722 49.6783C84.1515 49.3541 84.2901 48.8971 84.2901 48.3033V31.6605L84.294 31.6625Z" fill="#1469C7"/>
<path d="M97.7315 37.1411V32.4906H101.349V42.0923C101.349 43.7056 100.874 44.9185 99.9269 45.7369C98.9796 46.5552 97.7296 46.9615 96.1807 46.9615C94.6319 46.9615 93.3819 46.5533 92.4346 45.7369C91.4873 44.9205 91.0127 43.7056 91.0127 42.0923V32.4906H94.6299V37.1411H97.7315ZM97.7315 40.7583H94.6299V41.481C94.6299 42.0747 94.7686 42.5318 95.0479 42.856C95.3272 43.1802 95.7042 43.3423 96.1788 43.3423C96.6534 43.3423 97.0323 43.1802 97.3097 42.856C97.587 42.5318 97.7276 42.0747 97.7276 41.481V40.7583H97.7315Z" fill="#1469C7"/>
<path d="M114.787 36.1078V43.4575C114.787 45.7935 113.582 46.9615 111.17 46.9615H110.136V43.3443H111.17V40.7602H108.068V43.4575C108.068 45.7935 106.863 46.9615 104.451 46.9615H103.417V43.3443H104.451V32.4906H108.068V37.1411H111.17V32.4906H116.338C117.888 32.4906 119.136 32.8988 120.084 33.7152C121.031 34.5316 121.506 35.7465 121.506 37.3579V46.9615H117.888V37.9692C117.888 37.3774 117.75 36.9184 117.47 36.5942C117.191 36.2699 116.814 36.1078 116.34 36.1078H114.789H114.787Z" fill="#1469C7"/>
<path d="M134.943 41.4829C134.943 42.0767 135.082 42.5337 135.361 42.8579C135.64 43.1821 136.017 43.3443 136.492 43.3443C136.966 43.3443 137.345 43.1821 137.623 42.8579C137.9 42.5337 138.041 42.0767 138.041 41.4829V32.4906H141.658V42.0923C141.658 43.7056 141.183 44.9185 140.236 45.7369C139.289 46.5533 138.039 46.9615 136.49 46.9615C135.138 46.9615 134.019 46.6549 133.13 46.0416C132.242 46.6549 131.121 46.9615 129.771 46.9615C128.22 46.9615 126.972 46.5533 126.025 45.7369C125.078 44.9205 124.603 43.7056 124.603 42.0923V36.0043C124.603 33.6605 125.808 32.4906 128.22 32.4906H129.253V36.1078H128.22V41.4829C128.22 42.0767 128.359 42.5337 128.638 42.8579C128.918 43.1821 129.294 43.3443 129.769 43.3443C130.244 43.3443 130.623 43.1821 130.9 42.8579C131.177 42.5337 131.318 42.0767 131.318 41.4829V32.4906H134.935V41.4829H134.943Z" fill="#1469C7"/>
<path d="M148.381 42.8267C148.381 43.1704 148.522 43.3443 148.805 43.3443C149.088 43.3443 149.455 43.0005 149.932 42.311C150.406 43.0005 150.785 43.3443 151.068 43.3443C151.352 43.3443 151.483 43.1724 151.483 42.8267V40.7602H150.449V37.143H151.483C153.895 37.143 155.1 38.3149 155.1 40.6567V43.9634C155.1 45.9615 154.238 46.9615 152.516 46.9615C151.572 46.9615 150.711 46.4439 149.932 45.4107C149.16 46.4439 148.299 46.9615 147.348 46.9615C145.625 46.9615 144.764 45.9615 144.764 43.9634V37.6586L144.246 36.6254V36.1078C144.246 33.6957 145.451 32.4906 147.863 32.4906H155.1V36.1078H148.381C148.037 36.1078 147.863 36.2797 147.863 36.6254L148.381 37.6586V42.8267Z" fill="#1469C7"/>
<path d="M151.998 26.9398V25.7718H155.1V30.9398H144.764V29.9066C144.764 28.6664 145.107 27.7523 145.797 27.1683C146.486 26.5823 147.52 26.2894 148.898 26.2894C149.981 26.2894 151.014 26.5062 152 26.9398H151.998ZM149.621 28.3558C149.139 28.3558 148.795 28.4593 148.588 28.6664C148.381 28.8734 148.277 29.1136 148.277 29.389H152.494C151.75 28.6996 150.793 28.3558 149.621 28.3558Z" fill="#1469C7"/>
<path d="M125.023 50.327H122.908V56.0634H121.209V50.327H119.132V49.0145H125.025V50.327H125.023Z" fill="#1469C7"/>
<path d="M127.55 56.0633H125.855V49.0143H127.55V56.0633Z" fill="#1469C7"/>
<path d="M133.103 53.0749H130.431V54.7546H133.587V56.0613H128.732V49.0123H133.597V50.3248H130.431V51.8112H133.103V53.0749Z" fill="#1469C7"/>
<path d="M136.512 49.0143L138.086 53.9187L139.654 49.0143H141.891V56.0633H140.186V54.4168L140.35 51.0476L138.645 56.0633H137.522L135.813 51.0437L135.977 54.4187V56.0652H134.277V49.0163H136.51L136.512 49.0143Z" fill="#1469C7"/>
<path d="M147.535 56.0633H145.84V49.0143H147.535V56.0633Z" fill="#1469C7"/>
<path d="M154.25 50.3269H152.135V56.0633H150.436V50.3269H148.359V49.0143H154.252V50.3269H154.25Z" fill="#1469C7"/>
<path d="M13.4914 51.5124V43.9381L13.464 43.9107H13.4914V33.7758H13.3019L13.4914 33.5864V15.6701L10.589 18.5725L10.1066 19.0549L8.42297 20.7385L8.31554 20.846L8.05577 21.1057L4.73151 24.428L2.98735 26.1722L2.94047 26.2191L0.454108 28.7054C-0.151369 29.3109 -0.151369 30.2933 0.454108 30.8988L1.84475 32.2895C2.45023 32.8949 3.43266 32.8949 4.03814 32.2895L6.5245 29.8031L7.62217 28.7074L8.3175 28.0121L8.42492 27.9046V52.9128C8.42492 54.9363 10.0656 56.5789 12.091 56.5789H21.095V51.5397L21.0677 51.5124H13.4933H13.4914Z" fill="#1469C7"/>
<path d="M22.8844 44.6529C22.4273 44.1939 21.7926 43.9107 21.0933 43.9107V25.9847L23.6266 23.4515V46.444H28.695V19.7073L27.5583 18.5725L24.4488 15.4631L23.6266 16.2854L21.0933 18.8186L20.8668 19.0471L19.066 20.846L16.0249 23.887V48.9772H21.0933C21.7926 48.9772 22.4273 48.694 22.8844 48.235C23.3434 47.778 23.6266 47.1432 23.6266 46.444C23.6266 45.7447 23.3434 45.11 22.8844 44.6529Z" fill="#1469C7"/>
<path d="M17.7573 18.5725L19.0757 17.2541L22.6578 13.672L22.8238 13.506L23.6285 12.7013L24.4508 11.879L28.0329 8.29692L24.4508 4.71289L21.0933 8.06841L20.8668 8.29692L19.0757 10.088L16.0269 13.1368V20.3029L17.2749 19.0549L17.7573 18.5725Z" fill="#1469C7"/>
<path d="M59.1932 28.7074L46.4313 15.9455V36.3091H43.8961V13.4123L40.5738 10.088L36.9897 13.672L38.8296 15.51V56.5808H47.8317C49.8571 56.5808 51.4978 54.9382 51.4978 52.9148V28.1801L52.0271 28.7074L53.1228 29.8051L55.6111 32.2914C56.2166 32.8969 57.197 32.8969 57.8025 32.2914L59.1932 30.9008C59.7986 30.2953 59.7986 29.3148 59.1932 28.7074ZM46.4313 51.5124H43.8961V41.3775H46.4313V51.5124Z" fill="#1469C7"/>
<path d="M35.1989 11.8791L36.2966 10.7833L38.7829 8.29699L30.9547 0.468756C30.3297 -0.156252 29.3179 -0.156252 28.6949 0.468756L26.2417 2.92191L31.6168 8.29699L31.2281 8.68371L28.6949 11.2169L26.4078 13.506L26.2417 13.6721L28.6949 16.1252L31.1422 18.5725H31.2281V51.5124H28.6949V48.9772H23.6265V56.5789H36.2966V16.5588L35.1989 15.4631L33.4078 13.6721L33.5739 13.506L35.1989 11.8791Z" fill="#1469C7"/>
</svg>
