<svg width="755" height="577" viewBox="0 0 755 577" fill="none" xmlns="http://www.w3.org/2000/svg">
<g clip-path="url(#clip0_112_62)">
<path d="M662.123 196.117L519.656 269.121L519.044 351.197V353.077H518.95L519.891 223.805L383.068 173.977L381.657 370L243.046 353.077V351.056H242.106L242.435 267.24L100.767 192.028C100.438 191.84 100.156 191.699 99.8734 191.511L99.5441 232.878C104.389 234.053 107.869 237.202 107.822 240.822L107.211 324.731C107.164 329.338 101.52 333.005 94.5585 332.958C87.5504 332.911 81.9533 329.15 82.0003 324.543L82.6117 240.634C82.6117 237.014 86.0923 233.959 90.9839 232.831L91.3601 178.912C90.2313 171.955 93.1475 164.387 100.203 160.344L170.707 119.588L237.59 80.9948L282.978 54.7643L349.814 16.1708L373.661 2.44442C376.483 0.752128 379.681 0 382.833 0C386.031 0 389.182 0.846144 392.004 2.53843L395.203 4.46576L462.039 44.3756L507.427 71.4522L574.263 111.362L663.158 164.434C675.387 171.72 674.822 189.63 662.123 196.117Z" fill="black"/>
<path d="M519.89 223.805L518.95 353.077V353.218L381.656 370L383.067 173.977L519.89 223.805Z" fill="#0F00D2"/>
</g>
<g clip-path="url(#clip1_112_62)">
<path d="M415.906 535.322C543.932 472.342 660.119 461.36 717.752 460.378C738.64 460.01 755.633 477.066 755.234 497.957C754.835 517.499 739.254 533.389 719.715 534.064C551.692 540.015 386.276 577.042 386.276 577.042C385.663 557.992 386.276 553.452 386.276 553.452C389.159 545.292 415.906 535.353 415.906 535.353" fill="#0F00D2"/>
<path d="M403.146 494.46C479.735 430.622 556.814 404.025 595.83 393.84C609.939 390.159 624.294 398.932 627.483 413.197C630.428 426.542 622.484 439.886 609.295 443.567C496.144 475.287 389.895 527.653 389.895 527.653C386.337 514.83 386 511.609 386 511.609C386.613 505.596 403.146 494.43 403.146 494.43" fill="#0F00D2"/>
<path d="M339.335 535.31C211.309 472.33 95.1219 461.317 37.4885 460.336C16.6006 459.968 -0.391863 477.024 0.00687712 497.915C0.405618 517.456 15.9872 533.347 35.5255 534.022C203.549 539.973 368.965 577 368.965 577C369.578 557.95 368.965 553.409 368.965 553.409C366.081 545.249 339.335 535.31 339.335 535.31Z" fill="#00D950"/>
<path d="M351.926 494.46C275.337 430.622 198.257 404.025 159.273 393.84C145.133 390.159 130.778 398.932 127.619 413.197C124.674 426.542 132.618 439.886 145.777 443.567C258.927 475.287 365.176 527.653 365.176 527.653C368.734 514.83 369.072 511.609 369.072 511.609C368.458 505.596 351.926 494.43 351.926 494.43" fill="#00D950"/>
</g>
<defs>
<clipPath id="clip0_112_62">
<rect width="590" height="370" fill="white" transform="translate(82)"/>
</clipPath>
<clipPath id="clip1_112_62">
<rect width="755" height="184" fill="white" transform="translate(0 393)"/>
</clipPath>
</defs>
</svg>
