<svg width="960" height="960" viewBox="0 0 960 960" fill="none" xmlns="http://www.w3.org/2000/svg">
<rect width="960" height="960" rx="162" fill="white"/>
<path d="M0 803H960V803C960 889.709 889.709 960 803 960H157C70.2913 960 0 889.709 0 803V803Z" fill="#FF0004"/>
<g clip-path="url(#clip0_551_246)">
<path d="M712.217 359.626L595.731 419.316L595.231 486.424V487.962H595.154L595.924 382.265L484.053 341.523L482.899 501.798L369.566 487.962V486.309H368.797L369.066 417.779L253.234 356.282C252.965 356.129 252.734 356.013 252.504 355.86L252.234 389.683C256.195 390.643 259.041 393.219 259.003 396.178L258.503 464.785C258.464 468.552 253.85 471.55 248.158 471.511C242.428 471.473 237.851 468.398 237.89 464.631L238.39 396.024C238.39 393.065 241.236 390.567 245.235 389.644L245.543 345.559C244.62 339.87 247.004 333.682 252.773 330.377L310.42 297.054L365.105 265.498L402.216 244.051L456.863 212.496L476.361 201.273C478.669 199.889 481.284 199.274 483.86 199.274C486.475 199.274 489.052 199.966 491.359 201.35L493.974 202.926L548.622 235.557L585.733 257.696L640.38 290.327L713.063 333.721C723.062 339.678 722.601 354.322 712.217 359.626Z" fill="black"/>
<path d="M595.923 382.265L595.154 487.962V488.077L482.898 501.798L484.052 341.523L595.923 382.265Z" fill="#1469C7"/>
</g>
<g clip-path="url(#clip1_551_246)">
<path d="M164.299 305.891L158.439 321.671L168.331 325.364L175.23 306.711L182.948 309.583L172.332 338.272L130.748 322.807L141.396 294.056L149.146 296.928L142.215 315.643L150.973 318.894L156.832 303.113L164.299 305.891Z" fill="#1469C7"/>
<path d="M187.516 299.105L148.484 278.055L155.257 265.462C157.116 261.99 159.573 259.308 162.629 257.414C165.685 255.489 169.056 254.542 172.71 254.542C176.396 254.542 180.019 255.457 183.547 257.351L185.343 258.329C188.902 260.254 191.706 262.748 193.722 265.777C195.739 268.807 196.81 272.153 196.936 275.751C197.062 279.348 196.211 282.852 194.415 286.26L187.485 299.137L187.516 299.105ZM160.802 272.531L185.343 285.755L187.107 282.473C188.556 279.759 188.713 277.171 187.579 274.678C186.445 272.184 183.957 269.912 180.176 267.892L178.475 266.977C174.695 264.957 171.481 264.136 168.772 264.547C166.063 264.957 163.984 266.567 162.503 269.344L160.802 272.5V272.531Z" fill="#1469C7"/>
<path d="M201.786 208.369L193.879 219.1L222.925 240.561L216.593 249.177L187.547 227.716L179.797 238.257L173.15 233.333L195.139 203.446L201.786 208.369Z" fill="#1469C7"/>
<path d="M285.143 158.062C286.939 160.587 288.01 163.238 288.262 166.047C288.545 168.855 288.01 171.633 286.655 174.347C285.301 177.093 283.253 179.554 280.481 181.764C275.913 185.393 271.156 186.75 266.147 185.866C261.169 184.983 256.507 181.827 252.223 176.398L250.868 174.694C248.159 171.286 246.395 167.845 245.544 164.342C244.693 160.839 244.851 157.525 245.954 154.338C247.088 151.182 249.104 148.436 252.034 146.1C256.255 142.755 260.508 141.177 264.824 141.335C269.14 141.524 273.015 143.418 276.48 147.047L268.132 153.675C266.399 151.623 264.666 150.519 262.902 150.393C261.138 150.266 259.279 151.024 257.232 152.633C255.152 154.306 254.239 156.294 254.522 158.63C254.774 160.965 256.255 163.869 258.933 167.309L260.886 169.771C263.816 173.495 266.399 175.767 268.573 176.619C270.778 177.471 273.015 176.998 275.283 175.199C277.204 173.684 278.307 172.043 278.622 170.339C278.906 168.634 278.307 166.741 276.826 164.721L285.143 158.093V158.062Z" fill="#1469C7"/>
<path d="M330.381 147.742L321.214 153.138L311.826 137.137L298.248 145.122L307.636 161.123L298.437 166.552L275.976 128.269L285.206 122.84L294.121 138.052L307.699 130.068L298.784 114.856L307.951 109.459L330.412 147.742H330.381Z" fill="#1469C7"/>
<path d="M379.274 118.264L365.381 122.935L365.602 131.614L354.765 135.244L356.056 87.9345L365.602 84.7153L395.246 121.609L384.346 125.27L379.242 118.232L379.274 118.264ZM365.192 114.287L374.233 111.258L364.814 98.1916L365.224 114.319L365.192 114.287Z" fill="#1469C7"/>
<path d="M435.506 98.3495C435.947 101.411 435.632 104.251 434.592 106.871C433.521 109.49 431.788 111.7 429.331 113.467C426.874 115.266 423.913 116.497 420.447 117.159C414.714 118.233 409.863 117.223 405.862 114.13C401.861 111.005 399.215 106.05 397.923 99.2332L397.513 97.087C396.694 92.8264 396.726 88.9445 397.608 85.4412C398.49 81.938 400.16 79.066 402.617 76.7937C405.074 74.5213 408.13 73.038 411.816 72.3437C417.108 71.3337 421.613 71.9334 425.362 74.1111C429.111 76.2887 431.662 79.7919 433.017 84.5891L422.527 86.5774C421.96 83.9263 420.92 82.159 419.439 81.2437C417.959 80.3285 415.943 80.1075 413.359 80.5809C410.745 81.0859 409.012 82.4114 408.161 84.6207C407.311 86.7983 407.279 90.0491 408.035 94.3728L408.602 97.4658C409.485 102.105 410.713 105.324 412.257 107.123C413.8 108.891 416.006 109.522 418.841 108.985C421.267 108.512 422.999 107.597 424.039 106.24C425.11 104.851 425.425 102.926 425.047 100.432L435.474 98.4441L435.506 98.3495Z" fill="#1469C7"/>
<path d="M468.08 102.736L453.462 103.462L451.32 111.889L439.916 112.457L453.903 67.294L463.953 66.7891L482.539 110.342L471.072 110.911L468.08 102.768V102.736ZM455.604 95.0988L465.118 94.6254L459.574 79.4764L455.604 95.0988Z" fill="#1469C7"/>
<path d="M490.101 110.216L494.291 66L508.498 67.3571C512.405 67.7358 515.839 68.9351 518.768 71.0181C521.698 73.1011 523.903 75.8153 525.352 79.2238C526.802 82.6323 527.337 86.3249 526.959 90.3331L526.77 92.3529C526.392 96.3927 525.195 99.959 523.179 102.989C521.163 106.05 518.516 108.323 515.24 109.837C511.964 111.352 508.404 111.952 504.592 111.605L490.069 110.216H490.101ZM504.151 75.2472L501.505 103.02L505.191 103.368C508.246 103.652 510.704 102.799 512.531 100.78C514.389 98.7597 515.492 95.6037 515.902 91.3115L516.091 89.3863C516.5 85.1256 515.996 81.8118 514.547 79.5079C513.129 77.1724 510.83 75.8784 507.711 75.5628L504.151 75.2156V75.2472Z" fill="#1469C7"/>
<path d="M568.133 103.62L551.783 99.7066L549.326 109.995L568.637 114.603L566.747 122.619L537.04 115.55L547.31 72.3438L577.08 79.4448L575.158 87.4928L555.784 82.8849L553.611 92.0059L569.96 95.8878L568.133 103.652V103.62Z" fill="#1469C7"/>
<path d="M607.291 88.6604L604.77 121.01L625.594 96.1402L638.604 101.474L621.813 142.597L611.89 138.526L615.828 128.931L624.806 109.68L602.943 134.865L596.422 132.182L598.438 98.8228L591.35 118.895L587.412 128.49L577.521 124.45L594.312 83.3267L607.291 88.6604Z" fill="#1469C7"/>
<path d="M704.981 177.345C708.352 173.716 711.975 170.781 715.818 168.54C719.693 166.299 723.473 164.879 727.191 164.311C730.908 163.711 734.216 163.964 737.082 165.037L735.066 170.086C731.569 169.676 727.726 170.591 723.568 172.769C719.409 174.978 715.283 178.26 711.219 182.616L710.305 183.594C706.147 188.076 703.122 192.494 701.201 196.85C699.279 201.205 698.681 205.118 699.342 208.622L694.491 211.02C693.199 208.274 692.726 204.992 693.042 201.173C693.357 197.355 694.459 193.473 696.381 189.528C698.302 185.583 700.823 181.858 704.005 178.387L704.95 177.377L704.981 177.345Z" fill="#1469C7"/>
<path d="M710.967 207.201L744.486 178.134L754.913 190.19C758.662 194.514 760.71 198.491 761.057 202.12C761.435 205.75 760.111 208.874 757.087 211.462C755.354 212.977 753.527 213.861 751.606 214.113C749.684 214.366 747.762 213.987 745.841 212.945C746.88 215.092 747.195 217.175 746.754 219.226C746.313 221.246 745.179 223.045 743.352 224.623C740.076 227.463 736.705 228.568 733.24 227.905C729.774 227.242 726.277 224.907 722.718 220.836L710.936 207.201H710.967ZM732.2 202.941L724.167 209.916L728.766 215.218C730.026 216.67 731.349 217.522 732.672 217.711C734.027 217.932 735.287 217.49 736.516 216.449C739.32 214.018 739.509 211.431 737.114 208.622L732.2 202.941ZM737.492 198.333L741.147 202.562C742.69 204.329 744.108 205.308 745.368 205.497C746.66 205.718 747.888 205.276 749.117 204.203C750.535 202.972 751.196 201.678 751.102 200.321C751.007 198.964 750.188 197.386 748.613 195.556L745.179 191.579L737.429 198.301L737.492 198.333Z" fill="#1469C7"/>
<path d="M788.811 250.502L781.565 239.33L751.322 259.055L745.494 250.092L775.737 230.367L768.617 219.384L775.548 214.871L795.741 245.989L788.811 250.502Z" fill="#1469C7"/>
<path d="M763.355 278.149L803.49 259.244L810.263 273.699C812.689 278.875 813.602 283.262 812.972 286.828C812.342 290.426 810.232 293.046 806.64 294.75C804.561 295.728 802.576 296.075 800.655 295.823C798.733 295.57 797 294.655 795.425 293.14C795.866 295.507 795.583 297.59 794.606 299.421C793.63 301.251 792.055 302.672 789.881 303.713C785.943 305.575 782.415 305.701 779.264 304.155C776.114 302.577 773.373 299.358 771.042 294.497L763.387 278.181L763.355 278.149ZM784.966 279.79L775.358 284.335L778.351 290.679C779.17 292.414 780.209 293.582 781.438 294.15C782.667 294.718 784.021 294.655 785.47 293.961C788.81 292.383 789.723 289.921 788.18 286.576L784.998 279.79H784.966ZM791.298 276.792L793.661 281.842C794.669 283.956 795.772 285.282 796.937 285.818C798.103 286.355 799.426 286.292 800.907 285.597C802.608 284.808 803.585 283.735 803.868 282.41C804.152 281.084 803.774 279.317 802.765 277.171L800.529 272.437L791.267 276.792H791.298Z" fill="#1469C7"/>
<path d="M803.364 328.741C798.86 330.287 794.355 331.108 789.85 331.171C785.345 331.234 781.249 330.603 777.532 329.246C773.815 327.92 770.98 326.058 769.026 323.691L773.185 320.188C776.083 322.176 779.863 323.186 784.526 323.218C789.188 323.249 794.197 322.365 799.616 320.566L801.38 319.967C807.145 317.978 811.933 315.517 815.65 312.582C819.368 309.647 821.794 306.49 822.833 303.114L828.252 303.303C828.126 306.364 827.023 309.552 824.975 312.834C822.928 316.116 820.124 319.146 816.564 321.86C813.004 324.575 809.066 326.689 804.656 328.267L803.396 328.709L803.364 328.741Z" fill="#1469C7"/>
<path d="M241.953 189.622L230.265 201.71L237.858 209.063L251.656 194.767L257.578 200.511L236.345 222.508L204.496 191.61L225.792 169.581L231.715 175.325L217.853 189.654L224.563 196.155L236.251 184.068L241.953 189.591V189.622Z" fill="#1469C7"/>
<path d="M658.043 134.612L675.212 122.651L684.977 128.805L657.759 145.248L649.253 158.756L640.086 152.98L648.592 139.473L651.679 107.786L661.382 113.909L658.043 134.581V134.612Z" fill="#1469C7"/>
</g>
<g clip-path="url(#clip2_551_246)">
<path d="M176.817 720.121C176.817 722.959 176.326 725.416 175.371 727.519C174.416 729.622 173.1 731.32 171.422 732.587L176.455 736.489L171.809 740.34L165.124 735.044C164.504 735.12 163.859 735.171 163.239 735.171C160.581 735.171 158.232 734.563 156.167 733.372C154.102 732.156 152.502 730.433 151.366 728.203C150.204 725.974 149.611 723.39 149.585 720.476V718.854C149.585 715.839 150.153 713.204 151.263 710.924C152.373 708.644 153.973 706.87 156.064 705.629C158.129 704.387 160.503 703.754 163.188 703.754C165.872 703.754 168.17 704.362 170.26 705.603C172.325 706.845 173.926 708.593 175.087 710.873C176.249 713.154 176.817 715.763 176.842 718.702V720.121H176.817ZM169.176 718.829C169.176 715.789 168.66 713.483 167.627 711.912C166.595 710.341 165.124 709.556 163.188 709.556C161.252 709.556 159.703 710.341 158.722 711.887C157.742 713.432 157.225 715.713 157.199 718.702V720.121C157.199 723.136 157.716 725.442 158.722 727.038C159.729 728.634 161.252 729.445 163.239 729.445C165.227 729.445 166.621 728.66 167.627 727.063C168.66 725.492 169.176 723.212 169.176 720.248V718.829Z" fill="#1469C7"/>
<path d="M205.287 704.184V724.2C205.287 726.481 204.797 728.431 203.816 730.104C202.835 731.751 201.415 733.017 199.583 733.904C197.75 734.791 195.556 735.196 193.052 735.196C189.258 735.196 186.264 734.234 184.095 732.308C181.927 730.382 180.791 727.722 180.766 724.378V704.184H188.329V724.504C188.406 727.849 190.006 729.521 193.078 729.521C194.627 729.521 195.814 729.09 196.614 728.254C197.414 727.418 197.801 726.05 197.801 724.15V704.184H205.313H205.287Z" fill="#1469C7"/>
<path d="M227.692 729.065H217.393L215.586 734.766H207.559L218.993 704.184H226.066L237.578 734.766H229.525L227.718 729.065H227.692ZM219.2 723.364H225.885L222.53 712.748L219.2 723.364Z" fill="#1469C7"/>
<path d="M245.451 729.09H258.512V734.766H237.939V704.184H245.451V729.09Z" fill="#1469C7"/>
<path d="M267.055 734.766H259.569V704.184H267.055V734.766Z" fill="#1469C7"/>
<path d="M295.422 709.885H286.078V734.766H278.567V709.885H269.378V704.184H295.422V709.885Z" fill="#1469C7"/>
<path d="M306.65 717.461L312.406 704.184H320.511L310.47 723.77V734.74H302.856V723.77L292.841 704.184H300.894L306.65 717.461Z" fill="#1469C7"/>
<path d="M324.306 743L320.666 741.328L321.389 739.909C322.395 738.085 322.912 736.362 322.937 734.69V729.445H328.719V734.006C328.694 735.627 328.255 737.249 327.429 738.921C326.603 740.593 325.544 741.961 324.28 743.025L324.306 743Z" fill="#1469C7"/>
<path d="M369.038 721.819H357.216V729.116H371.155V734.791H349.705V704.184H371.206V709.885H357.216V716.321H369.038V721.793V721.819Z" fill="#1469C7"/>
<path d="M392.294 722.604H380.188V734.791H372.677V704.184H393.507V709.885H380.188V716.929H392.294V722.604Z" fill="#1469C7"/>
<path d="M415.164 722.604H403.058V734.791H395.547V704.184H416.377V709.885H403.058V716.929H415.164V722.604Z" fill="#1469C7"/>
<path d="M426.418 734.766H418.933V704.184H426.418V734.766Z" fill="#1469C7"/>
<path d="M455.56 724.428C455.456 726.557 454.863 728.432 453.804 730.078C452.746 731.7 451.223 732.967 449.287 733.879C447.352 734.766 445.158 735.222 442.68 735.222C438.575 735.222 435.375 733.904 433 731.295C430.625 728.685 429.464 724.986 429.464 720.197V718.677C429.464 715.687 430.006 713.052 431.064 710.823C432.123 708.568 433.645 706.845 435.659 705.603C437.646 704.387 439.969 703.754 442.602 703.754C446.371 703.754 449.416 704.742 451.714 706.693C454.011 708.644 455.327 711.329 455.637 714.775H448.152C448.1 712.926 447.61 711.583 446.706 710.772C445.803 709.961 444.435 709.556 442.602 709.556C440.769 709.556 439.376 710.24 438.498 711.608C437.62 712.976 437.182 715.18 437.13 718.17V720.324C437.13 723.592 437.543 725.923 438.369 727.317C439.195 728.71 440.64 729.42 442.68 729.42C444.409 729.42 445.725 729.014 446.629 728.229C447.532 727.443 448.023 726.177 448.074 724.428H455.534H455.56Z" fill="#1469C7"/>
<path d="M464.103 734.766H456.617V704.184H464.103V734.766Z" fill="#1469C7"/>
<path d="M487.359 721.819H475.538V729.116H489.476V734.791H468.026V704.184H489.528V709.885H475.538V716.321H487.359V721.793V721.819Z" fill="#1469C7"/>
<path d="M517.017 734.766H509.558L498.51 715.738V734.766H490.999V704.184H498.51L509.532 723.212V704.184H517.017V734.766Z" fill="#1469C7"/>
<path d="M548.689 724.428C548.585 726.557 547.992 728.432 546.933 730.078C545.875 731.7 544.352 732.967 542.416 733.879C540.48 734.766 538.286 735.222 535.808 735.222C531.704 735.222 528.504 733.904 526.129 731.295C523.754 728.685 522.593 724.986 522.593 720.197V718.677C522.593 715.687 523.135 713.052 524.193 710.823C525.251 708.568 526.774 706.845 528.788 705.603C530.775 704.387 533.098 703.754 535.731 703.754C539.5 703.754 542.545 704.742 544.843 706.693C547.14 708.644 548.456 711.329 548.766 714.775H541.281C541.229 712.926 540.739 711.583 539.835 710.772C538.932 709.961 537.564 709.556 535.731 709.556C533.898 709.556 532.505 710.24 531.627 711.608C530.749 712.976 530.311 715.18 530.259 718.17V720.324C530.259 723.592 530.672 725.923 531.498 727.317C532.324 728.71 533.769 729.42 535.808 729.42C537.538 729.42 538.854 729.014 539.758 728.229C540.661 727.443 541.152 726.177 541.203 724.428H548.663H548.689Z" fill="#1469C7"/>
<path d="M560.665 717.461L566.396 704.184H574.5L564.46 723.77V734.74H556.845V723.77L546.83 704.184H554.883L560.639 717.461H560.665Z" fill="#1469C7"/>
<path d="M578.321 743L574.682 741.328L575.404 739.909C576.411 738.085 576.927 736.362 576.953 734.69V729.445H582.735V734.006C582.709 735.627 582.27 737.249 581.444 738.921C580.618 740.593 579.56 741.961 578.295 743.025L578.321 743Z" fill="#1469C7"/>
<path d="M613.579 704.184L620.523 725.467L627.466 704.184H637.352V734.766H629.815V727.621L630.538 713.001L623.001 734.766H618.045L610.482 712.976L611.205 727.621V734.766H603.693V704.184H613.554H613.579Z" fill="#1469C7"/>
<path d="M667.785 720.121C667.785 723.111 667.217 725.746 666.082 728.026C664.946 730.306 663.345 732.08 661.281 733.321C659.216 734.563 656.841 735.171 654.182 735.171C651.524 735.171 649.175 734.563 647.11 733.372C645.071 732.181 643.445 730.458 642.309 728.229C641.147 725.999 640.554 723.44 640.502 720.552V718.829C640.502 715.839 641.07 713.179 642.18 710.899C643.29 708.618 644.916 706.845 647.007 705.603C649.097 704.362 651.472 703.728 654.131 703.728C656.789 703.728 659.112 704.336 661.203 705.578C663.268 706.819 664.868 708.568 666.03 710.848C667.191 713.128 667.759 715.738 667.785 718.677V720.096V720.121ZM660.145 718.829C660.145 715.788 659.629 713.483 658.596 711.912C657.564 710.341 656.092 709.556 654.156 709.556C650.388 709.556 648.4 712.317 648.194 717.866V720.121C648.194 723.111 648.684 725.416 649.691 727.038C650.698 728.659 652.221 729.445 654.208 729.445C656.196 729.445 657.564 728.659 658.596 727.063C659.629 725.492 660.145 723.212 660.171 720.248V718.829H660.145Z" fill="#1469C7"/>
<path d="M684.227 723.972H680.174V734.766H672.663V704.184H684.924C688.615 704.184 691.506 704.995 693.597 706.591C695.687 708.213 696.72 710.468 696.72 713.407C696.72 715.535 696.281 717.309 695.403 718.702C694.526 720.096 693.158 721.236 691.273 722.097L697.778 734.436V734.74H689.725L684.227 723.947V723.972ZM680.174 718.271H684.924C686.343 718.271 687.427 717.891 688.15 717.157C688.873 716.422 689.234 715.408 689.234 714.091C689.234 712.773 688.873 711.735 688.15 711C687.427 710.24 686.343 709.885 684.95 709.885H680.2V718.297L680.174 718.271Z" fill="#1469C7"/>
<path d="M716.595 729.065H706.296L704.489 734.766H696.462L707.897 704.184H714.969L726.481 734.766H718.428L716.621 729.065H716.595ZM708.103 723.364H714.788L711.433 712.748L708.103 723.364Z" fill="#1469C7"/>
<path d="M734.354 729.09H747.415V734.766H726.843V704.184H734.354V729.09Z" fill="#1469C7"/>
<path d="M755.958 734.766H748.473V704.184H755.958V734.766Z" fill="#1469C7"/>
<path d="M784.351 709.885H775.007V734.766H767.496V709.885H758.307V704.184H784.351V709.885Z" fill="#1469C7"/>
<path d="M795.579 717.461L801.31 704.184H809.415L799.374 723.77V734.74H791.759V723.77L781.744 704.184H789.797L795.553 717.461H795.579Z" fill="#1469C7"/>
</g>
<g clip-path="url(#clip3_551_246)">
<path d="M510.902 636.971C615.581 585.477 710.579 576.497 757.702 575.694C774.78 575.393 788.674 589.339 788.348 606.42C788.022 622.398 775.282 635.391 759.307 635.942C621.926 640.808 486.676 671.083 486.676 671.083C486.174 655.507 486.676 651.795 486.676 651.795C489.033 645.123 510.902 636.996 510.902 636.996" fill="#1469C7"/>
<path d="M500.469 603.561C563.091 551.364 626.114 529.618 658.014 521.291C669.55 518.281 681.287 525.454 683.895 537.118C686.303 548.028 679.807 558.939 669.023 561.949C576.508 587.884 489.635 630.7 489.635 630.7C486.726 620.216 486.45 617.582 486.45 617.582C486.952 612.666 500.469 603.536 500.469 603.536" fill="#1469C7"/>
<path d="M448.295 636.961C343.617 585.467 248.618 576.462 201.496 575.66C184.417 575.359 170.523 589.305 170.849 606.386C171.175 622.363 183.915 635.356 199.891 635.908C337.272 640.774 472.521 671.048 472.521 671.048C473.023 655.472 472.521 651.76 472.521 651.76C470.164 645.088 448.295 636.961 448.295 636.961Z" fill="#26E86D"/>
<path d="M458.59 603.561C395.968 551.364 332.945 529.618 301.07 521.291C289.509 518.281 277.772 525.454 275.189 537.118C272.781 548.028 279.277 558.939 290.035 561.949C382.551 587.884 469.424 630.7 469.424 630.7C472.333 620.216 472.609 617.582 472.609 617.582C472.107 612.666 458.59 603.536 458.59 603.536" fill="#26E86D"/>
</g>
<path d="M179.545 852.136V835.909H256V852.136H227.5V929H208.045V852.136H179.545ZM268.591 929V835.909H331.318V852.136H288.273V874.318H328.091V890.545H288.273V912.773H331.5V929H268.591ZM363.011 929H341.92L374.057 835.909H399.42L431.511 929H410.42L387.102 857.182H386.375L363.011 929ZM361.693 892.409H411.511V907.773H361.693V892.409ZM520.477 868.5H500.568C500.205 865.924 499.462 863.636 498.341 861.636C497.22 859.606 495.78 857.879 494.023 856.455C492.265 855.03 490.235 853.939 487.932 853.182C485.659 852.424 483.189 852.045 480.523 852.045C475.705 852.045 471.508 853.242 467.932 855.636C464.356 858 461.583 861.455 459.614 866C457.644 870.515 456.659 876 456.659 882.455C456.659 889.091 457.644 894.667 459.614 899.182C461.614 903.697 464.402 907.106 467.977 909.409C471.553 911.712 475.689 912.864 480.386 912.864C483.023 912.864 485.462 912.515 487.705 911.818C489.977 911.121 491.992 910.106 493.75 908.773C495.508 907.409 496.962 905.758 498.114 903.818C499.295 901.879 500.114 899.667 500.568 897.182L520.477 897.273C519.962 901.545 518.674 905.667 516.614 909.636C514.583 913.576 511.841 917.106 508.386 920.227C504.962 923.318 500.871 925.773 496.114 927.591C491.386 929.379 486.038 930.273 480.068 930.273C471.765 930.273 464.341 928.394 457.795 924.636C451.28 920.879 446.129 915.439 442.341 908.318C438.583 901.197 436.705 892.576 436.705 882.455C436.705 872.303 438.614 863.667 442.432 856.545C446.25 849.424 451.432 844 457.977 840.273C464.523 836.515 471.886 834.636 480.068 834.636C485.462 834.636 490.462 835.394 495.068 836.909C499.705 838.424 503.811 840.636 507.386 843.545C510.962 846.424 513.871 849.955 516.114 854.136C518.386 858.318 519.841 863.106 520.477 868.5ZM534.591 929V835.909H554.273V874.318H594.227V835.909H613.864V929H594.227V890.545H554.273V929H534.591ZM630.091 929V835.909H692.818V852.136H649.773V874.318H689.591V890.545H649.773V912.773H693V929H630.091ZM708.466 929V835.909H745.193C752.223 835.909 758.223 837.167 763.193 839.682C768.193 842.167 771.996 845.697 774.602 850.273C777.239 854.818 778.557 860.167 778.557 866.318C778.557 872.5 777.223 877.818 774.557 882.273C771.89 886.697 768.027 890.091 762.966 892.455C757.936 894.818 751.845 896 744.693 896H720.102V880.182H741.511C745.269 880.182 748.39 879.667 750.875 878.636C753.36 877.606 755.208 876.061 756.42 874C757.663 871.939 758.284 869.379 758.284 866.318C758.284 863.227 757.663 860.621 756.42 858.5C755.208 856.379 753.345 854.773 750.83 853.682C748.345 852.561 745.208 852 741.42 852H728.148V929H708.466ZM758.739 886.636L781.875 929H760.148L737.511 886.636H758.739Z" fill="white"/>
<defs>
<clipPath id="clip0_551_246">
<rect width="482.403" height="302.524" fill="white" transform="translate(237.89 199.274)"/>
</clipPath>
<clipPath id="clip1_551_246">
<rect width="697.441" height="272.272" fill="white" transform="translate(130.779 66)"/>
</clipPath>
<clipPath id="clip2_551_246">
<rect width="659.83" height="39.2464" fill="white" transform="translate(149.585 703.754)"/>
</clipPath>
<clipPath id="clip3_551_246">
<rect width="617.313" height="150.444" fill="white" transform="translate(170.844 520.604)"/>
</clipPath>
</defs>
</svg>
