<svg width="795" height="290" viewBox="0 0 795 290" fill="none" xmlns="http://www.w3.org/2000/svg">
<g clip-path="url(#clip0_109_225)">
<path d="M346.91 221.91H352.2V240.43H346.91C334.56 240.43 328.39 234.45 328.39 222.49V166.34H346.91V221.91ZM362.79 184.86V166.34H415.71V184.86H362.79ZM381.31 240.43C368.96 240.43 362.79 234.43 362.79 222.44V215.08C362.79 206.82 365.22 200.61 370.07 196.42C374.92 192.24 381.32 190.15 389.25 190.15C397.18 190.15 403.58 192.24 408.43 196.42C413.28 200.6 415.71 206.82 415.71 215.08V240.43H397.19V218.2C397.19 215.17 396.48 212.82 395.05 211.16C393.62 209.5 391.69 208.67 389.26 208.67C386.83 208.67 384.89 209.5 383.47 211.16C382.04 212.82 381.33 215.16 381.33 218.2V221.91H389.27V240.43H381.33H381.31Z" fill="#0071BC"/>
<path d="M431.58 162.11C431.58 159.08 430.87 156.73 429.44 155.07C428.01 153.41 426.08 152.58 423.65 152.58C421.22 152.58 418.98 153.64 416.93 155.75H407.77C400.71 155.75 397.19 151.34 397.19 142.52V124H415.71V138.02C419.2 135.73 422.91 134.58 426.82 134.58C434.41 134.58 440.18 136.67 444.15 140.85C448.12 145.03 450.1 151.25 450.1 159.51V249.9C450.1 258.16 447.67 264.37 442.82 268.56C437.97 272.75 431.57 274.83 423.64 274.83C415.71 274.83 409.31 272.74 404.46 268.56C399.61 264.38 397.18 258.16 397.18 249.9V248.37H415.7C415.7 250.7 416.41 252.69 417.84 254.35C419.27 256.01 421.2 256.84 423.63 256.84C426.06 256.84 428 256.01 429.42 254.35C430.85 252.69 431.56 250.35 431.56 247.31V162.1L431.58 162.11Z" fill="#0071BC"/>
<path d="M500.38 190.16V166.35H518.9V215.51C518.9 223.77 516.47 229.98 511.62 234.17C506.77 238.36 500.37 240.44 492.44 240.44C484.51 240.44 478.11 238.35 473.26 234.17C468.41 229.99 465.98 223.77 465.98 215.51V166.35H484.5V190.16H500.38ZM500.38 208.68H484.5V212.38C484.5 215.42 485.21 217.76 486.64 219.42C488.07 221.08 490 221.91 492.43 221.91C494.86 221.91 496.8 221.08 498.22 219.42C499.64 217.76 500.36 215.42 500.36 212.38V208.68H500.38Z" fill="#0071BC"/>
<path d="M587.7 184.87V222.5C587.7 234.46 581.53 240.44 569.18 240.44H563.89V221.92H569.18V208.69H553.3V222.5C553.3 234.46 547.13 240.44 534.78 240.44H529.49V221.92H534.78V166.35H553.3V190.16H569.18V166.35H595.64C603.58 166.35 609.97 168.44 614.82 172.62C619.67 176.8 622.1 183.02 622.1 191.27V240.44H603.58V194.4C603.58 191.37 602.87 189.02 601.44 187.36C600.01 185.7 598.08 184.87 595.65 184.87H587.71H587.7Z" fill="#0071BC"/>
<path d="M690.9 212.39C690.9 215.43 691.61 217.77 693.04 219.43C694.47 221.09 696.4 221.92 698.83 221.92C701.26 221.92 703.2 221.09 704.62 219.43C706.04 217.77 706.76 215.43 706.76 212.39V166.35H725.28V215.51C725.28 223.77 722.85 229.98 718 234.17C713.15 238.35 706.75 240.44 698.82 240.44C691.9 240.44 686.17 238.87 681.62 235.73C677.07 238.87 671.33 240.44 664.42 240.44C656.48 240.44 650.09 238.35 645.24 234.17C640.39 229.99 637.96 223.77 637.96 215.51V184.34C637.96 172.34 644.13 166.35 656.48 166.35H661.77V184.87H656.48V212.39C656.48 215.43 657.19 217.77 658.62 219.43C660.05 221.09 661.98 221.92 664.41 221.92C666.84 221.92 668.78 221.09 670.2 219.43C671.62 217.77 672.34 215.43 672.34 212.39V166.35H690.86V212.39H690.9Z" fill="#0071BC"/>
<path d="M759.7 219.27C759.7 221.03 760.42 221.92 761.87 221.92C763.32 221.92 765.2 220.16 767.64 216.63C770.07 220.16 772.01 221.92 773.46 221.92C774.91 221.92 775.58 221.04 775.58 219.27V208.69H770.29V190.17H775.58C787.93 190.17 794.1 196.17 794.1 208.16V225.09C794.1 235.32 789.69 240.44 780.87 240.44C776.04 240.44 771.63 237.79 767.64 232.5C763.69 237.79 759.28 240.44 754.41 240.44C745.59 240.44 741.18 235.32 741.18 225.09V192.81L738.53 187.52V184.87C738.53 172.52 744.7 166.35 757.05 166.35H794.1V184.87H759.7C757.94 184.87 757.05 185.75 757.05 187.52L759.7 192.81V219.27Z" fill="#0071BC"/>
<path d="M778.22 137.93V131.95H794.1V158.41H741.18V153.12C741.18 146.77 742.94 142.09 746.47 139.1C750 136.1 755.29 134.6 762.35 134.6C767.89 134.6 773.18 135.71 778.23 137.93H778.22ZM766.05 145.18C763.58 145.18 761.82 145.71 760.76 146.77C759.7 147.83 759.17 149.06 759.17 150.47H780.76C776.95 146.94 772.05 145.18 766.05 145.18Z" fill="#0071BC"/>
<path d="M640.11 257.67H629.28V287.04H620.58V257.67H609.95V250.95H640.12V257.67H640.11Z" fill="#0071BC"/>
<path d="M653.05 287.04H644.37V250.95H653.05V287.04Z" fill="#0071BC"/>
<path d="M681.48 271.74H667.8V280.34H683.96V287.03H659.1V250.94H684.01V257.66H667.8V265.27H681.48V271.74Z" fill="#0071BC"/>
<path d="M698.93 250.95L706.99 276.06L715.02 250.95H726.47V287.04H717.74V278.61L718.58 261.36L709.85 287.04H704.1L695.35 261.34L696.19 278.62V287.05H687.49V250.96H698.92L698.93 250.95Z" fill="#0071BC"/>
<path d="M755.37 287.04H746.69V250.95H755.37V287.04Z" fill="#0071BC"/>
<path d="M789.75 257.67H778.92V287.04H770.22V257.67H759.59V250.95H789.76V257.67H789.75Z" fill="#0071BC"/>
<path d="M346.91 221.91H352.2V240.43H346.91C334.56 240.43 328.39 234.45 328.39 222.49V166.34H346.91V221.91ZM362.79 184.86V166.34H415.71V184.86H362.79ZM381.31 240.43C368.96 240.43 362.79 234.43 362.79 222.44V215.08C362.79 206.82 365.22 200.61 370.07 196.42C374.92 192.24 381.32 190.15 389.25 190.15C397.18 190.15 403.58 192.24 408.43 196.42C413.28 200.6 415.71 206.82 415.71 215.08V240.43H397.19V218.2C397.19 215.17 396.48 212.82 395.05 211.16C393.62 209.5 391.69 208.67 389.26 208.67C386.83 208.67 384.89 209.5 383.47 211.16C382.04 212.82 381.33 215.16 381.33 218.2V221.91H389.27V240.43H381.33H381.31Z" fill="#0071BC"/>
<path d="M431.58 162.11C431.58 159.08 430.87 156.73 429.44 155.07C428.01 153.41 426.08 152.58 423.65 152.58C421.22 152.58 418.98 153.64 416.93 155.75H407.77C400.71 155.75 397.19 151.34 397.19 142.52V124H415.71V138.02C419.2 135.73 422.91 134.58 426.82 134.58C434.41 134.58 440.18 136.67 444.15 140.85C448.12 145.03 450.1 151.25 450.1 159.51V249.9C450.1 258.16 447.67 264.37 442.82 268.56C437.97 272.75 431.57 274.83 423.64 274.83C415.71 274.83 409.31 272.74 404.46 268.56C399.61 264.38 397.18 258.16 397.18 249.9V248.37H415.7C415.7 250.7 416.41 252.69 417.84 254.35C419.27 256.01 421.2 256.84 423.63 256.84C426.06 256.84 428 256.01 429.42 254.35C430.85 252.69 431.56 250.35 431.56 247.31V162.1L431.58 162.11Z" fill="#0071BC"/>
<path d="M500.38 190.16V166.35H518.9V215.51C518.9 223.77 516.47 229.98 511.62 234.17C506.77 238.36 500.37 240.44 492.44 240.44C484.51 240.44 478.11 238.35 473.26 234.17C468.41 229.99 465.98 223.77 465.98 215.51V166.35H484.5V190.16H500.38ZM500.38 208.68H484.5V212.38C484.5 215.42 485.21 217.76 486.64 219.42C488.07 221.08 490 221.91 492.43 221.91C494.86 221.91 496.8 221.08 498.22 219.42C499.64 217.76 500.36 215.42 500.36 212.38V208.68H500.38Z" fill="#0071BC"/>
<path d="M587.7 184.87V222.5C587.7 234.46 581.53 240.44 569.18 240.44H563.89V221.92H569.18V208.69H553.3V222.5C553.3 234.46 547.13 240.44 534.78 240.44H529.49V221.92H534.78V166.35H553.3V190.16H569.18V166.35H595.64C603.58 166.35 609.97 168.44 614.82 172.62C619.67 176.8 622.1 183.02 622.1 191.27V240.44H603.58V194.4C603.58 191.37 602.87 189.02 601.44 187.36C600.01 185.7 598.08 184.87 595.65 184.87H587.71H587.7Z" fill="#0071BC"/>
<path d="M690.9 212.39C690.9 215.43 691.61 217.77 693.04 219.43C694.47 221.09 696.4 221.92 698.83 221.92C701.26 221.92 703.2 221.09 704.62 219.43C706.04 217.77 706.76 215.43 706.76 212.39V166.35H725.28V215.51C725.28 223.77 722.85 229.98 718 234.17C713.15 238.35 706.75 240.44 698.82 240.44C691.9 240.44 686.17 238.87 681.62 235.73C677.07 238.87 671.33 240.44 664.42 240.44C656.48 240.44 650.09 238.35 645.24 234.17C640.39 229.99 637.96 223.77 637.96 215.51V184.34C637.96 172.34 644.13 166.35 656.48 166.35H661.77V184.87H656.48V212.39C656.48 215.43 657.19 217.77 658.62 219.43C660.05 221.09 661.98 221.92 664.41 221.92C666.84 221.92 668.78 221.09 670.2 219.43C671.62 217.77 672.34 215.43 672.34 212.39V166.35H690.86V212.39H690.9Z" fill="#0071BC"/>
<path d="M759.7 219.27C759.7 221.03 760.42 221.92 761.87 221.92C763.32 221.92 765.2 220.16 767.64 216.63C770.07 220.16 772.01 221.92 773.46 221.92C774.91 221.92 775.58 221.04 775.58 219.27V208.69H770.29V190.17H775.58C787.93 190.17 794.1 196.17 794.1 208.16V225.09C794.1 235.32 789.69 240.44 780.87 240.44C776.04 240.44 771.63 237.79 767.64 232.5C763.69 237.79 759.28 240.44 754.41 240.44C745.59 240.44 741.18 235.32 741.18 225.09V192.81L738.53 187.52V184.87C738.53 172.52 744.7 166.35 757.05 166.35H794.1V184.87H759.7C757.94 184.87 757.05 185.75 757.05 187.52L759.7 192.81V219.27Z" fill="#0071BC"/>
<path d="M778.22 137.93V131.95H794.1V158.41H741.18V153.12C741.18 146.77 742.94 142.09 746.47 139.1C750 136.1 755.29 134.6 762.35 134.6C767.89 134.6 773.18 135.71 778.23 137.93H778.22ZM766.05 145.18C763.58 145.18 761.82 145.71 760.76 146.77C759.7 147.83 759.17 149.06 759.17 150.47H780.76C776.95 146.94 772.05 145.18 766.05 145.18Z" fill="#0071BC"/>
<path d="M640.11 257.67H629.28V287.04H620.58V257.67H609.95V250.95H640.12V257.67H640.11Z" fill="#0071BC"/>
<path d="M653.05 287.04H644.37V250.95H653.05V287.04Z" fill="#0071BC"/>
<path d="M681.48 271.74H667.8V280.34H683.96V287.03H659.1V250.94H684.01V257.66H667.8V265.27H681.48V271.74Z" fill="#0071BC"/>
<path d="M698.93 250.95L706.99 276.06L715.02 250.95H726.47V287.04H717.74V278.61L718.58 261.36L709.85 287.04H704.1L695.35 261.34L696.19 278.62V287.05H687.49V250.96H698.92L698.93 250.95Z" fill="#0071BC"/>
<path d="M755.37 287.04H746.69V250.95H755.37V287.04Z" fill="#0071BC"/>
<path d="M789.75 257.67H778.92V287.04H770.22V257.67H759.59V250.95H789.76V257.67H789.75Z" fill="#0071BC"/>
<path d="M69.075 263.74V224.96L68.935 224.82H69.075V172.93H68.105L69.075 171.96V80.23L54.215 95.09L51.745 97.56L43.125 106.18L42.575 106.73L41.245 108.06L24.225 125.07L15.295 134L15.055 134.24L2.325 146.97C-0.775 150.07 -0.775 155.1 2.325 158.2L9.445 165.32C12.545 168.42 17.575 168.42 20.675 165.32L33.405 152.59L39.025 146.98L42.585 143.42L43.135 142.87V270.91C43.135 281.27 51.535 289.68 61.905 289.68H108.005V263.88L107.865 263.74H69.085H69.075Z" fill="#0071BC"/>
<path d="M117.165 228.62C114.825 226.27 111.575 224.82 107.995 224.82V133.04L120.965 120.07V237.79H146.915V100.9L141.095 95.09L125.175 79.17L120.965 83.38L107.995 96.35L106.835 97.52L97.6149 106.73L82.0449 122.3V250.76H107.995C111.575 250.76 114.825 249.31 117.165 246.96C119.515 244.62 120.965 241.37 120.965 237.79C120.965 234.21 119.515 230.96 117.165 228.62Z" fill="#0071BC"/>
<path d="M90.9149 95.09L97.6649 88.34L116.005 70L116.855 69.15L120.975 65.03L125.185 60.82L143.525 42.48L125.185 24.13L107.995 41.31L106.835 42.48L97.6649 51.65L82.0549 67.26V103.95L88.4449 97.56L90.9149 95.09Z" fill="#0071BC"/>
<path d="M303.065 146.98L237.725 81.64V185.9H224.745V68.67L207.735 51.65L189.385 70L198.805 79.41V289.69H244.895C255.265 289.69 263.665 281.28 263.665 270.92V144.28L266.375 146.98L271.985 152.6L284.725 165.33C287.825 168.43 292.845 168.43 295.945 165.33L303.065 158.21C306.165 155.11 306.165 150.09 303.065 146.98ZM237.725 263.74H224.745V211.85H237.725V263.74Z" fill="#0071BC"/>
<path d="M180.215 60.82L185.835 55.21L198.565 42.48L158.485 2.4C155.285 -0.8 150.105 -0.8 146.915 2.4L134.355 14.96L161.875 42.48L159.885 44.46L146.915 57.43L135.205 69.15L134.355 70L146.915 82.56L159.445 95.09H159.885V263.74H146.915V250.76H120.965V289.68H185.835V84.78L180.215 79.17L171.045 70L171.895 69.15L180.215 60.82Z" fill="#0071BC"/>
</g>
<defs>
<clipPath id="clip0_109_225">
<rect width="794.3" height="289.69" fill="white" transform="translate(0.00488281)"/>
</clipPath>
</defs>
</svg>
