<svg width="795" height="290" viewBox="0 0 795 290" fill="none" xmlns="http://www.w3.org/2000/svg">
<g clip-path="url(#clip0_109_184)">
<path d="M347.11 221.91H352.4V240.43H347.11C334.76 240.43 328.59 234.45 328.59 222.49V166.34H347.11V221.91ZM362.99 184.86V166.34H415.91V184.86H362.99ZM381.51 240.43C369.16 240.43 362.99 234.43 362.99 222.44V215.08C362.99 206.82 365.42 200.61 370.27 196.42C375.12 192.24 381.52 190.15 389.45 190.15C397.38 190.15 403.78 192.24 408.63 196.42C413.48 200.6 415.91 206.82 415.91 215.08V240.43H397.39V218.2C397.39 215.17 396.68 212.82 395.25 211.16C393.82 209.5 391.89 208.67 389.46 208.67C387.03 208.67 385.09 209.5 383.67 211.16C382.24 212.82 381.53 215.16 381.53 218.2V221.91H389.47V240.43H381.53H381.51Z" fill="white"/>
<path d="M431.78 162.11C431.78 159.08 431.07 156.73 429.64 155.07C428.21 153.41 426.28 152.58 423.85 152.58C421.42 152.58 419.18 153.64 417.13 155.75H407.97C400.91 155.75 397.39 151.34 397.39 142.52V124H415.91V138.02C419.4 135.73 423.11 134.58 427.02 134.58C434.61 134.58 440.38 136.67 444.35 140.85C448.32 145.03 450.3 151.25 450.3 159.51V249.9C450.3 258.16 447.87 264.37 443.02 268.56C438.17 272.75 431.77 274.83 423.84 274.83C415.91 274.83 409.51 272.74 404.66 268.56C399.81 264.38 397.38 258.16 397.38 249.9V248.37H415.9C415.9 250.7 416.61 252.69 418.04 254.35C419.47 256.01 421.4 256.84 423.83 256.84C426.26 256.84 428.2 256.01 429.62 254.35C431.05 252.69 431.76 250.35 431.76 247.31V162.1L431.78 162.11Z" fill="white"/>
<path d="M500.58 190.16V166.35H519.1V215.51C519.1 223.77 516.67 229.98 511.82 234.17C506.97 238.36 500.57 240.44 492.64 240.44C484.71 240.44 478.31 238.35 473.46 234.17C468.61 229.99 466.18 223.77 466.18 215.51V166.35H484.7V190.16H500.58ZM500.58 208.68H484.7V212.38C484.7 215.42 485.41 217.76 486.84 219.42C488.27 221.08 490.2 221.91 492.63 221.91C495.06 221.91 497 221.08 498.42 219.42C499.84 217.76 500.56 215.42 500.56 212.38V208.68H500.58Z" fill="white"/>
<path d="M587.9 184.87V222.5C587.9 234.46 581.73 240.44 569.38 240.44H564.09V221.92H569.38V208.69H553.5V222.5C553.5 234.46 547.33 240.44 534.98 240.44H529.69V221.92H534.98V166.35H553.5V190.16H569.38V166.35H595.84C603.78 166.35 610.17 168.44 615.02 172.62C619.87 176.8 622.3 183.02 622.3 191.27V240.44H603.78V194.4C603.78 191.37 603.07 189.02 601.64 187.36C600.21 185.7 598.28 184.87 595.85 184.87H587.91H587.9Z" fill="white"/>
<path d="M691.1 212.39C691.1 215.43 691.81 217.77 693.24 219.43C694.67 221.09 696.6 221.92 699.03 221.92C701.46 221.92 703.4 221.09 704.82 219.43C706.24 217.77 706.96 215.43 706.96 212.39V166.35H725.48V215.51C725.48 223.77 723.05 229.98 718.2 234.17C713.35 238.35 706.95 240.44 699.02 240.44C692.1 240.44 686.37 238.87 681.82 235.73C677.27 238.87 671.53 240.44 664.62 240.44C656.68 240.44 650.29 238.35 645.44 234.17C640.59 229.99 638.16 223.77 638.16 215.51V184.34C638.16 172.34 644.33 166.35 656.68 166.35H661.97V184.87H656.68V212.39C656.68 215.43 657.39 217.77 658.82 219.43C660.25 221.09 662.18 221.92 664.61 221.92C667.04 221.92 668.98 221.09 670.4 219.43C671.82 217.77 672.54 215.43 672.54 212.39V166.35H691.06V212.39H691.1Z" fill="white"/>
<path d="M759.9 219.27C759.9 221.03 760.62 221.92 762.07 221.92C763.52 221.92 765.4 220.16 767.84 216.63C770.27 220.16 772.21 221.92 773.66 221.92C775.11 221.92 775.78 221.04 775.78 219.27V208.69H770.49V190.17H775.78C788.13 190.17 794.3 196.17 794.3 208.16V225.09C794.3 235.32 789.89 240.44 781.07 240.44C776.24 240.44 771.83 237.79 767.84 232.5C763.89 237.79 759.48 240.44 754.61 240.44C745.79 240.44 741.38 235.32 741.38 225.09V192.81L738.73 187.52V184.87C738.73 172.52 744.9 166.35 757.25 166.35H794.3V184.87H759.9C758.14 184.87 757.25 185.75 757.25 187.52L759.9 192.81V219.27Z" fill="white"/>
<path d="M778.42 137.93V131.95H794.3V158.41H741.38V153.12C741.38 146.77 743.14 142.09 746.67 139.1C750.2 136.1 755.49 134.6 762.55 134.6C768.09 134.6 773.38 135.71 778.43 137.93H778.42ZM766.25 145.18C763.78 145.18 762.02 145.71 760.96 146.77C759.9 147.83 759.37 149.06 759.37 150.47H780.96C777.15 146.94 772.25 145.18 766.25 145.18Z" fill="white"/>
<path d="M640.31 257.67H629.48V287.04H620.78V257.67H610.15V250.95H640.32V257.67H640.31Z" fill="white"/>
<path d="M653.25 287.04H644.57V250.95H653.25V287.04Z" fill="white"/>
<path d="M681.68 271.74H668V280.34H684.16V287.03H659.3V250.94H684.21V257.66H668V265.27H681.68V271.74Z" fill="white"/>
<path d="M699.13 250.95L707.19 276.06L715.22 250.95H726.67V287.04H717.94V278.61L718.78 261.36L710.05 287.04H704.3L695.55 261.34L696.39 278.62V287.05H687.69V250.96H699.12L699.13 250.95Z" fill="white"/>
<path d="M755.57 287.04H746.89V250.95H755.57V287.04Z" fill="white"/>
<path d="M789.95 257.67H779.12V287.04H770.42V257.67H759.79V250.95H789.96V257.67H789.95Z" fill="white"/>
<path d="M347.11 221.91H352.4V240.43H347.11C334.76 240.43 328.59 234.45 328.59 222.49V166.34H347.11V221.91ZM362.99 184.86V166.34H415.91V184.86H362.99ZM381.51 240.43C369.16 240.43 362.99 234.43 362.99 222.44V215.08C362.99 206.82 365.42 200.61 370.27 196.42C375.12 192.24 381.52 190.15 389.45 190.15C397.38 190.15 403.78 192.24 408.63 196.42C413.48 200.6 415.91 206.82 415.91 215.08V240.43H397.39V218.2C397.39 215.17 396.68 212.82 395.25 211.16C393.82 209.5 391.89 208.67 389.46 208.67C387.03 208.67 385.09 209.5 383.67 211.16C382.24 212.82 381.53 215.16 381.53 218.2V221.91H389.47V240.43H381.53H381.51Z" fill="white"/>
<path d="M431.78 162.11C431.78 159.08 431.07 156.73 429.64 155.07C428.21 153.41 426.28 152.58 423.85 152.58C421.42 152.58 419.18 153.64 417.13 155.75H407.97C400.91 155.75 397.39 151.34 397.39 142.52V124H415.91V138.02C419.4 135.73 423.11 134.58 427.02 134.58C434.61 134.58 440.38 136.67 444.35 140.85C448.32 145.03 450.3 151.25 450.3 159.51V249.9C450.3 258.16 447.87 264.37 443.02 268.56C438.17 272.75 431.77 274.83 423.84 274.83C415.91 274.83 409.51 272.74 404.66 268.56C399.81 264.38 397.38 258.16 397.38 249.9V248.37H415.9C415.9 250.7 416.61 252.69 418.04 254.35C419.47 256.01 421.4 256.84 423.83 256.84C426.26 256.84 428.2 256.01 429.62 254.35C431.05 252.69 431.76 250.35 431.76 247.31V162.1L431.78 162.11Z" fill="white"/>
<path d="M500.58 190.16V166.35H519.1V215.51C519.1 223.77 516.67 229.98 511.82 234.17C506.97 238.36 500.57 240.44 492.64 240.44C484.71 240.44 478.31 238.35 473.46 234.17C468.61 229.99 466.18 223.77 466.18 215.51V166.35H484.7V190.16H500.58ZM500.58 208.68H484.7V212.38C484.7 215.42 485.41 217.76 486.84 219.42C488.27 221.08 490.2 221.91 492.63 221.91C495.06 221.91 497 221.08 498.42 219.42C499.84 217.76 500.56 215.42 500.56 212.38V208.68H500.58Z" fill="white"/>
<path d="M587.9 184.87V222.5C587.9 234.46 581.73 240.44 569.38 240.44H564.09V221.92H569.38V208.69H553.5V222.5C553.5 234.46 547.33 240.44 534.98 240.44H529.69V221.92H534.98V166.35H553.5V190.16H569.38V166.35H595.84C603.78 166.35 610.17 168.44 615.02 172.62C619.87 176.8 622.3 183.02 622.3 191.27V240.44H603.78V194.4C603.78 191.37 603.07 189.02 601.64 187.36C600.21 185.7 598.28 184.87 595.85 184.87H587.91H587.9Z" fill="white"/>
<path d="M691.1 212.39C691.1 215.43 691.81 217.77 693.24 219.43C694.67 221.09 696.6 221.92 699.03 221.92C701.46 221.92 703.4 221.09 704.82 219.43C706.24 217.77 706.96 215.43 706.96 212.39V166.35H725.48V215.51C725.48 223.77 723.05 229.98 718.2 234.17C713.35 238.35 706.95 240.44 699.02 240.44C692.1 240.44 686.37 238.87 681.82 235.73C677.27 238.87 671.53 240.44 664.62 240.44C656.68 240.44 650.29 238.35 645.44 234.17C640.59 229.99 638.16 223.77 638.16 215.51V184.34C638.16 172.34 644.33 166.35 656.68 166.35H661.97V184.87H656.68V212.39C656.68 215.43 657.39 217.77 658.82 219.43C660.25 221.09 662.18 221.92 664.61 221.92C667.04 221.92 668.98 221.09 670.4 219.43C671.82 217.77 672.54 215.43 672.54 212.39V166.35H691.06V212.39H691.1Z" fill="white"/>
<path d="M759.9 219.27C759.9 221.03 760.62 221.92 762.07 221.92C763.52 221.92 765.4 220.16 767.84 216.63C770.27 220.16 772.21 221.92 773.66 221.92C775.11 221.92 775.78 221.04 775.78 219.27V208.69H770.49V190.17H775.78C788.13 190.17 794.3 196.17 794.3 208.16V225.09C794.3 235.32 789.89 240.44 781.07 240.44C776.24 240.44 771.83 237.79 767.84 232.5C763.89 237.79 759.48 240.44 754.61 240.44C745.79 240.44 741.38 235.32 741.38 225.09V192.81L738.73 187.52V184.87C738.73 172.52 744.9 166.35 757.25 166.35H794.3V184.87H759.9C758.14 184.87 757.25 185.75 757.25 187.52L759.9 192.81V219.27Z" fill="white"/>
<path d="M778.42 137.93V131.95H794.3V158.41H741.38V153.12C741.38 146.77 743.14 142.09 746.67 139.1C750.2 136.1 755.49 134.6 762.55 134.6C768.09 134.6 773.38 135.71 778.43 137.93H778.42ZM766.25 145.18C763.78 145.18 762.02 145.71 760.96 146.77C759.9 147.83 759.37 149.06 759.37 150.47H780.96C777.15 146.94 772.25 145.18 766.25 145.18Z" fill="white"/>
<path d="M640.31 257.67H629.48V287.04H620.78V257.67H610.15V250.95H640.32V257.67H640.31Z" fill="white"/>
<path d="M653.25 287.04H644.57V250.95H653.25V287.04Z" fill="white"/>
<path d="M681.68 271.74H668V280.34H684.16V287.03H659.3V250.94H684.21V257.66H668V265.27H681.68V271.74Z" fill="white"/>
<path d="M699.13 250.95L707.19 276.06L715.22 250.95H726.67V287.04H717.94V278.61L718.78 261.36L710.05 287.04H704.3L695.55 261.34L696.39 278.62V287.05H687.69V250.96H699.12L699.13 250.95Z" fill="white"/>
<path d="M755.57 287.04H746.89V250.95H755.57V287.04Z" fill="white"/>
<path d="M789.95 257.67H779.12V287.04H770.42V257.67H759.79V250.95H789.96V257.67H789.95Z" fill="white"/>
<path d="M69.075 263.74V224.96L68.935 224.82H69.075V172.93H68.105L69.075 171.96V80.23L54.215 95.09L51.745 97.56L43.125 106.18L42.575 106.73L41.245 108.06L24.225 125.07L15.295 134L15.055 134.24L2.325 146.97C-0.775 150.07 -0.775 155.1 2.325 158.2L9.445 165.32C12.545 168.42 17.575 168.42 20.675 165.32L33.405 152.59L39.025 146.98L42.585 143.42L43.135 142.87V270.91C43.135 281.27 51.535 289.68 61.905 289.68H108.005V263.88L107.865 263.74H69.085H69.075Z" fill="white"/>
<path d="M117.165 228.62C114.825 226.27 111.575 224.82 107.995 224.82V133.04L120.965 120.07V237.79H146.915V100.9L141.095 95.09L125.175 79.17L120.965 83.38L107.995 96.35L106.835 97.52L97.6149 106.73L82.0449 122.3V250.76H107.995C111.575 250.76 114.825 249.31 117.165 246.96C119.515 244.62 120.965 241.37 120.965 237.79C120.965 234.21 119.515 230.96 117.165 228.62Z" fill="white"/>
<path d="M90.9149 95.09L97.6649 88.34L116.005 70L116.855 69.15L120.975 65.03L125.185 60.82L143.525 42.48L125.185 24.13L107.995 41.31L106.835 42.48L97.6649 51.65L82.0549 67.26V103.95L88.4449 97.56L90.9149 95.09Z" fill="white"/>
<path d="M303.065 146.98L237.725 81.64V185.9H224.745V68.67L207.735 51.65L189.385 70L198.805 79.41V289.69H244.895C255.265 289.69 263.665 281.28 263.665 270.92V144.28L266.375 146.98L271.985 152.6L284.725 165.33C287.825 168.43 292.845 168.43 295.945 165.33L303.065 158.21C306.165 155.11 306.165 150.09 303.065 146.98ZM237.725 263.74H224.745V211.85H237.725V263.74Z" fill="white"/>
<path d="M180.215 60.82L185.835 55.21L198.565 42.48L158.485 2.4C155.285 -0.8 150.105 -0.8 146.915 2.4L134.355 14.96L161.875 42.48L159.885 44.46L146.915 57.43L135.205 69.15L134.355 70L146.915 82.56L159.445 95.09H159.885V263.74H146.915V250.76H120.965V289.68H185.835V84.78L180.215 79.17L171.045 70L171.895 69.15L180.215 60.82Z" fill="white"/>
</g>
<defs>
<clipPath id="clip0_109_184">
<rect width="794.3" height="289.69" fill="white"/>
</clipPath>
</defs>
</svg>
