<svg width="853" height="828" viewBox="0 0 853 828" fill="none" xmlns="http://www.w3.org/2000/svg">
<g clip-path="url(#clip0_109_122)">
<path d="M711.123 359.117L568.656 432.121L568.044 514.197V516.077H567.95L568.891 386.805L432.068 336.977L430.657 533L292.046 516.077V514.056H291.106L291.435 430.24L149.767 355.028C149.438 354.84 149.156 354.699 148.873 354.511L148.544 395.878C153.389 397.053 156.869 400.202 156.822 403.822L156.211 487.731C156.164 492.338 150.52 496.005 143.558 495.958C136.55 495.911 130.953 492.15 131 487.543L131.612 403.634C131.612 400.014 135.092 396.959 139.984 395.831L140.36 341.912C139.231 334.955 142.147 327.387 149.203 323.344L219.707 282.588L286.59 243.995L331.978 217.764L398.814 179.171L422.661 165.444C425.483 163.752 428.681 163 431.833 163C435.031 163 438.182 163.846 441.004 165.538L444.203 167.466L511.039 207.376L556.427 234.452L623.263 274.362L712.158 327.434C724.387 334.72 723.822 352.63 711.123 359.117Z" fill="black"/>
<path d="M568.891 386.805L567.95 516.077V516.218L430.656 533L432.067 336.977L568.891 386.805Z" fill="#0A008E"/>
</g>
<g clip-path="url(#clip1_109_122)">
<path d="M40.9951 293.397L33.8287 312.697L45.9269 317.213L54.3648 294.4L63.8045 297.913L50.8201 333L-0.0385742 314.086L12.9843 278.922L22.4625 282.434L13.9861 305.324L24.6972 309.3L31.8637 290L40.9951 293.397Z" fill="#0071BC"/>
<path d="M69.3912 285.098L21.6534 259.352L29.9372 243.95C32.2105 239.704 35.2158 236.423 38.9531 234.107C42.6904 231.753 46.8131 230.595 51.2825 230.595C55.7904 230.595 60.2213 231.714 64.5365 234.03L66.7327 235.227C71.0865 237.581 74.5156 240.631 76.9815 244.336C79.4474 248.042 80.7574 252.133 80.9115 256.534C81.0656 260.934 80.0253 265.219 77.8292 269.388L69.3527 285.136L69.3912 285.098ZM36.7184 252.597L66.7327 268.77L68.8904 264.756C70.6627 261.436 70.8554 258.271 69.4683 255.221C68.0812 252.172 65.0374 249.393 60.4139 246.923L58.3333 245.803C53.7098 243.333 49.7798 242.329 46.4663 242.831C43.1528 243.333 40.6099 245.301 38.799 248.698L36.7184 252.558V252.597Z" fill="#0071BC"/>
<path d="M86.845 174.123L77.1741 187.247L112.698 213.495L104.954 224.033L69.4297 197.785L59.9515 210.677L51.8218 204.656L78.7153 168.102L86.845 174.123Z" fill="#0071BC"/>
<path d="M188.794 112.595C190.99 115.683 192.3 118.926 192.608 122.361C192.955 125.797 192.3 129.193 190.643 132.513C188.986 135.871 186.482 138.882 183.091 141.584C177.504 146.023 171.687 147.683 165.56 146.602C159.473 145.521 153.77 141.661 148.53 135.022L146.874 132.938C143.56 128.769 141.402 124.561 140.362 120.277C139.322 115.992 139.515 111.939 140.863 108.041C142.25 104.181 144.716 100.823 148.299 97.9662C153.462 93.8746 158.664 91.9446 163.942 92.1376C169.221 92.3692 173.96 94.6852 178.198 99.1242L167.988 107.23C165.869 104.721 163.749 103.37 161.592 103.216C159.434 103.061 157.161 103.988 154.657 105.956C152.114 108.002 150.996 110.434 151.343 113.29C151.651 116.147 153.462 119.698 156.737 123.905L159.126 126.916C162.709 131.471 165.869 134.25 168.527 135.292C171.224 136.334 173.96 135.755 176.734 133.555C179.084 131.702 180.433 129.695 180.818 127.611C181.165 125.526 180.433 123.21 178.622 120.74L188.794 112.634V112.595Z" fill="#0071BC"/>
<path d="M244.122 99.9733L232.909 106.574L221.428 87.0038L204.822 96.7696L216.303 116.34L205.053 122.979L177.581 76.1573L188.871 69.5181L199.774 88.1232L216.38 78.3575L205.477 59.7524L216.689 53.1519L244.16 99.9733H244.122Z" fill="#0071BC"/>
<path d="M303.919 63.9212L286.928 69.6339L287.197 80.2489L273.943 84.6878L275.523 26.8268L287.197 22.8896L323.453 68.0128L310.122 72.4903L303.881 63.8826L303.919 63.9212ZM286.696 59.0576L297.754 55.352L286.234 39.3717L286.735 59.0962L286.696 59.0576Z" fill="#0071BC"/>
<path d="M372.694 39.5647C373.233 43.3089 372.848 46.7829 371.577 49.9867C370.267 53.1905 368.147 55.8924 365.142 58.054C362.137 60.2542 358.515 61.7596 354.277 62.5702C347.265 63.8826 341.331 62.6474 336.438 58.8646C331.545 55.0432 328.308 48.9831 326.728 40.6455L326.228 38.0208C325.226 32.8098 325.264 28.062 326.343 23.7774C327.422 19.4929 329.464 15.9803 332.469 13.2011C335.475 10.4219 339.212 8.60775 343.72 7.75855C350.193 6.52336 355.702 7.25675 360.287 9.92014C364.872 12.5835 367.993 16.8681 369.65 22.7353L356.82 25.167C356.126 21.9247 354.855 19.7631 353.044 18.6437C351.233 17.5243 348.767 17.2541 345.608 17.8331C342.41 18.4507 340.291 20.0719 339.25 22.7739C338.21 25.4372 338.172 29.413 339.096 34.7012L339.79 38.484C340.869 44.1581 342.371 48.0953 344.259 50.2955C346.147 52.4571 348.844 53.2291 352.312 52.5729C355.279 51.9939 357.398 50.8745 358.669 49.2147C359.979 47.5163 360.364 45.1617 359.902 42.1123L372.655 39.6805L372.694 39.5647Z" fill="#0071BC"/>
<path d="M412.533 44.9301L394.655 45.8179L392.036 56.124L378.088 56.8188L395.195 1.58256L407.486 0.964966L430.218 54.2326L416.193 54.9274L412.533 44.9687V44.9301ZM397.275 35.5889L408.911 35.0099L402.13 16.4821L397.275 35.5889Z" fill="#0071BC"/>
<path d="M439.465 54.0782L444.589 0L461.966 1.65979C466.744 2.12299 470.943 3.58978 474.527 6.13736C478.11 8.68494 480.807 12.0045 482.579 16.1733C484.352 20.3421 485.007 24.8582 484.544 29.7604L484.313 32.2308C483.851 37.1716 482.387 41.5333 479.921 45.2389C477.455 48.9831 474.218 51.7623 470.211 53.615C466.204 55.4678 461.851 56.2012 457.189 55.7766L439.427 54.0782H439.465ZM456.649 11.3097L453.413 45.2775L457.921 45.7021C461.658 46.0495 464.663 45.0073 466.898 42.5369C469.171 40.0665 470.52 36.2066 471.021 30.957L471.252 28.6024C471.753 23.3914 471.136 19.3385 469.364 16.5207C467.63 13.6643 464.817 12.0817 461.003 11.6957L456.649 11.2711V11.3097Z" fill="#0071BC"/>
<path d="M534.902 46.0109L514.905 41.2245L511.9 53.808L535.519 59.4436L533.207 69.2479L496.874 60.6016L509.434 7.75854L545.844 16.4435L543.494 26.2864L519.799 20.6509L517.14 31.8062L537.137 36.554L534.902 46.0495V46.0109Z" fill="#0071BC"/>
<path d="M582.794 27.7146L579.712 67.2794L605.18 36.8628L621.092 43.3861L600.556 93.6816L588.419 88.7022L593.235 76.9679L604.216 53.4221L577.477 84.2247L569.501 80.9437L571.967 40.1438L563.298 64.6932L558.482 76.4275L546.384 71.4868L566.92 21.1913L582.794 27.7146Z" fill="#0071BC"/>
<path d="M702.273 136.18C706.396 131.741 710.827 128.151 715.527 125.411C720.267 122.67 724.89 120.933 729.436 120.238C733.983 119.505 738.029 119.814 741.535 121.126L739.069 127.302C734.792 126.8 730.091 127.92 725.006 130.583C719.92 133.285 714.872 137.299 709.902 142.626L708.785 143.823C703.699 149.304 700 154.708 697.65 160.035C695.3 165.361 694.567 170.148 695.377 174.432L689.443 177.366C687.863 174.008 687.285 169.993 687.671 165.323C688.056 160.652 689.405 155.904 691.755 151.079C694.105 146.254 697.187 141.7 701.079 137.454L702.235 136.218L702.273 136.18Z" fill="#0071BC"/>
<path d="M709.594 172.695L750.589 137.145L763.342 151.89C767.927 157.178 770.432 162.042 770.855 166.481C771.318 170.92 769.7 174.741 766.001 177.906C763.882 179.759 761.647 180.84 759.297 181.149C756.946 181.457 754.596 180.994 752.246 179.72C753.517 182.345 753.903 184.893 753.363 187.402C752.824 189.872 751.437 192.072 749.202 194.002C745.195 197.476 741.072 198.827 736.834 198.017C732.596 197.206 728.319 194.35 723.965 189.37L709.555 172.695H709.594ZM735.563 167.484L725.738 176.015L731.363 182.5C732.904 184.275 734.522 185.317 736.141 185.549C737.797 185.819 739.338 185.279 740.841 184.005C744.27 181.033 744.501 177.868 741.573 174.432L735.563 167.484ZM742.036 161.849L746.505 167.021C748.393 169.183 750.127 170.379 751.668 170.611C753.248 170.881 754.75 170.341 756.253 169.028C757.987 167.523 758.796 165.94 758.68 164.281C758.565 162.621 757.563 160.691 755.636 158.452L751.437 153.588L741.959 161.81L742.036 161.849Z" fill="#0071BC"/>
<path d="M804.8 225.654L795.938 211.99L758.95 236.115L751.822 225.152L788.81 201.027L780.103 187.595L788.579 182.075L813.276 220.134L804.8 225.654Z" fill="#0071BC"/>
<path d="M773.668 259.467L822.754 236.346L831.038 254.025C834.005 260.355 835.122 265.721 834.352 270.082C833.581 274.483 831 277.687 826.607 279.771C824.064 280.968 821.637 281.392 819.287 281.083C816.937 280.774 814.817 279.655 812.891 277.802C813.43 280.697 813.084 283.245 811.889 285.484C810.695 287.722 808.768 289.459 806.11 290.733C801.294 293.011 796.978 293.165 793.125 291.274C789.273 289.344 785.92 285.406 783.069 279.462L773.707 259.506L773.668 259.467ZM800.099 261.475L788.348 267.033L792.008 274.792C793.01 276.915 794.281 278.343 795.784 279.038C797.287 279.732 798.943 279.655 800.716 278.806C804.8 276.876 805.917 273.865 804.029 269.774L800.138 261.475H800.099ZM807.844 257.808L810.733 263.984C811.966 266.57 813.315 268.191 814.74 268.847C816.166 269.503 817.784 269.426 819.595 268.577C821.676 267.612 822.87 266.3 823.217 264.678C823.564 263.057 823.101 260.896 821.868 258.271L819.133 252.481L807.805 257.808H807.844Z" fill="#0071BC"/>
<path d="M822.6 321.343C817.091 323.234 811.581 324.238 806.071 324.315C800.562 324.392 795.553 323.62 791.006 321.96C786.46 320.339 782.992 318.062 780.603 315.167L785.689 310.882C789.234 313.314 793.857 314.549 799.56 314.588C805.262 314.627 811.388 313.546 818.015 311.346L820.173 310.612C827.224 308.18 833.08 305.17 837.627 301.58C842.173 297.99 845.14 294.13 846.411 290L853.038 290.231C852.884 293.976 851.536 297.874 849.031 301.889C846.527 305.903 843.098 309.609 838.744 312.928C834.39 316.248 829.574 318.834 824.18 320.764L822.639 321.304L822.6 321.343Z" fill="#0071BC"/>
<path d="M135.97 151.195L121.676 165.979L130.961 174.973L147.837 157.487L155.08 164.512L129.112 191.416L90.1586 153.627L116.204 126.684L123.448 133.709L106.495 151.234L114.702 159.185L128.996 144.402L135.97 151.157V151.195Z" fill="#0071BC"/>
<path d="M644.865 83.9159L665.863 69.2866L677.807 76.8135L644.518 96.924L634.115 113.445L622.903 106.381L633.306 89.8602L637.082 51.1061L648.949 58.5944L644.865 83.8773V83.9159Z" fill="#0071BC"/>
</g>
<g clip-path="url(#clip2_109_122)">
<path d="M56.3054 800.018C56.3054 803.489 55.7055 806.495 54.5375 809.066C53.3694 811.638 51.7594 813.715 49.7074 815.264L55.8634 820.036L50.181 824.746L42.0046 818.27C41.2469 818.363 40.4577 818.425 39.7 818.425C36.4484 818.425 33.5756 817.681 31.0501 816.225C28.5246 814.737 26.5673 812.63 25.1783 809.903C23.7577 807.176 23.0316 804.015 23 800.452V798.469C23 794.781 23.6945 791.558 25.052 788.77C26.4095 785.981 28.3667 783.811 30.9238 782.293C33.4494 780.775 36.3537 780 39.6369 780C42.9201 780 45.7297 780.744 48.2868 782.262C50.8123 783.781 52.7696 785.919 54.1902 788.708C55.6108 791.496 56.3054 794.688 56.3369 798.283V800.018H56.3054ZM46.9609 798.438C46.9609 794.719 46.3295 791.899 45.0668 789.978C43.804 788.057 42.0046 787.096 39.6369 787.096C37.2692 787.096 35.3751 788.057 34.1754 789.947C32.9758 791.837 32.3444 794.626 32.3129 798.283V800.018C32.3129 803.706 32.9443 806.525 34.1754 808.478C35.4066 810.43 37.2692 811.422 39.7 811.422C42.1309 811.422 43.8356 810.461 45.0668 808.509C46.3295 806.587 46.9609 803.799 46.9609 800.173V798.438Z" fill="#0071BC"/>
<path d="M91.126 780.527V805.007C91.126 807.796 90.5262 810.182 89.3266 812.227C88.127 814.241 86.3907 815.791 84.1493 816.875C81.9079 817.96 79.2245 818.456 76.1623 818.456C71.5217 818.456 67.8596 817.278 65.2078 814.923C62.556 812.568 61.167 809.314 61.1354 805.224V780.527H70.3852V805.379C70.4799 809.469 72.4372 811.514 76.1939 811.514C78.088 811.514 79.5402 810.988 80.5188 809.965C81.4975 808.942 81.971 807.269 81.971 804.945V780.527H91.1576H91.126Z" fill="#0071BC"/>
<path d="M118.528 810.957H105.932L103.722 817.929H93.9041L107.889 780.527H116.539L130.619 817.929H120.769L118.56 810.957H118.528ZM108.142 803.984H116.318L112.214 791.001L108.142 803.984Z" fill="#0071BC"/>
<path d="M140.248 810.988H156.221V817.929H131.061V780.527H140.248V810.988Z" fill="#0071BC"/>
<path d="M166.671 817.929H157.516V780.527H166.671V817.929Z" fill="#0071BC"/>
<path d="M201.365 787.499H189.937V817.929H180.751V787.499H169.512V780.527H201.365V787.499Z" fill="#0071BC"/>
<path d="M215.098 796.764L222.138 780.527H232.05L219.77 804.48V817.898H210.457V804.48L198.208 780.527H208.058L215.098 796.764Z" fill="#0071BC"/>
<path d="M236.691 828L232.24 825.955L233.124 824.219C234.355 821.988 234.986 819.881 235.018 817.836V811.422H242.089V816.999C242.058 818.983 241.521 820.966 240.511 823.011C239.501 825.056 238.206 826.729 236.659 828.031L236.691 828Z" fill="#0071BC"/>
<path d="M291.4 802.094H276.942V811.019H293.989V817.96H267.755V780.527H294.052V787.499H276.942V795.37H291.4V802.063V802.094Z" fill="#0071BC"/>
<path d="M319.844 803.055H305.038V817.96H295.851V780.527H321.328V787.499H305.038V796.114H319.844V803.055Z" fill="#0071BC"/>
<path d="M347.814 803.055H333.008V817.96H323.822V780.527H349.298V787.499H333.008V796.114H347.814V803.055Z" fill="#0071BC"/>
<path d="M361.578 817.929H352.423V780.527H361.578V817.929Z" fill="#0071BC"/>
<path d="M397.22 805.286C397.093 807.889 396.367 810.182 395.073 812.196C393.779 814.179 391.916 815.729 389.548 816.844C387.181 817.929 384.497 818.487 381.467 818.487C376.447 818.487 372.533 816.875 369.628 813.684C366.724 810.492 365.303 805.968 365.303 800.111V798.252C365.303 794.595 365.966 791.372 367.261 788.646C368.555 785.888 370.418 783.781 372.88 782.262C375.311 780.775 378.152 780 381.372 780C385.981 780 389.706 781.209 392.516 783.595C395.326 785.981 396.936 789.265 397.314 793.48H388.159C388.096 791.218 387.496 789.575 386.391 788.584C385.287 787.592 383.613 787.096 381.372 787.096C379.131 787.096 377.426 787.933 376.353 789.606C375.279 791.28 374.742 793.975 374.679 797.632V800.266C374.679 804.263 375.184 807.114 376.195 808.819C377.205 810.523 378.973 811.391 381.467 811.391C383.582 811.391 385.192 810.895 386.297 809.934C387.402 808.974 388.001 807.424 388.065 805.286H397.188H397.22Z" fill="#0071BC"/>
<path d="M407.669 817.929H398.514V780.527H407.669V817.929Z" fill="#0071BC"/>
<path d="M436.113 802.094H421.654V811.019H438.701V817.96H412.468V780.527H438.765V787.499H421.654V795.37H436.113V802.063V802.094Z" fill="#0071BC"/>
<path d="M472.386 817.929H463.262L449.751 794.657V817.929H440.564V780.527H449.751L463.231 803.799V780.527H472.386V817.929Z" fill="#0071BC"/>
<path d="M511.121 805.286C510.995 807.889 510.268 810.182 508.974 812.196C507.68 814.179 505.817 815.729 503.45 816.844C501.082 817.929 498.398 818.487 495.368 818.487C490.348 818.487 486.434 816.875 483.529 813.684C480.625 810.492 479.204 805.968 479.204 800.111V798.252C479.204 794.595 479.867 791.372 481.162 788.646C482.456 785.888 484.319 783.781 486.781 782.262C489.212 780.775 492.053 780 495.273 780C499.882 780 503.607 781.209 506.417 783.595C509.227 785.981 510.837 789.265 511.215 793.48H502.06C501.997 791.218 501.398 789.575 500.293 788.584C499.188 787.592 497.515 787.096 495.273 787.096C493.032 787.096 491.327 787.933 490.254 789.606C489.18 791.28 488.644 793.975 488.58 797.632V800.266C488.58 804.263 489.086 807.114 490.096 808.819C491.106 810.523 492.874 811.391 495.368 811.391C497.483 811.391 499.093 810.895 500.198 809.934C501.303 808.974 501.903 807.424 501.966 805.286H511.089H511.121Z" fill="#0071BC"/>
<path d="M525.769 796.764L532.777 780.527H542.69L530.41 804.48V817.898H521.097V804.48L508.848 780.527H518.697L525.737 796.764H525.769Z" fill="#0071BC"/>
<path d="M547.362 828L542.911 825.955L543.795 824.219C545.026 821.988 545.657 819.881 545.689 817.836V811.422H552.76V816.999C552.729 818.983 552.192 820.966 551.182 823.011C550.172 825.056 548.877 826.729 547.331 828.031L547.362 828Z" fill="#0071BC"/>
<path d="M590.485 780.527L598.978 806.556L607.47 780.527H619.561V817.929H610.342V809.19L611.226 791.31L602.008 817.929H595.947L586.697 791.279L587.581 809.19V817.929H578.395V780.527H590.454H590.485Z" fill="#0071BC"/>
<path d="M656.781 800.018C656.781 803.675 656.086 806.897 654.697 809.686C653.308 812.475 651.351 814.644 648.825 816.163C646.3 817.681 643.395 818.425 640.144 818.425C636.892 818.425 634.019 817.681 631.494 816.225C629 814.768 627.011 812.661 625.622 809.934C624.201 807.207 623.475 804.077 623.412 800.545V798.438C623.412 794.781 624.107 791.527 625.464 788.739C626.821 785.95 628.81 783.78 631.367 782.262C633.925 780.744 636.829 779.969 640.081 779.969C643.332 779.969 646.173 780.713 648.73 782.231C651.256 783.749 653.213 785.888 654.634 788.677C656.054 791.465 656.749 794.657 656.781 798.252V799.987V800.018ZM647.436 798.438C647.436 794.719 646.805 791.899 645.542 789.978C644.279 788.057 642.48 787.096 640.112 787.096C635.503 787.096 633.072 790.474 632.82 797.26V800.018C632.82 803.675 633.419 806.494 634.651 808.478C635.882 810.461 637.744 811.422 640.175 811.422C642.606 811.422 644.279 810.461 645.542 808.509C646.805 806.587 647.436 803.799 647.468 800.173V798.438H647.436Z" fill="#0071BC"/>
<path d="M676.89 804.728H671.934V817.929H662.747V780.527H677.742C682.257 780.527 685.792 781.518 688.35 783.471C690.907 785.454 692.169 788.212 692.169 791.806C692.169 794.409 691.633 796.578 690.559 798.283C689.486 799.987 687.813 801.381 685.508 802.435L693.464 817.526V817.898H683.614L676.89 804.697V804.728ZM671.934 797.756H677.742C679.479 797.756 680.805 797.291 681.689 796.392C682.572 795.494 683.014 794.254 683.014 792.643C683.014 791.032 682.572 789.761 681.689 788.862C680.805 787.933 679.479 787.499 677.774 787.499H671.965V797.787L671.934 797.756Z" fill="#0071BC"/>
<path d="M716.478 810.957H703.882L701.672 817.929H691.854L705.839 780.527H714.489L728.569 817.929H718.719L716.509 810.957H716.478ZM706.091 803.984H714.268L710.164 791.001L706.091 803.984Z" fill="#0071BC"/>
<path d="M738.197 810.988H754.171V817.929H729.011V780.527H738.197V810.988Z" fill="#0071BC"/>
<path d="M764.62 817.929H755.465V780.527H764.62V817.929Z" fill="#0071BC"/>
<path d="M799.346 787.499H787.918V817.929H778.732V787.499H767.493V780.527H799.346V787.499Z" fill="#0071BC"/>
<path d="M813.079 796.764L820.087 780.527H830L817.72 804.48V817.898H808.407V804.48L796.158 780.527H806.007L813.047 796.764H813.079Z" fill="#0071BC"/>
</g>
<g clip-path="url(#clip3_109_122)">
<path d="M464.905 698.322C592.932 635.342 709.119 624.36 766.752 623.378C787.64 623.01 804.632 640.066 804.234 660.957C803.835 680.499 788.253 696.389 768.715 697.064C600.692 703.015 435.276 740.042 435.276 740.042C434.662 720.992 435.276 716.452 435.276 716.452C438.159 708.292 464.905 698.352 464.905 698.352" fill="#0A008E"/>
<path d="M452.146 657.46C528.735 593.622 605.814 567.025 644.83 556.84C658.939 553.159 673.294 561.932 676.483 576.197C679.428 589.542 671.484 602.886 658.295 606.567C545.144 638.287 438.895 690.653 438.895 690.653C435.337 677.83 435 674.609 435 674.609C435.613 668.596 452.146 657.43 452.146 657.43" fill="#0A008E"/>
<path d="M388.335 698.31C260.309 635.33 144.122 624.317 86.4885 623.336C65.6006 622.968 48.6081 640.024 49.0069 660.915C49.4056 680.456 64.9872 696.347 84.5255 697.022C252.549 702.973 417.965 740 417.965 740C418.578 720.95 417.965 716.409 417.965 716.409C415.081 708.249 388.335 698.31 388.335 698.31Z" fill="#26E86D"/>
<path d="M400.926 657.46C324.337 593.622 247.257 567.025 208.273 556.84C194.133 553.159 179.778 561.932 176.619 576.197C173.674 589.542 181.618 602.886 194.777 606.567C307.927 638.287 414.176 690.653 414.176 690.653C417.734 677.83 418.072 674.609 418.072 674.609C417.458 668.596 400.926 657.43 400.926 657.43" fill="#26E86D"/>
</g>
<defs>
<clipPath id="clip0_109_122">
<rect width="590" height="370" fill="white" transform="translate(131 163)"/>
</clipPath>
<clipPath id="clip1_109_122">
<rect width="853" height="333" fill="white"/>
</clipPath>
<clipPath id="clip2_109_122">
<rect width="807" height="48" fill="white" transform="translate(23 780)"/>
</clipPath>
<clipPath id="clip3_109_122">
<rect width="755" height="184" fill="white" transform="translate(49 556)"/>
</clipPath>
</defs>
</svg>
