<svg width="101" height="101" viewBox="0 0 101 101" fill="none" xmlns="http://www.w3.org/2000/svg">
<path d="M100.267 11.2207C100.379 11.4297 100.34 11.6618 100.34 11.8824C100.34 29.5182 100.34 47.1502 100.34 64.7861C100.34 70.1333 100.34 75.4844 100.34 80.8317C100.34 83.3583 100.344 85.8849 100.332 88.4115C100.332 88.8061 100.259 89.2046 100.22 89.5993C99.9068 89.6767 99.841 89.9398 99.7598 90.2029C99.6515 90.5589 99.7018 90.9342 99.6244 91.294C99.3342 92.625 98.8815 93.8709 98.0922 95.0201C96.9546 96.6761 95.5578 97.9568 93.72 98.8196C92.002 99.6283 90.1951 99.9726 88.3456 99.992C83.602 100.042 78.8583 100.019 74.1108 100.004C70.2919 99.9881 66.473 100.069 62.6541 99.9301C62.0853 99.9107 61.4972 100.1 60.9323 99.992C60.1159 99.8334 59.3072 99.9378 58.5102 99.992C56.9122 100.093 55.3258 99.8527 53.7278 99.992C52.4587 100.1 51.1703 100.015 49.8896 100.011C48.3071 100.004 46.7284 100.077 45.1459 99.9533C44.2676 99.8837 43.3932 99.961 42.5187 100.007C40.7582 100.1 38.9977 99.8759 37.2334 100.007C36.4325 100.066 35.6199 99.9843 34.8113 99.9997C33.2752 100.027 31.7352 99.934 30.1953 99.9301C28.8798 99.9301 27.5604 100.035 26.2448 99.9997C25.2543 99.9727 24.2677 99.9997 23.281 99.9959C21.5863 99.9804 19.8877 99.9378 18.193 99.9262C16.9471 99.9185 15.7051 100.085 14.4592 100.019C13.8866 99.9881 13.3139 99.8682 12.7374 99.9456C11.7353 100.081 10.7332 100.058 9.74652 99.872C8.63219 99.6631 7.57976 99.2801 6.53894 98.8041C4.51922 97.8794 2.93671 96.502 1.82625 94.6022C0.800908 92.8494 0.278564 90.9419 0.278564 88.8951C0.282434 63.1997 0.286303 37.5043 0.278564 11.805C0.278564 9.71561 0.680962 7.75779 1.72952 5.93152C2.49949 4.5889 3.53257 3.49005 4.75524 2.56144C6.74015 1.06018 9.06941 0.487542 11.4761 0.479804C26.5428 0.433373 41.6056 0.452719 56.6723 0.464327C58.2587 0.464327 59.845 0.479804 61.4314 0.495281C62.4568 0.506888 63.4937 0.522365 64.5268 0.472065C65.7688 0.410158 67.0147 0.456588 68.2606 0.456588C69.7309 0.456588 71.1973 0.441112 72.6676 0.456588C75.2019 0.487542 77.7363 0.468196 80.2706 0.479804C81.7254 0.487542 83.1841 0.537842 84.6428 0.468196C86.2137 0.394681 87.7885 0.468196 89.3632 0.44885C90.3267 0.433373 91.2398 0.661656 92.1336 0.955716C93.2363 1.31942 94.339 1.71021 95.2677 2.44923C95.8519 2.91354 96.5058 3.28885 96.9933 3.88471C97.5002 4.50378 97.9297 5.17315 98.3669 5.83866C98.9473 6.73245 99.3264 7.69588 99.5896 8.73283C99.7791 9.46798 99.8372 10.2109 99.9378 10.9499C99.9687 11.1743 100.023 11.2826 100.259 11.2246L100.267 11.2207ZM36.6259 20.4062C36.6259 19.555 36.622 18.7076 36.622 17.8564C36.622 16.5835 35.9643 15.8019 34.7107 15.5658C33.1359 15.2718 31.9442 16.243 31.9248 17.8332C31.9132 18.7154 31.9055 19.5976 31.8939 20.4797C31.5689 20.5765 31.2671 20.3946 30.9459 20.3946C29.1313 20.4024 27.3166 20.4024 25.5019 20.3985C24.6894 20.3985 23.9194 20.619 23.1611 20.8744C21.9732 21.2807 21.0794 22.1048 20.2592 23.0179C19.2532 24.14 18.5799 25.3743 18.5838 26.9568C18.5954 29.4254 18.6883 31.8939 18.518 34.3586C18.3362 34.3818 18.3284 34.4747 18.3826 34.6294C18.4677 34.8539 18.4948 35.0899 18.4948 35.3375C18.4948 39.7832 18.518 44.2251 18.4948 48.6708C18.46 56.5292 18.607 64.3875 18.4135 72.2459C18.0498 72.4161 18.2007 72.6986 18.2936 72.9269C18.4677 73.3447 18.6264 73.7626 18.6031 74.2192C18.5335 75.6198 18.8895 76.9083 19.5666 78.1232C21.1143 80.8897 23.49 82.3407 26.6318 82.449C28.814 82.5264 31.0001 82.4683 33.1862 82.4683C46.7748 82.4606 60.3635 82.4567 73.9483 82.4413C74.9156 82.4413 75.8442 82.2014 76.7187 81.7912C78.1812 81.1025 79.4232 80.1391 80.3364 78.7849C81.1721 77.5428 81.7796 76.2157 81.7293 74.6758C81.7099 74.049 81.7796 73.4299 81.8957 72.8185C81.9228 72.6754 81.9808 72.5361 81.8222 72.4355C81.7873 72.0989 81.9305 71.7816 81.9228 71.4411C81.8763 70.0018 81.9305 68.5624 81.8531 67.1192C81.7602 65.4864 81.8376 63.8458 81.8338 62.2092C81.8338 52.9347 81.8338 43.6563 81.8338 34.3818C81.8338 32.0564 81.826 29.7272 81.826 27.4018C81.826 26.98 81.7757 26.566 81.6751 26.1675C81.2224 24.3683 80.3016 22.8632 78.7732 21.7759C77.4848 20.8589 76.0648 20.3714 74.4629 20.3946C72.5554 20.4256 70.644 20.4024 68.7326 20.4062C68.7326 19.6208 68.7326 18.8315 68.7326 18.046C68.7326 16.6763 68.0942 15.9373 66.7748 15.562C65.4283 15.1789 63.8961 16.2817 64.0122 17.9802C64.0509 18.5529 64.0586 19.1255 64.0818 19.6982C64.0934 19.9574 64.0354 20.1625 63.8265 20.3211C63.6833 20.3985 63.5324 20.4217 63.366 20.4217C58.7578 20.4178 54.1496 20.414 49.5413 20.414C45.2388 20.414 40.9362 20.414 36.6298 20.414L36.6259 20.4062ZM82.0582 72.2227C82.0582 72.2227 82.0427 72.2498 82.0466 72.2575C82.0582 72.3001 82.0775 72.3001 82.0969 72.2614C82.1007 72.2536 82.0969 72.2343 82.0891 72.2266C82.0891 72.2227 82.0698 72.2266 82.0582 72.2266V72.2227Z" fill="#6F9CCD"/>
<path d="M100.267 11.2207C100.031 11.2788 99.9765 11.1704 99.9456 10.946C99.845 10.207 99.783 9.46412 99.5973 8.72897C99.3342 7.69202 98.9512 6.72859 98.3747 5.8348C97.9413 5.16543 97.5118 4.49992 97.0011 3.88085C96.5135 3.28886 95.8597 2.91355 95.2754 2.44537C94.3507 1.70635 93.2441 1.31169 92.1414 0.951858C91.2476 0.657798 90.3344 0.429515 89.371 0.444991C87.7962 0.468207 86.2215 0.390823 84.6506 0.464338C83.1919 0.533983 81.7332 0.479814 80.2784 0.475945C77.744 0.464337 75.2097 0.479814 72.6754 0.45273C71.2051 0.437253 69.7386 0.45273 68.2683 0.45273C67.0224 0.45273 65.7766 0.406299 64.5345 0.468207C63.5015 0.518506 62.4645 0.50303 61.4392 0.491422C59.8528 0.475945 58.2664 0.460468 56.68 0.460468C41.6133 0.448861 26.5505 0.429515 11.4838 0.475945C9.07716 0.483684 6.7479 1.05633 4.763 2.55758C3.54033 3.48232 2.50724 4.58118 1.73727 5.92766C0.688715 7.75393 0.286318 9.71175 0.286318 11.8011C0.294056 37.4965 0.290187 63.192 0.286318 88.8912C0.286318 90.9381 0.808661 92.8494 1.834 94.5983C2.94446 96.4942 4.52698 97.8717 6.54671 98.8003C7.58752 99.2762 8.63994 99.6631 9.75427 99.8682C10.7409 100.054 11.7431 100.077 12.7452 99.9417C13.3217 99.8643 13.8905 99.9843 14.467 100.015C15.7129 100.085 16.9549 99.9146 18.2008 99.9224C19.8955 99.934 21.5941 99.9804 23.2888 99.992C24.2754 99.9997 25.2621 99.9688 26.2526 99.9959C27.5681 100.031 28.8875 99.9262 30.203 99.9262C31.743 99.9262 33.2791 100.023 34.819 99.9959C35.6277 99.9804 36.4363 100.062 37.2411 100.004C39.0055 99.8721 40.766 100.093 42.5265 100.004C43.4048 99.9572 44.2792 99.8798 45.1537 99.9494C46.7323 100.073 48.3148 99.9997 49.8973 100.007C51.178 100.011 52.4665 100.1 53.7356 99.9881C55.3336 99.8488 56.9238 100.089 58.5179 99.9881C59.315 99.9378 60.1275 99.8334 60.94 99.9881C61.5011 100.096 62.0892 99.9069 62.6618 99.9262C66.4808 100.066 70.2997 99.9843 74.1186 99.9997C78.8622 100.019 83.6059 100.038 88.3534 99.9881C90.2067 99.9688 92.0098 99.6244 93.7277 98.8158C95.5656 97.9529 96.9585 96.6722 98.0999 95.0162C98.8893 93.8671 99.342 92.6212 99.6321 91.2902C99.7095 90.9342 99.6592 90.5589 99.7676 90.199C99.8449 89.9359 99.9146 89.6767 100.228 89.5954C100.182 90.8568 99.8024 92.0446 99.4309 93.2325C99.222 93.6542 99.0169 94.0798 98.808 94.5016C97.8098 96.2698 96.4478 97.6976 94.6989 98.7229C93.0816 99.6709 91.3133 100.205 89.4406 100.263C87.2894 100.332 85.1381 100.302 82.9868 100.313C82.9558 100.298 82.9288 100.298 82.8978 100.313C82.7972 100.313 82.7005 100.313 82.5999 100.313C82.5728 100.298 82.5418 100.294 82.5109 100.313C82.4103 100.313 82.3136 100.313 82.213 100.313C82.182 100.298 82.1549 100.294 82.124 100.313C81.8957 100.313 81.6674 100.313 81.4391 100.313C81.412 100.294 81.3811 100.294 81.3501 100.313C81.1528 100.313 80.9593 100.321 80.762 100.325C80.7349 100.309 80.704 100.305 80.6769 100.325C78.6107 100.313 76.5446 100.29 74.4784 100.29C71.6578 100.29 68.841 100.305 66.0203 100.313C65.9894 100.298 65.9623 100.298 65.9313 100.313C63.3041 100.309 60.6808 100.298 58.0536 100.298C56.7265 100.298 55.3955 100.309 54.0683 100.317C54.0412 100.298 54.0103 100.298 53.9793 100.317C52.8534 100.317 51.7236 100.317 50.5976 100.317C50.5667 100.302 50.5396 100.302 50.5087 100.317C49.2512 100.298 47.9975 100.259 46.7401 100.325C46.713 100.309 46.682 100.309 46.6549 100.329C44.8867 100.286 43.1146 100.274 41.3464 100.313C41.3154 100.298 41.2845 100.298 41.2574 100.313C39.8722 100.294 38.4909 100.259 37.1057 100.313C37.0748 100.298 37.0438 100.298 37.0167 100.313C36.4054 100.271 35.7902 100.278 35.1789 100.321C35.1518 100.302 35.1208 100.302 35.0899 100.317C34.9893 100.317 34.8925 100.317 34.7919 100.317C34.761 100.302 34.7339 100.302 34.7029 100.317C34.6023 100.317 34.5056 100.317 34.405 100.317C34.3779 100.298 34.347 100.298 34.316 100.317C34.2502 100.317 34.1845 100.317 34.1187 100.317C34.0877 100.302 34.0607 100.302 34.0297 100.317C33.9291 100.317 33.8324 100.317 33.7318 100.317C33.7008 100.302 33.6737 100.302 33.6428 100.317C33.3835 100.317 33.1243 100.317 32.8651 100.317C32.838 100.298 32.807 100.298 32.7761 100.313C32.2808 100.29 31.7972 100.294 31.298 100.356C30.7912 100.418 30.265 100.29 29.7504 100.29C27.1502 100.282 24.5463 100.259 21.9462 100.302C19.5472 100.34 17.1483 100.201 14.7494 100.317C14.7185 100.302 14.6914 100.302 14.6604 100.317C14.5598 100.317 14.4631 100.317 14.3625 100.317C14.3315 100.302 14.3045 100.302 14.2735 100.317C13.6622 100.317 13.047 100.317 12.4356 100.317C12.4047 100.302 12.3776 100.302 12.3466 100.317C11.2671 100.224 10.1722 100.394 9.10425 100.089C6.10174 99.2259 3.43973 97.8601 1.76823 95.0626C0.611338 93.1242 0 91.0309 0 88.752C0.0116076 72.4897 0.00773795 56.2274 0.0116072 39.9651C0.0116072 30.6055 0.023211 21.2459 0.00773417 11.8862C0.00386496 9.28226 0.55717 6.87949 2.13194 4.74755C3.78409 2.51115 5.93537 1.07954 8.64381 0.448861C10.59 -0.00383671 12.5633 0.0967626 14.5289 0.0890242C21.447 0.0735473 28.3652 0.0774166 35.2872 0.0735474L35.3259 0.0774167H35.3646C38.9939 0.0774167 42.6193 0.0851549 46.2487 0.0851549C51.917 0.0851549 57.5854 0.0851549 63.2538 0.0851549C69.4252 0.0851549 75.5966 0.0928932 81.768 0.0967624C83.9038 0.0967624 86.0396 0.0967624 88.1754 0.0967624C88.5585 0.0967624 88.9454 0.127716 89.3284 0.147062C89.3671 0.147062 89.4058 0.150932 89.4445 0.154801C95.7668 0.437253 100.015 5.26216 100.259 11.2207H100.267Z" fill="#1469C7"/>
<path d="M34.0334 100.313C34.0644 100.298 34.0915 100.298 34.1224 100.313C34.0954 100.356 34.0644 100.356 34.0334 100.313Z" fill="white"/>
<path d="M12.3506 100.313C12.3815 100.294 12.4086 100.294 12.4396 100.313C12.4086 100.356 12.3815 100.356 12.3506 100.313Z" fill="white"/>
<path d="M14.2773 100.317C14.3083 100.302 14.3354 100.302 14.3663 100.317C14.3354 100.36 14.3083 100.36 14.2773 100.317Z" fill="white"/>
<path d="M14.6604 100.313C14.6914 100.298 14.7184 100.298 14.7494 100.313C14.7184 100.356 14.6914 100.356 14.6604 100.313Z" fill="white"/>
<path d="M32.78 100.313C32.811 100.298 32.8419 100.298 32.869 100.317C32.8381 100.356 32.8071 100.352 32.78 100.313Z" fill="white"/>
<path d="M33.6467 100.317C33.6777 100.302 33.7048 100.302 33.7357 100.317C33.7048 100.356 33.6777 100.356 33.6467 100.317Z" fill="white"/>
<path d="M89.4523 0.154766C89.4136 0.154766 89.3749 0.150897 89.3362 0.147027C89.3787 0.104466 89.4174 0.112205 89.4523 0.154766Z" fill="#6F9CCD"/>
<path d="M34.3198 100.313C34.3508 100.298 34.3817 100.298 34.4088 100.313C34.3779 100.352 34.3469 100.352 34.3198 100.313Z" fill="white"/>
<path d="M34.7068 100.317C34.7377 100.302 34.7648 100.302 34.7958 100.317C34.7648 100.317 34.7377 100.317 34.7068 100.317Z" fill="white"/>
<path d="M35.0938 100.317C35.1247 100.302 35.1518 100.302 35.1827 100.321C35.1518 100.36 35.1208 100.356 35.0938 100.317Z" fill="white"/>
<path d="M37.0205 100.313C37.0515 100.298 37.0786 100.298 37.1095 100.313C37.0786 100.356 37.0515 100.356 37.0205 100.313Z" fill="white"/>
<path d="M41.2612 100.309C41.2922 100.294 41.3231 100.294 41.3502 100.309C41.3193 100.352 41.2883 100.352 41.2612 100.309Z" fill="white"/>
<path d="M46.6626 100.329C46.6897 100.309 46.7168 100.309 46.7477 100.325C46.7206 100.325 46.6897 100.325 46.6626 100.329Z" fill="white"/>
<path d="M50.5125 100.317C50.5434 100.302 50.5705 100.302 50.6014 100.317C50.5705 100.356 50.5434 100.356 50.5125 100.317Z" fill="white"/>
<path d="M53.9832 100.317C54.0141 100.302 54.0412 100.302 54.0722 100.317C54.0412 100.356 54.0141 100.356 53.9832 100.317Z" fill="white"/>
<path d="M65.9314 100.313C65.9624 100.298 65.9894 100.298 66.0204 100.313C65.9894 100.356 65.9624 100.356 65.9314 100.313Z" fill="white"/>
<path d="M80.6807 100.321C80.7077 100.305 80.7387 100.305 80.7658 100.321C80.7387 100.321 80.7077 100.321 80.6807 100.321Z" fill="white"/>
<path d="M81.3501 100.313C81.3811 100.298 81.4081 100.298 81.4391 100.313C81.4081 100.352 81.3772 100.352 81.3501 100.313Z" fill="white"/>
<path d="M82.124 100.317C82.155 100.302 82.1821 100.302 82.213 100.317C82.1821 100.317 82.155 100.317 82.124 100.317Z" fill="white"/>
<path d="M82.5071 100.317C82.538 100.302 82.5651 100.302 82.5961 100.317C82.5651 100.356 82.538 100.356 82.5071 100.317Z" fill="white"/>
<path d="M35.3723 0.0735152H35.3336H35.2949C35.3065 0.0502999 35.322 0.0270845 35.3336 0C35.3491 0.0232153 35.3607 0.0464307 35.3762 0.0735152H35.3723Z" fill="#6F9CCD"/>
<path d="M82.894 100.317C82.925 100.302 82.9521 100.302 82.983 100.317C82.9521 100.356 82.925 100.356 82.894 100.317Z" fill="white"/>
<path d="M18.4175 72.2459C18.611 64.3875 18.464 56.5292 18.4988 48.6708C18.5181 44.2289 18.4988 39.7832 18.4988 35.3375C18.4988 35.0937 18.4678 34.8577 18.3866 34.6294C18.3285 34.4747 18.3401 34.3818 18.522 34.3586C18.6187 34.3663 18.7155 34.3741 18.8083 34.3741C39.8143 34.3741 60.8241 34.3741 81.83 34.3741C81.83 43.6486 81.83 52.9269 81.83 62.2014C81.83 63.8381 81.7565 65.4786 81.8493 67.1114C81.9306 68.5547 81.8764 69.994 81.919 71.4333C81.9306 71.7738 81.7836 72.0911 81.8184 72.4277C81.474 72.7682 81.4972 73.2712 81.269 73.6736C80.7892 74.521 80.1817 75.2484 79.462 75.9023C77.7828 77.4306 75.8675 78.3825 73.5499 78.3941C73.3487 78.3051 73.1436 78.3051 72.9424 78.3863C72.8921 78.3863 72.8379 78.3824 72.7877 78.3786C72.6561 78.3012 72.5168 78.3012 72.3775 78.3438C72.3156 78.3438 72.2576 78.3438 72.1957 78.3438C71.8397 78.2896 71.4837 78.2973 71.1239 78.3321C71.062 78.3321 71.0001 78.3321 70.9382 78.3283C70.8724 78.3283 70.8027 78.3283 70.737 78.3283C66.179 78.3283 61.625 78.2973 57.0671 78.3283C52.8148 78.3554 48.5625 78.2393 44.3103 78.3941C43.0953 78.4366 41.8727 78.3554 40.6539 78.3321C40.3521 78.3283 40.0464 78.3941 39.7562 78.3941C38.3323 78.4018 36.9046 78.3438 35.4769 78.3321C34.9545 78.3283 34.4167 78.3902 33.9098 78.367C33.0161 78.3321 32.1223 78.3515 31.2323 78.336C31.1627 78.336 31.0969 78.336 31.0273 78.336C30.9654 78.336 30.9073 78.336 30.8454 78.336C30.7758 78.336 30.71 78.336 30.6404 78.336C30.5823 78.336 30.5204 78.336 30.4624 78.336C30.3927 78.336 30.3231 78.336 30.2534 78.336C30.1954 78.336 30.1335 78.336 30.0755 78.336C30.0058 78.336 29.9362 78.336 29.8665 78.336C29.7737 78.336 29.6847 78.3321 29.5918 78.3283C29.3248 78.3128 29.054 78.2122 28.7986 78.3863C27.6185 78.3554 26.4345 78.3592 25.2544 78.278C24.6818 78.2393 24.1246 78.0303 23.5829 77.8098C22.0623 77.1907 20.8203 76.2041 19.8724 74.8808C19.2842 74.0605 18.6806 73.2364 18.4059 72.2343L18.4175 72.2459ZM35.1751 56.5485C35.0938 57.1095 35.326 57.6706 35.6935 58.1697C36.2198 58.8778 36.7576 59.5781 37.3728 60.2126C38.6457 61.5282 39.764 62.9791 40.9441 64.3759C41.9578 65.5754 42.9445 66.8019 44.0317 67.9395C44.6469 68.5817 45.4594 68.8603 46.3261 68.8758C47.8158 68.899 48.9959 68.218 49.9129 67.0844C51.4954 65.1343 53.283 63.366 54.9506 61.4972C56.448 59.8219 57.9686 58.1581 59.5085 56.5175C60.7815 55.1595 62.0351 53.7859 63.2617 52.3891C64.0394 51.4992 64.9293 50.7099 65.5832 49.7039C66.5041 48.2877 66.1829 46.3067 65.0067 45.204C63.6331 43.9155 61.18 43.9504 59.8529 45.3084C59.1061 46.0707 58.4754 46.9335 57.7829 47.7383C57.0322 48.6128 56.1423 49.3711 55.3994 50.2494C53.6157 52.3581 51.6618 54.3121 49.8626 56.4092C48.7986 57.6474 47.5488 58.7191 46.5738 60.0424C46.4577 60.1972 46.3919 60.143 46.272 60.0037C44.7049 58.1155 43.1263 56.239 41.5515 54.3547C40.975 53.6659 40.3095 53.0778 39.4003 52.9076C36.8698 52.4355 35.1789 54.552 35.1635 56.5524L35.1751 56.5485Z" fill="white"/>
<path d="M81.83 34.3741C60.824 34.3741 39.8142 34.3741 18.8083 34.3741C18.7116 34.3741 18.6148 34.3625 18.522 34.3586C18.6922 31.8939 18.5994 29.4215 18.5878 26.9568C18.58 25.3743 19.2571 24.14 20.2631 23.0179C21.0834 22.1048 21.9772 21.2807 23.165 20.8744C23.9195 20.6152 24.6895 20.3946 25.5059 20.3985C27.3206 20.3985 29.1352 20.3985 30.9499 20.3946C31.271 20.3946 31.5689 20.5765 31.8978 20.4797C31.9984 20.9866 31.9984 21.4973 31.9946 22.0081C31.9946 22.7935 31.9946 23.579 32.0023 24.3644C32.0062 25.2892 32.5014 25.9314 33.3101 26.2294C34.1342 26.535 34.9855 26.5118 35.7361 25.8889C36.4055 25.3356 36.5564 24.585 36.6221 23.7995C36.715 22.6697 36.4209 21.536 36.6299 20.4062C40.9324 20.4062 45.235 20.4062 49.5414 20.4062C54.1497 20.4062 58.7579 20.4062 63.3661 20.414C63.5325 20.414 63.6834 20.3907 63.8265 20.3134C63.9581 20.4178 64.0277 20.5378 64.0239 20.7196C64.0045 21.6018 63.9813 22.484 63.9929 23.3623C64.0007 23.8537 63.8962 24.3644 64.0626 24.8365C64.4727 25.9779 65.5832 26.6356 66.8291 26.3571C67.8583 26.1288 68.6592 25.2892 68.7134 23.9968C68.7637 22.7974 68.7288 21.5979 68.7327 20.3985C70.6441 20.3985 72.5516 20.4178 74.463 20.3869C76.0649 20.3637 77.4849 20.8512 78.7733 21.7682C80.3016 22.8593 81.2225 24.3605 81.6752 26.1597C81.7758 26.5583 81.8261 26.9761 81.8261 27.394C81.8261 29.7194 81.8261 32.0487 81.8338 34.3741H81.83Z" fill="#1469C7"/>
<path d="M73.5575 78.3941C75.8751 78.3825 77.7904 77.4306 79.4696 75.9023C80.1854 75.2484 80.7929 74.521 81.2765 73.6736C81.5048 73.2712 81.4816 72.7682 81.826 72.4278C81.9885 72.5284 81.9266 72.6676 81.8995 72.8108C81.7834 73.426 81.7137 74.0412 81.7331 74.668C81.7834 76.208 81.1798 77.5351 80.3402 78.7771C79.427 80.1313 78.1889 81.0948 76.7225 81.7835C75.848 82.1936 74.9194 82.4335 73.9521 82.4335C60.3634 82.4451 46.7748 82.4529 33.19 82.4606C31.0039 82.4606 28.8178 82.5186 26.6356 82.4413C23.4899 82.3329 21.1142 80.882 19.5704 78.1155C18.8894 76.9006 18.5373 75.6121 18.6069 74.2115C18.6302 73.7549 18.4715 73.337 18.2974 72.9191C18.2007 72.6909 18.0536 72.4084 18.4174 72.2382C18.6921 73.2403 19.2995 74.0644 19.8838 74.8847C20.8317 76.208 22.0738 77.1946 23.5944 77.8137C24.136 78.0342 24.6932 78.2432 25.2659 78.2819C26.446 78.3592 27.6261 78.3592 28.81 78.3902C29.0732 78.367 29.344 78.4637 29.6032 78.3322C29.6961 78.3322 29.7851 78.336 29.8779 78.3399C29.9476 78.4096 30.0172 78.4096 30.0869 78.3399C30.1449 78.3399 30.2068 78.3399 30.2649 78.3399C30.3345 78.4096 30.4042 78.4096 30.4738 78.3399C30.5318 78.3399 30.5938 78.3399 30.6518 78.3399C30.7214 78.4096 30.7911 78.4096 30.8569 78.3399C30.9188 78.3399 30.9768 78.3399 31.0387 78.3399C31.1084 78.4134 31.1741 78.4134 31.2438 78.3399C32.1376 78.3554 33.0275 78.336 33.9213 78.3709C34.432 78.3902 34.966 78.3283 35.4883 78.336C36.916 78.3476 38.3399 78.4095 39.7676 78.3979C40.0578 78.3979 40.3635 78.3283 40.6653 78.336C41.8841 78.3592 43.1029 78.4405 44.3217 78.3979C48.574 78.2432 52.8262 78.3592 57.0785 78.3322C61.6364 78.3051 66.1905 78.3322 70.7484 78.3322C70.8142 78.4057 70.88 78.4057 70.9496 78.3322C71.0115 78.3322 71.0734 78.3322 71.1353 78.336C71.4913 78.4521 71.8473 78.4444 72.2071 78.3476C72.269 78.3476 72.327 78.3476 72.3889 78.3476C72.5205 78.4366 72.6598 78.4212 72.7991 78.3825C72.8494 78.3825 72.9036 78.3863 72.9539 78.3902C73.1551 78.4366 73.3601 78.4289 73.5613 78.3979L73.5575 78.3941Z" fill="#1469C7"/>
<path d="M68.7287 20.3946C68.7287 21.5941 68.7596 22.7974 68.7093 23.993C68.6552 25.2892 67.8542 26.1288 66.825 26.3532C65.5791 26.6279 64.4687 25.9702 64.0585 24.8326C63.8883 24.3606 63.9928 23.8498 63.9889 23.3585C63.9773 22.4763 64.0005 21.5941 64.0198 20.7158C64.0237 20.5339 63.9541 20.414 63.8225 20.3095C64.0314 20.1509 64.0895 19.9458 64.0779 19.6866C64.0547 19.1139 64.0469 18.5413 64.0082 17.9687C63.8921 16.2701 65.4244 15.1673 66.7708 15.5504C68.0902 15.9257 68.7325 16.6647 68.7287 18.0344C68.7287 18.8199 68.7287 19.6092 68.7287 20.3946Z" fill="#0B3C71"/>
<path d="M36.6258 20.4023C36.4169 21.536 36.711 22.6658 36.6181 23.7956C36.5562 24.5811 36.4014 25.3317 35.7321 25.885C34.9776 26.508 34.1302 26.5312 33.3061 26.2255C32.4974 25.9276 32.0021 25.2814 31.9983 24.3605C31.9944 23.5751 31.9867 22.7896 31.9905 22.0042C31.9905 21.4935 31.9944 20.9789 31.8938 20.4759C31.9054 19.5937 31.9132 18.7115 31.9248 17.8293C31.9441 16.2391 33.1358 15.2679 34.7106 15.562C35.9642 15.7941 36.6181 16.5796 36.622 17.8525C36.622 18.7038 36.622 19.5511 36.6258 20.4023Z" fill="#0B3C71"/>
<path d="M82.0582 72.2188C82.0582 72.2188 82.0853 72.2188 82.0892 72.2188C82.0969 72.2266 82.1008 72.2459 82.0969 72.2537C82.0776 72.2923 82.0582 72.2885 82.0466 72.2498C82.0466 72.2382 82.0544 72.2266 82.0582 72.215V72.2188Z" fill="#1469C7"/>
<path d="M35.175 56.5447C35.1905 54.5443 36.8813 52.4278 39.4118 52.8999C40.3211 53.0701 40.9866 53.6582 41.5631 54.347C43.1378 56.2274 44.7165 58.1078 46.2835 59.996C46.3996 60.1353 46.4692 60.1895 46.5853 60.0347C47.5603 58.7114 48.8101 57.6435 49.8741 56.4015C51.6733 54.3044 53.6273 52.3543 55.411 50.2417C56.1539 49.3634 57.0438 48.6051 57.7944 47.7306C58.487 46.9219 59.1177 46.063 59.8644 45.3007C61.1916 43.9427 63.6447 43.9078 65.0182 45.1963C66.1945 46.299 66.5156 48.2839 65.5947 49.6962C64.9408 50.6983 64.0548 51.4915 63.2732 52.3814C62.0467 53.7782 60.7892 55.1518 59.5201 56.5098C57.9801 58.1504 56.4595 59.8141 54.9622 61.4895C53.2907 63.3583 51.5031 65.1266 49.9244 67.0767C49.0074 68.2103 47.8273 68.8913 46.3377 68.8681C45.4671 68.8565 44.6546 68.574 44.0432 67.9317C42.956 66.7942 41.9732 65.5677 40.9556 64.3682C39.7755 62.9714 38.6573 61.5205 37.3843 60.2049C36.7691 59.5704 36.2313 58.8662 35.7051 58.162C35.3375 57.6667 35.1054 57.1057 35.1866 56.5408L35.175 56.5447Z" fill="#1469C7"/>
<path d="M72.1995 78.3438C71.8396 78.4405 71.4837 78.4482 71.1277 78.3321C71.4837 78.2973 71.8435 78.2896 72.1995 78.3438Z" fill="#6F9CCD"/>
<path d="M29.6033 78.3399C29.3479 78.4676 29.077 78.3709 28.8101 78.398C29.0616 78.2238 29.3363 78.3283 29.6033 78.3399Z" fill="#6F9CCD"/>
<path d="M73.5577 78.3941C73.3526 78.4251 73.1514 78.4328 72.9502 78.3864C73.1553 78.3051 73.3565 78.3051 73.5577 78.3941Z" fill="#6F9CCD"/>
<path d="M72.7915 78.3824C72.6483 78.4211 72.509 78.4366 72.3813 78.3476C72.5245 78.3051 72.6599 78.3051 72.7915 78.3824Z" fill="#6F9CCD"/>
<path d="M30.0869 78.3438C30.0172 78.4134 29.9476 78.4134 29.8779 78.3438C29.9476 78.3438 30.0172 78.3438 30.0869 78.3438Z" fill="#6F9CCD"/>
<path d="M30.4699 78.3399C30.4003 78.4134 30.3345 78.4134 30.261 78.3399C30.3306 78.3399 30.4003 78.3399 30.4699 78.3399Z" fill="#6F9CCD"/>
<path d="M30.8569 78.336C30.7911 78.4095 30.7215 78.4095 30.6519 78.336C30.7215 78.336 30.7873 78.336 30.8569 78.336Z" fill="#6F9CCD"/>
<path d="M31.24 78.3322C31.1742 78.4057 31.1046 78.4057 31.0349 78.3322C31.1046 78.3322 31.1703 78.3322 31.24 78.3322Z" fill="#6F9CCD"/>
<path d="M70.9458 78.3283C70.8801 78.4018 70.8104 78.398 70.7446 78.3283C70.8104 78.3283 70.8801 78.3283 70.9458 78.3283Z" fill="#6F9CCD"/>
</svg>
