<svg width="102" height="108" viewBox="0 0 102 108" fill="none" xmlns="http://www.w3.org/2000/svg">
<path d="M0 14C0 9.58172 3.58172 6 8 6H79C83.4183 6 87 9.58172 87 14V100C87 104.418 83.4183 108 79 108H8C3.58172 108 0 104.418 0 100V14Z" fill="#1469C7"/>
<path d="M4 14C4 11.7909 5.79086 10 8 10H69C71.2091 10 73 11.7909 73 14V100C73 102.209 71.2091 104 69 104H8C5.79086 104 4 102.209 4 100V14Z" fill="white" fill-opacity="0.7"/>
<path d="M10 10H73V98H10V10Z" fill="#F5F5F5"/>
<rect x="13.1" y="13.1" width="4.8" height="4.8" stroke="#1B1F26" stroke-opacity="0.72" stroke-width="0.2"/>
<rect x="13.1" y="20.1" width="4.8" height="4.8" stroke="#1B1F26" stroke-opacity="0.72" stroke-width="0.2"/>
<rect x="13.1" y="27.1" width="4.8" height="4.8" stroke="#1B1F26" stroke-opacity="0.72" stroke-width="0.2"/>
<rect x="13.1" y="34.1" width="4.8" height="4.8" stroke="#1B1F26" stroke-opacity="0.72" stroke-width="0.2"/>
<rect x="13.1" y="41.1" width="4.8" height="4.8" stroke="#1B1F26" stroke-opacity="0.72" stroke-width="0.2"/>
<rect x="13.1" y="48.1" width="4.8" height="4.8" stroke="#1B1F26" stroke-opacity="0.72" stroke-width="0.2"/>
<rect x="13.1" y="55.1" width="4.8" height="4.8" stroke="#1B1F26" stroke-opacity="0.72" stroke-width="0.2"/>
<rect x="13.1" y="62.1" width="4.8" height="4.8" stroke="#1B1F26" stroke-opacity="0.72" stroke-width="0.2"/>
<rect x="13.1" y="69.1" width="4.8" height="4.8" stroke="#1B1F26" stroke-opacity="0.72" stroke-width="0.2"/>
<rect x="13.1" y="76.1" width="4.8" height="4.8" stroke="#1B1F26" stroke-opacity="0.72" stroke-width="0.2"/>
<rect x="13.1" y="83.1" width="4.8" height="4.8" stroke="#1B1F26" stroke-opacity="0.72" stroke-width="0.2"/>
<rect x="13.1" y="90.1" width="4.8" height="4.8" stroke="#1B1F26" stroke-opacity="0.72" stroke-width="0.2"/>
<rect x="23" y="13" width="22" height="1" fill="#D9D9D9"/>
<rect x="23" y="20" width="22" height="1" fill="#D9D9D9"/>
<rect x="23" y="27" width="22" height="1" fill="#D9D9D9"/>
<rect x="23" y="34" width="22" height="1" fill="#D9D9D9"/>
<rect x="23" y="41" width="22" height="1" fill="#D9D9D9"/>
<rect x="23" y="48" width="22" height="1" fill="#D9D9D9"/>
<rect x="23" y="55" width="22" height="1" fill="#D9D9D9"/>
<rect x="23" y="62" width="22" height="1" fill="#D9D9D9"/>
<rect x="23" y="69" width="22" height="1" fill="#D9D9D9"/>
<rect x="23" y="76" width="22" height="1" fill="#D9D9D9"/>
<rect x="23" y="83" width="22" height="1" fill="#D9D9D9"/>
<rect x="23" y="90" width="22" height="1" fill="#D9D9D9"/>
<rect x="23" y="15" width="44" height="1" fill="#D9D9D9"/>
<rect x="23" y="22" width="44" height="1" fill="#D9D9D9"/>
<rect x="23" y="29" width="44" height="1" fill="#D9D9D9"/>
<rect x="23" y="36" width="44" height="1" fill="#D9D9D9"/>
<rect x="23" y="43" width="44" height="1" fill="#D9D9D9"/>
<rect x="23" y="50" width="44" height="1" fill="#D9D9D9"/>
<rect x="23" y="57" width="44" height="1" fill="#D9D9D9"/>
<rect x="23" y="64" width="44" height="1" fill="#D9D9D9"/>
<rect x="23" y="71" width="44" height="1" fill="#D9D9D9"/>
<rect x="23" y="78" width="44" height="1" fill="#D9D9D9"/>
<rect x="23" y="85" width="44" height="1" fill="#D9D9D9"/>
<rect x="23" y="92" width="44" height="1" fill="#D9D9D9"/>
<rect x="23" y="17" width="34" height="1" fill="#D9D9D9"/>
<rect x="23" y="24" width="34" height="1" fill="#D9D9D9"/>
<rect x="23" y="31" width="34" height="1" fill="#D9D9D9"/>
<rect x="23" y="38" width="34" height="1" fill="#D9D9D9"/>
<rect x="23" y="45" width="34" height="1" fill="#D9D9D9"/>
<rect x="23" y="52" width="34" height="1" fill="#D9D9D9"/>
<rect x="23" y="59" width="34" height="1" fill="#D9D9D9"/>
<rect x="23" y="66" width="34" height="1" fill="#D9D9D9"/>
<rect x="23" y="73" width="34" height="1" fill="#D9D9D9"/>
<rect x="23" y="80" width="34" height="1" fill="#D9D9D9"/>
<rect x="23" y="87" width="34" height="1" fill="#D9D9D9"/>
<rect x="23" y="94" width="34" height="1" fill="#D9D9D9"/>
<path d="M39.4375 0C41.4211 0 43.062 1.46685 43.335 3.375H45.0625C46.6158 3.375 47.875 4.6342 47.875 6.1875C47.875 7.7408 46.6158 9 45.0625 9H33.8125C32.2592 9 31 7.7408 31 6.1875C31 4.6342 32.2592 3.375 33.8125 3.375H35.54C35.813 1.46685 37.4539 0 39.4375 0ZM39.4375 1C38.0076 1 36.8172 2.02183 36.5547 3.375H42.3203C42.0578 2.02183 40.8674 1 39.4375 1Z" fill="#FF9500"/>
<circle cx="45" cy="6" r="1" fill="black" fill-opacity="0.3"/>
<circle cx="39" cy="6" r="1" fill="black" fill-opacity="0.3"/>
<circle cx="33" cy="6" r="1" fill="black" fill-opacity="0.3"/>
<path d="M18.0684 13.3252L15.6094 16.1943L15.2295 15.8691L14 14.6387L14.3535 14.2852L15.5557 15.4883L17.6895 13L18.0684 13.3252Z" fill="#34C759"/>
<path d="M18.0684 20.3252L15.6094 23.1943L15.2295 22.8691L14 21.6387L14.3535 21.2852L15.5557 22.4883L17.6895 20L18.0684 20.3252Z" fill="#34C759"/>
<path d="M18.0684 27.3252L15.6094 30.1943L15.2295 29.8691L14 28.6387L14.3535 28.2852L15.5557 29.4883L17.6895 27L18.0684 27.3252Z" fill="#34C759"/>
<path d="M18.0684 34.3252L15.6094 37.1943L15.2295 36.8691L14 35.6387L14.3535 35.2852L15.5557 36.4883L17.6895 34L18.0684 34.3252Z" fill="#34C759"/>
<path d="M18.0684 55.3252L15.6094 58.1943L15.2295 57.8691L14 56.6387L14.3535 56.2852L15.5557 57.4883L17.6895 55L18.0684 55.3252Z" fill="#34C759"/>
<path d="M77.0603 53.0718L84.9938 53.2554L84.7915 32.8153L78.2084 32.6629L77.0603 53.0718Z" fill="black"/>
<path d="M77.3364 69.7233L77.7224 53.0727L84.2869 53.2247L83.901 69.8753L77.3364 69.7233Z" fill="black"/>
<path d="M76.027 44.8146C76.3648 46.6379 75.578 49.6175 74.7186 52.0887C74.8874 52.0926 75.3074 52.1867 75.3938 52.1043C75.6626 51.435 75.9727 50.8088 76.2415 50.1395C76.7791 48.8008 77.1931 47.3327 77.4383 45.8606C77.8463 42.83 74.5366 38.0668 75.7062 36.785C76.4402 36.0842 78.1616 36.504 79.1332 36.4843L79.1664 35.0495C79.1683 34.9651 78.028 34.9809 77.9436 34.979C76.5088 34.9458 74.9033 34.993 74.1497 36.5378C73.1725 38.6263 75.6951 42.738 76.027 44.8146ZM75.4413 37.2855C75.3981 37.3267 75.3981 37.3267 75.4413 37.2855ZM80.0974 78.7286C80.1327 79.025 80.2544 79.2389 80.4232 79.2428C80.592 79.2467 80.7667 78.9974 80.7726 78.7442L81.108 77.0209L79.842 76.9916L80.0974 78.7286Z" fill="#FF9500"/>
<path d="M79.1669 76.9759L81.7832 77.0365L83.9336 69.8664L77.3506 69.7139L79.1669 76.9759ZM77.117 50.6242L85.0504 50.8079L84.9938 53.2554L77.0603 53.0718L77.117 50.6242Z" fill="white"/>
<path d="M78.6304 32.6727L84.3695 32.8056C84.4066 31.202 83.17 29.9067 81.5664 29.8696C79.9628 29.8325 78.6675 31.0691 78.6304 32.6727Z" fill="black"/>
<path d="M77.9764 33.5843L78.0041 32.3909L85.0463 32.554L85.0187 33.7474L77.9764 33.5843Z" fill="white"/>
</svg>
