<svg width="94" height="119" viewBox="0 0 94 119" fill="none" xmlns="http://www.w3.org/2000/svg">
<path d="M93.9889 111.19C93.9844 112.829 93.646 114.41 92.6306 115.781C91.406 117.447 89.7227 118.453 87.6075 118.743C85.3052 119.054 82.9806 118.876 80.6649 118.876C65.5776 118.898 50.4902 118.898 35.4028 118.894C26.0823 118.894 16.7618 118.912 7.43681 118.85C4.81389 118.832 2.79215 117.563 1.43392 115.443C0.50321 113.982 0 112.406 0 110.638C0.0311723 88.2071 0.0178127 65.7765 0.0267191 43.3458C0.0267191 34.0386 0.0534382 24.7315 0.0667977 15.4288C0.0801573 15.4154 0.106876 15.4021 0.106876 15.3932C0.106876 15.362 0.0846105 15.3353 0.0757041 15.3041V14.8855C0.0757041 14.8276 0.0846105 14.7742 0.0935168 14.7207C0.0890636 12.4852 0.877277 10.5214 2.51605 8.94051C3.76739 7.73369 5.37054 7.11915 7.15181 7.01673C12.3353 6.71837 17.5188 6.95439 22.7023 6.90985C23.348 6.9054 24.0116 7.02118 24.6706 7.03454C24.6795 7.22603 24.635 7.40861 24.4747 7.52439C24.0294 7.83612 23.9759 8.25917 23.9759 8.75347C23.9804 10.7619 23.9448 12.7702 23.9269 14.7742C20.6761 14.7742 17.4298 14.7742 14.1834 14.7742C13.6668 14.7742 13.1592 14.8321 12.6426 14.89C10.4338 15.1438 8.75496 17.1744 8.76386 19.1205C8.77277 21.8725 8.77277 24.6246 8.77277 27.3811C8.68816 27.3989 8.60355 27.4301 8.63472 27.5281C8.64363 27.5682 8.72378 27.5904 8.77277 27.6216C8.77277 46.5699 8.77277 65.5182 8.77722 84.462C8.77722 91.9166 8.75941 99.3668 8.80394 106.821C8.8173 108.848 10.5496 110.535 12.5802 110.981C13.4442 111.168 14.2635 111.021 15.1007 111.021C20.2264 111.021 25.3475 111.016 30.4731 111.016C44.0375 111.016 57.6064 111.021 71.1752 111.021C71.2821 111.021 71.3845 111.021 71.4869 111.021C75.4369 111.092 81.373 112.406 83.6308 108.318C84.7708 106.256 84.8153 103.793 84.8331 101.438C84.8687 96.7929 84.9044 92.1438 84.94 87.4991C85.0959 83.4601 85.1983 79.4255 85.3274 75.4132C85.697 63.9284 85.8039 52.4347 85.6391 40.9455C85.6213 39.4626 85.8351 36.7863 85.982 33.6913C85.982 33.6646 85.9865 33.6423 85.9865 33.62C86.5431 25.9383 86.601 16.2749 81.6313 14.9523C81.511 14.9211 81.3908 14.8944 81.2661 14.8721C81.137 14.8499 81.0123 14.8321 80.8787 14.8187C80.7451 14.8053 80.6115 14.7964 80.4735 14.792C77.1113 14.694 73.7447 14.7742 70.3781 14.7742C70.3692 14.5738 70.3425 14.3734 70.3603 14.1774C70.5696 11.8796 70.7388 9.59512 69.5186 7.46205C69.4296 7.30619 69.5275 7.15923 69.6255 7.02564C69.8615 6.90985 70.1153 6.88759 70.3781 6.88759C74.9782 6.88759 79.5828 6.8386 84.183 6.91431C85.6391 6.93657 87.131 6.9054 88.5649 7.324C90.8805 8.00534 92.4525 9.41254 93.3253 11.5768C93.8909 12.9795 93.98 14.4402 93.9844 15.8964C94.0022 39.6586 93.9978 63.4207 93.9978 87.1874C93.9978 95.1853 94.0067 103.188 93.9889 111.186V111.19Z" fill="#1469C7"/>
<path d="M69.7191 19.0804C68.6102 20.6034 66.8913 21.2402 65.0611 21.2491C53.0686 21.3025 41.0807 21.2625 29.0882 21.2936C27.6988 21.2981 26.6078 20.7414 25.588 20.0067C25.0091 19.5836 24.6083 18.9869 24.3233 18.2877C23.8424 17.1299 23.9938 15.9498 23.927 14.7742C23.9448 12.7702 23.9804 10.7619 23.976 8.75348C23.976 8.25918 24.0294 7.83612 24.4747 7.5244C24.6351 7.40862 24.6796 7.22604 24.6707 7.03455C25.0358 6.8297 25.3698 6.59368 25.6905 6.32649C26.492 5.66297 27.4584 5.39133 28.5004 5.38687C31.867 5.38687 35.2381 5.39133 38.6047 5.40469C39.05 5.40469 39.2014 5.33789 39.3528 4.82577C39.9941 2.68379 41.0896 0.82236 43.5833 0.185555C44.1222 0.0475067 44.7056 -0.0148378 45.2667 0.00297493C46.8965 0.0519599 48.5264 -0.0771824 50.1562 0.0920386C51.127 0.194462 51.9731 0.54181 52.7079 1.13408C53.505 1.78425 54.084 2.61254 54.6183 3.45419C54.7742 3.70357 54.6896 4.08654 54.7208 4.40717C54.792 5.17312 55.0236 5.36906 55.8385 5.37351C58.9691 5.37351 62.0997 5.39133 65.2258 5.37797C66.7844 5.36906 68.1694 5.72531 69.2559 6.85197C69.3584 6.95439 69.4742 7.02564 69.6256 7.0301C69.5276 7.16369 69.4296 7.31065 69.5187 7.46651C70.7389 9.59958 70.5696 11.8841 70.3603 14.1819C70.3425 14.3778 70.3692 14.5782 70.3781 14.7786C70.396 14.9078 70.4093 15.0414 70.4316 15.1705C70.6676 16.551 70.5696 17.9092 69.7191 19.0804Z" fill="#E99723"/>
<path d="M61.4986 66.9922C61.4986 66.9922 61.4986 67.0278 61.4941 67.0457C61.5788 67.0457 61.6589 67.0546 61.7435 67.0546C61.6634 67.0367 61.5788 67.0145 61.4986 66.9922ZM71.0284 64.6677C71.0284 64.6677 71.0418 64.6721 71.0507 64.6721C71.0551 64.6142 71.064 64.5563 71.0729 64.4984C71.0596 64.5563 71.0462 64.6098 71.0284 64.6677ZM71.2021 40.144C70.5697 47.6832 71.1887 55.5787 71.1887 63.1758C71.1976 55.6455 71.2021 48.1196 71.2065 40.5893C71.2065 40.4423 71.2065 40.2909 71.2021 40.144Z" fill="white"/>
<path d="M85.1583 19.499C84.4859 17.1611 83.3859 15.4511 81.6314 14.9568C81.5111 14.9256 81.3909 14.8989 81.2662 14.8766C81.1371 14.8543 81.0124 14.8365 80.8788 14.8232C80.7452 14.8098 80.6116 14.8009 80.4735 14.7964C77.1114 14.6985 73.7448 14.7786 70.3782 14.7786C70.396 14.9078 70.4094 15.0414 70.4316 15.1705C70.6676 16.551 70.5697 17.9092 69.7191 19.0804C68.6103 20.6034 66.8913 21.2402 65.0611 21.2491C53.0687 21.3025 41.0807 21.2625 29.0883 21.2936C27.6989 21.2981 26.6079 20.7414 25.5881 20.0067C25.0092 19.5836 24.6084 18.9869 24.3234 18.2877C23.8424 17.1299 23.9938 15.9498 23.927 14.7742C20.6762 14.7742 17.4298 14.7742 14.1835 14.7742C13.6669 14.7742 13.1592 14.8321 12.6427 14.89C10.4339 15.1438 8.75504 17.1744 8.76395 19.1205C8.77286 21.8725 8.77286 24.6246 8.77286 27.3811C8.87973 27.4613 8.87973 27.5414 8.77286 27.6216C8.77286 46.5699 8.77286 65.5182 8.77731 84.462C8.77731 91.9166 8.7595 99.3668 8.80403 106.821C8.81739 108.848 10.5497 110.535 12.5803 110.981C13.4442 111.168 14.2636 111.021 15.1008 111.021C20.2264 111.021 25.3476 111.016 30.4732 111.016C44.0376 111.016 57.6065 111.021 71.1753 111.021C71.2822 111.021 71.3846 111.021 71.487 111.021C75.437 111.092 81.3731 112.406 83.6309 108.318C84.7709 106.256 84.8154 103.793 84.8332 101.438C84.8688 96.7929 84.9045 92.1438 84.9401 87.4991C85.096 83.4601 85.1984 79.4255 85.3275 75.4132C85.6971 63.9284 85.804 52.4347 85.6392 40.9455C85.6214 39.4626 85.8352 36.7863 85.9821 33.6913C85.9821 33.6646 85.9866 33.6423 85.9866 33.62C86.2048 28.9531 86.2671 23.3644 85.1583 19.4945V19.499ZM41.0273 48.0305C41.0273 46.5877 42.047 45.5189 43.5656 45.3764C43.6279 45.3096 43.6947 45.3052 43.7615 45.372C45.6318 45.372 47.5022 45.3319 49.3725 45.3631C51.5679 45.3987 52.3428 46.2493 52.4096 48.0751C52.5298 51.3838 52.5165 54.697 52.4274 58.0101C52.4274 58.0457 52.4274 58.0858 52.4274 58.1214C52.4541 60.112 52.4853 62.0981 52.512 64.0843C52.5031 64.1422 52.4987 64.1956 52.4897 64.2535C52.3294 66.4533 50.9222 67.2371 49.0296 67.0634C47.0658 67.1258 45.1019 67.1213 43.1381 67.0679C43.0935 67.0278 43.049 66.9877 43.0045 66.9521V66.9655C41.8288 66.5736 41.0451 65.5226 41.0362 64.2847C41.0228 61.35 41.0228 58.4198 41.0228 55.4852C41.0228 53.0003 41.0273 50.5154 41.0273 48.0305ZM23.3882 57.0839C23.3882 56.3001 24.3412 55.3738 25.2096 55.2937C25.3476 55.1645 25.5079 55.169 25.6771 55.2046C25.7573 55.2046 25.833 55.2046 25.9087 55.1957C27.9883 55.1823 30.068 55.1601 32.1476 55.1601C32.5439 55.1601 32.8957 55.3605 33.2386 55.552C34.6548 56.1977 34.7349 57.3822 34.6147 58.6469C34.588 59.119 34.9531 59.5687 34.6948 60.0541C34.6859 60.0808 34.6681 60.0942 34.6414 60.1031C34.6592 60.1298 34.6859 60.1521 34.6993 60.1833C34.6993 60.1922 34.6815 60.21 34.6681 60.2278C34.7171 60.2278 34.7349 60.259 34.726 60.3035C34.8106 61.1184 34.7794 61.9378 34.7483 62.7572C34.7305 63.7725 34.9086 64.8057 34.3519 65.7676C33.8532 66.627 33.0961 67.0412 32.0853 67.0902C32.0229 67.1614 31.9606 67.1703 31.8938 67.0902C31.6711 67.0902 31.4529 67.0813 31.2303 67.0768C29.8409 67.1258 28.4515 67.1792 27.0576 67.0902C26.6346 67.0902 26.2071 67.1035 25.7796 67.0902C24.4881 67.0412 23.3437 65.8388 23.3615 64.6587C23.3971 62.1338 23.3793 59.6088 23.3882 57.0839ZM57.3615 94.6464C56.9741 96.0492 56.079 96.7751 54.556 96.922C54.3245 97.0957 54.0528 97.0245 53.8034 97.0245C44.7145 97.0334 35.63 97.0378 26.5455 97.0333C25.3654 97.0289 24.2833 96.7884 23.6643 95.6751C22.8182 94.1521 23.2234 92.3085 24.6262 91.6094C25.3877 91.2264 26.2739 91.2353 27.1066 91.2353C33.154 91.222 39.197 91.2353 45.24 91.2442C47.2305 91.2487 49.2211 91.2709 51.2117 91.222C52.4675 91.1908 53.7099 91.3244 54.9613 91.3511C56.4531 91.3867 57.7534 93.2303 57.3615 94.6464ZM67.5059 83.0637C67.065 83.0771 66.6197 83.0726 66.1788 83.0682C65.9562 83.0637 65.738 83.0637 65.5153 83.0637C65.1323 83.0637 64.7494 83.0548 64.3664 83.0548C64.2283 83.0548 64.0947 83.0548 63.9567 83.0548H59.8108C59.6727 83.0548 59.5347 83.0548 59.3966 83.0548C58.3991 83.1127 57.3972 83.1082 56.3952 83.0548H55.2552C53.4561 83.0548 51.6615 83.0548 49.8624 83.0548C49.7599 83.0548 49.662 83.0548 49.5596 83.0504C41.7709 83.0548 33.9779 83.0637 26.1848 83.0593C24.4035 83.0593 23.2947 82.1241 23.2412 80.6323C23.1789 78.7664 24.1898 77.6531 26.0735 77.5151C26.3496 77.3102 26.6524 77.3859 26.9507 77.4394C27.3204 77.4394 27.69 77.4394 28.0596 77.4394C28.3535 77.3681 28.6474 77.3636 28.9413 77.4394C31.3995 77.4438 33.8621 77.4438 36.3202 77.4483C36.7522 77.3547 37.1886 77.3592 37.625 77.4483C37.8076 77.4438 37.9857 77.4438 38.1683 77.4394C38.4132 77.3636 38.6626 77.3681 38.9075 77.4394H39.1658C39.9808 77.3503 40.7957 77.3592 41.6106 77.4394C41.7442 77.4394 41.8734 77.4438 42.007 77.4438H42.1851C42.3187 77.4438 42.4478 77.4394 42.5814 77.4394C42.8263 77.3681 43.0757 77.3681 43.3206 77.4438C43.4498 77.4438 43.5834 77.4438 43.7125 77.4394H43.8951C44.5943 77.4394 45.2979 77.4394 45.997 77.4394C46.1974 77.377 46.3978 77.3726 46.5937 77.4394C50.0984 77.4394 53.5986 77.4394 57.0988 77.4394C57.4417 77.3592 57.7846 77.3592 58.123 77.4438H58.3813C58.5327 77.3815 58.6841 77.3815 58.84 77.4438C59.3031 77.4394 59.7662 77.4394 60.2338 77.4394C60.5188 77.3859 60.8038 77.0297 61.0977 77.4304L64.9319 77.4438C65.2258 77.3636 65.5153 77.3636 65.8092 77.4438H66.78C68.1071 77.2345 69.2649 77.4572 70.0531 78.6194C71.1842 80.5922 70.3693 82.9702 67.5059 83.0682V83.0637ZM71.2376 39.6986C71.2243 39.8456 71.2109 39.9881 71.202 40.135V40.1439C71.2065 40.2909 71.2065 40.4423 71.2065 40.5893C71.202 48.1196 71.1976 55.6455 71.1887 63.1758V63.3361C71.1887 63.4474 71.1842 63.5588 71.1753 63.6701C71.1664 63.9685 71.1308 64.2446 71.0729 64.4939C71.064 64.5563 71.0551 64.6142 71.0506 64.6721C71.0417 64.6721 71.0373 64.6721 71.0283 64.6676C70.2758 67.5043 66.9225 67.1926 63.9834 67.2505C63.2531 67.2638 62.4693 67.2282 61.7479 67.0545H61.7435C61.6588 67.0545 61.5787 67.0501 61.4941 67.0456C61.4985 67.0278 61.4985 67.01 61.4985 66.9922C60.7281 66.7695 60.0512 66.3732 59.6282 65.6919C59.1383 64.9036 59.125 63.9239 59.125 62.9932C59.1294 56.5049 59.1205 50.0122 59.125 43.5239C59.1294 40.9233 57.9271 36.0648 60.6836 34.5151C62.0329 33.7536 63.6583 33.7536 65.208 33.7714C67.0071 33.7937 69.0244 33.9095 70.2357 35.241C71.2911 36.4033 71.3801 38.1356 71.2376 39.6986Z" fill="white"/>
<path d="M71.2376 39.6986C71.2242 39.8456 71.2108 39.9881 71.2019 40.135V40.1439C70.5696 47.6832 71.1886 55.5787 71.1886 63.1758V63.3361C71.1886 63.4474 71.1841 63.5588 71.1752 63.6701C71.1485 63.9462 71.104 64.2178 71.0728 64.4939C71.0594 64.5563 71.0461 64.6097 71.0283 64.6676C70.2757 67.5043 66.9224 67.1926 63.9833 67.2505C63.253 67.2638 62.4693 67.2282 61.7478 67.0545H61.7434C61.6632 67.0367 61.5786 67.0144 61.4985 66.9922C60.7281 66.7695 60.0512 66.3732 59.6281 65.6919C59.1383 64.9036 59.1249 63.9239 59.1249 62.9932C59.1294 56.5049 59.1205 50.0122 59.1249 43.5239C59.1294 40.9233 57.927 36.0648 60.6835 34.5151C62.0328 33.7536 63.6582 33.7536 65.208 33.7714C67.007 33.7937 69.0243 33.9095 70.2356 35.241C71.291 36.4033 71.3801 38.1356 71.2376 39.6986Z" fill="#1469C7"/>
<path d="M61.7435 67.0545C61.6589 67.0545 61.5788 67.0501 61.4941 67.0456C61.4986 67.0278 61.4986 67.01 61.4986 66.9922C61.5788 67.0145 61.6634 67.0367 61.7435 67.0545Z" fill="#1469C7"/>
<path d="M71.0729 64.4984C71.0639 64.5563 71.055 64.6142 71.0506 64.6721C71.0417 64.6721 71.0372 64.6721 71.0283 64.6676C71.0461 64.6097 71.0595 64.5563 71.0729 64.4984Z" fill="#1469C7"/>
<path d="M71.2065 40.5893C71.202 48.1196 71.1976 55.6455 71.1887 63.1758C71.1887 55.5787 70.5697 47.6832 71.202 40.144C71.2065 40.2909 71.2065 40.4423 71.2065 40.5893Z" fill="#1469C7"/>
<path d="M52.5119 64.0843C52.503 64.1422 52.4986 64.1956 52.4896 64.2535C52.3293 66.4534 50.9221 67.2372 49.0295 67.0635C47.0657 67.1258 45.1018 67.1214 43.138 67.0679C43.0934 67.0278 43.0489 66.9878 43.0044 66.9521V66.9655C41.8287 66.5736 41.045 65.5227 41.0361 64.2847C41.0227 61.35 41.0227 58.4198 41.0227 55.4852C41.0227 53.0003 41.0272 50.5154 41.0272 48.0306C41.0272 46.5877 42.0469 45.519 43.5655 45.3765C43.6278 45.3097 43.6946 45.3052 43.7614 45.372C45.6317 45.372 47.5021 45.3319 49.3724 45.3631C51.5678 45.3987 52.3427 46.2493 52.4095 48.0751C52.5297 51.3838 52.5164 54.697 52.4273 58.0102C52.4273 58.0458 52.4273 58.0859 52.4273 58.1215C52.454 60.1121 52.4852 62.0982 52.5119 64.0843Z" fill="#1469C7"/>
<path d="M67.5059 83.0637C67.065 83.0771 66.6197 83.0726 66.1788 83.0682C65.9562 83.0637 65.738 83.0637 65.5153 83.0637C65.1323 83.0637 64.7494 83.0548 64.3664 83.0548C64.2283 83.0548 64.0947 83.0548 63.9567 83.0548H59.8108C59.6727 83.0548 59.5347 83.0548 59.3966 83.0548C58.3991 83.1127 57.3972 83.1082 56.3952 83.0548H55.2552C53.4561 83.0548 51.6615 83.0548 49.8624 83.0548C49.7599 83.0548 49.662 83.0548 49.5596 83.0503C41.7709 83.0548 33.9779 83.0637 26.1848 83.0592C24.4035 83.0592 23.2947 82.1241 23.2412 80.6323C23.1789 78.7664 24.1898 77.6531 26.0735 77.515C26.3496 77.3102 26.6524 77.3859 26.9507 77.4393C27.3204 77.4393 27.69 77.4393 28.0596 77.4393C28.3535 77.3681 28.6474 77.3636 28.9413 77.4393C31.3995 77.4438 33.8621 77.4438 36.3202 77.4482C36.7522 77.3547 37.1886 77.3592 37.625 77.4482C37.8076 77.4438 37.9857 77.4438 38.1683 77.4393C38.4132 77.3636 38.6626 77.3681 38.9075 77.4393H39.1658C39.9808 77.3503 40.7957 77.3592 41.6106 77.4393C41.7442 77.4393 41.8734 77.4438 42.007 77.4438H42.1851C42.3187 77.4438 42.4478 77.4393 42.5814 77.4393C42.8263 77.3681 43.0757 77.3681 43.3206 77.4438C43.4498 77.4438 43.5834 77.4438 43.7125 77.4393H43.8951C44.5943 77.4393 45.2979 77.4393 45.997 77.4393C46.1974 77.377 46.3978 77.3725 46.5937 77.4393C50.0984 77.4393 53.5986 77.4393 57.0988 77.4393C57.4417 77.3592 57.7846 77.3592 58.123 77.4438H58.3813C58.5327 77.3814 58.6841 77.3814 58.84 77.4438C59.3031 77.4393 59.7662 77.4393 60.2338 77.4393C60.5188 77.3859 60.8038 77.0296 61.0977 77.4304L64.9319 77.4438C65.2258 77.3636 65.5153 77.3636 65.8092 77.4438H66.78C68.1071 77.2345 69.2649 77.4571 70.0531 78.6194C71.1842 80.5922 70.3693 82.9702 67.5059 83.0682V83.0637Z" fill="#1469C7"/>
<path d="M57.3615 94.6465C56.9741 96.0492 56.079 96.7751 54.556 96.922C54.3244 97.0957 54.0528 97.0245 53.8034 97.0245C44.7145 97.0334 35.63 97.0378 26.5455 97.0334C25.3654 97.0289 24.2833 96.7884 23.6643 95.6752C22.8182 94.1522 23.2234 92.3085 24.6262 91.6094C25.3877 91.2264 26.2738 91.2353 27.1066 91.2353C33.154 91.222 39.197 91.2353 45.2399 91.2442C47.2305 91.2487 49.2211 91.271 51.2117 91.222C52.4675 91.1908 53.7099 91.3244 54.9612 91.3511C56.4531 91.3867 57.7534 93.2303 57.3615 94.6465Z" fill="#1469C7"/>
<path d="M34.7481 62.7572C34.7303 63.7725 34.9084 64.8057 34.3517 65.7676C33.853 66.627 33.0959 67.0412 32.0851 67.0902C32.0227 67.1614 31.9604 67.1703 31.8936 67.0902C31.6709 67.0902 31.4527 67.0813 31.2301 67.0768C29.8407 67.1258 28.4513 67.1792 27.0574 67.0902C26.6344 67.0902 26.2069 67.1035 25.7794 67.0902C24.4879 67.0412 23.3435 65.8388 23.3613 64.6587C23.3969 62.1338 23.3791 59.6088 23.388 57.0839C23.388 56.3001 24.341 55.3738 25.2094 55.2937C25.3474 55.1645 25.5077 55.169 25.6769 55.2046C25.7571 55.2046 25.8328 55.2046 25.9085 55.1957C27.9881 55.1824 30.0678 55.1601 32.1474 55.1601C32.5438 55.1601 32.8956 55.3605 33.2384 55.552C34.6546 56.1977 34.7347 57.3822 34.6145 58.6469C34.5878 59.119 34.9529 59.5687 34.6946 60.0541C34.6857 60.0809 34.6679 60.0942 34.6412 60.1031C34.659 60.1298 34.6857 60.1521 34.6991 60.1833C34.6991 60.1922 34.6813 60.21 34.6679 60.2278C34.7169 60.2278 34.7347 60.259 34.7258 60.3035C34.8104 61.1185 34.7792 61.9378 34.7481 62.7572Z" fill="#1469C7"/>
</svg>
