<svg width="87" height="96" viewBox="0 0 87 96" fill="none" xmlns="http://www.w3.org/2000/svg">
<path d="M4.14282 28.3714C4.14282 19.5348 11.3063 12.3714 20.1428 12.3714H71C79.8365 12.3714 87 19.5348 87 28.3714V79.2285C87 88.0651 79.8365 95.2285 71 95.2285H20.1428C11.3063 95.2285 4.14282 88.0651 4.14282 79.2285V28.3714Z" fill="black" fill-opacity="0.3"/>
<path d="M0.828613 25.0571C0.828613 16.2206 7.99206 9.05713 16.8286 9.05713H67.6858C76.5223 9.05713 83.6858 16.2206 83.6858 25.0571V75.9143C83.6858 84.7508 76.5223 91.9143 67.6858 91.9143H16.8286C7.99205 91.9143 0.828613 84.7508 0.828613 75.9143V25.0571Z" fill="#D8D8D8"/>
<path d="M0 24.2286C0 15.392 7.16344 8.22858 16 8.22858H66.8571C75.6937 8.22858 82.8571 15.392 82.8571 24.2286V75.0857C82.8571 83.9223 75.6937 91.0857 66.8571 91.0857H16C7.16344 91.0857 0 83.9223 0 75.0857V24.2286Z" fill="white"/>
<path d="M16 8.32819H66.8574C75.6386 8.32833 82.7568 15.4473 82.7568 24.2286V75.086C82.7567 83.8671 75.6385 90.9853 66.8574 90.9854H16C7.21877 90.9854 0.0997616 83.8672 0.0996094 75.086V24.2286L0.105469 23.8184C0.319569 15.363 7.13438 8.54815 15.5898 8.33405L16 8.32819Z" stroke="black" stroke-opacity="0.3" stroke-width="0.2"/>
<path d="M0 25.0571C0 16.2206 7.16344 9.05713 16 9.05713H66.8571C75.6937 9.05713 82.8571 16.2206 82.8571 25.0571V33.9143H0V25.0571Z" fill="#115BAD"/>
<path d="M0 24.2286C0 15.392 7.16344 8.22858 16 8.22858H66.8571C75.6937 8.22858 82.8571 15.392 82.8571 24.2286V33.0857H0V24.2286Z" fill="#1469C7"/>
<rect x="69.7144" y="58.5486" width="8.93617" height="8.93617" fill="#FF0000" fill-opacity="0.3"/>
<rect x="69.7144" y="38.0571" width="8.93617" height="8.93617" fill="#FF0000" fill-opacity="0.3"/>
<rect x="69.7144" y="48.3029" width="8.93617" height="8.93617" fill="#FF0000" fill-opacity="0.3"/>
<rect x="27.6572" y="79.04" width="8.93617" height="8.93617" fill="#1469C7" fill-opacity="0.6"/>
<rect x="38.1716" y="79.04" width="8.93617" height="8.93617" fill="#1469C7" fill-opacity="0.6"/>
<rect x="48.6858" y="79.04" width="8.93617" height="8.93617" fill="#1469C7" fill-opacity="0.6"/>
<rect x="69.7144" y="68.7943" width="8.93617" height="8.93617" fill="#FF0000" fill-opacity="0.3"/>
<rect x="27.6572" y="38.0571" width="8.93617" height="8.93617" fill="#1469C7" fill-opacity="0.6"/>
<rect x="38.1716" y="38.0571" width="8.93617" height="8.93617" fill="#1469C7" fill-opacity="0.6"/>
<rect x="48.6858" y="38.0571" width="8.93617" height="8.93617" fill="#1469C7" fill-opacity="0.6"/>
<rect x="59.2002" y="38.0571" width="8.93617" height="8.93617" fill="#1469C7" fill-opacity="0.6"/>
<rect x="6.62866" y="48.3029" width="8.93617" height="8.93617" fill="#1469C7" fill-opacity="0.6"/>
<rect x="17.1431" y="48.3029" width="8.93617" height="8.93617" fill="#1469C7" fill-opacity="0.6"/>
<rect x="27.6572" y="48.3029" width="8.93617" height="8.93617" fill="#1469C7" fill-opacity="0.6"/>
<rect x="38.1716" y="48.3029" width="8.93617" height="8.93617" fill="#1469C7" fill-opacity="0.6"/>
<rect x="48.6858" y="48.3029" width="8.93617" height="8.93617" fill="#1469C7" fill-opacity="0.6"/>
<rect x="59.2002" y="48.3029" width="8.93617" height="8.93617" fill="#1469C7" fill-opacity="0.6"/>
<rect x="6.62866" y="58.5486" width="8.93617" height="8.93617" fill="#1469C7" fill-opacity="0.6"/>
<rect x="17.1431" y="58.5486" width="8.93617" height="8.93617" fill="#1469C7" fill-opacity="0.6"/>
<rect x="27.6572" y="58.5486" width="8.93617" height="8.93617" fill="#1469C7" fill-opacity="0.6"/>
<rect x="38.1716" y="58.5486" width="8.93617" height="8.93617" fill="#1469C7" fill-opacity="0.6"/>
<rect x="48.6858" y="58.5486" width="8.93617" height="8.93617" fill="#1469C7" fill-opacity="0.6"/>
<rect x="59.2002" y="58.5486" width="8.93617" height="8.93617" fill="#1469C7" fill-opacity="0.6"/>
<rect x="6.62866" y="68.7943" width="8.93617" height="8.93617" fill="#1469C7" fill-opacity="0.6"/>
<rect x="17.1431" y="68.7943" width="8.93617" height="8.93617" fill="#1469C7" fill-opacity="0.6"/>
<rect x="27.6572" y="68.7943" width="8.93617" height="8.93617" fill="#1469C7" fill-opacity="0.6"/>
<rect x="38.1716" y="68.7943" width="8.93617" height="8.93617" fill="#1469C7" fill-opacity="0.6"/>
<rect x="48.6858" y="68.7943" width="8.93617" height="8.93617" fill="#1469C7" fill-opacity="0.6"/>
<rect x="59.2002" y="68.7943" width="8.93617" height="8.93617" fill="#1469C7" fill-opacity="0.6"/>
<rect x="6.62866" y="79.04" width="8.93617" height="8.93617" fill="#1469C7" fill-opacity="0.6"/>
<rect x="17.1431" y="79.04" width="8.93617" height="8.93617" fill="#1469C7" fill-opacity="0.6"/>
<circle cx="14.5001" cy="14.0286" r="3.31429" fill="black" fill-opacity="0.3"/>
<circle cx="14.5001" cy="14.4429" r="3.72857" fill="black" fill-opacity="0.3"/>
<circle cx="27.7572" cy="14.0286" r="3.31429" fill="black" fill-opacity="0.3"/>
<circle cx="27.7571" cy="14.4429" r="3.72857" fill="black" fill-opacity="0.3"/>
<circle cx="41.0142" cy="14.0286" r="3.31429" fill="black" fill-opacity="0.3"/>
<circle cx="41.0142" cy="14.4429" r="3.72857" fill="black" fill-opacity="0.3"/>
<circle cx="54.2713" cy="14.0286" r="3.31429" fill="black" fill-opacity="0.3"/>
<circle cx="54.2715" cy="14.4429" r="3.72857" fill="black" fill-opacity="0.3"/>
<circle cx="67.5286" cy="14.0286" r="3.31429" fill="black" fill-opacity="0.3"/>
<circle cx="67.5286" cy="14.4429" r="3.72857" fill="black" fill-opacity="0.3"/>
<path d="M11.6001 3.67143C11.6001 2.0698 12.8985 0.771423 14.5001 0.771423V0.771423C16.1017 0.771423 17.4001 2.0698 17.4001 3.67142V12.7857C17.4001 14.3873 16.1017 15.6857 14.5001 15.6857V15.6857C12.8985 15.6857 11.6001 14.3873 11.6001 12.7857V3.67143Z" fill="#1B1F26" fill-opacity="0.72"/>
<path d="M24.8572 3.67143C24.8572 2.0698 26.1556 0.771423 27.7572 0.771423V0.771423C29.3588 0.771423 30.6572 2.0698 30.6572 3.67142V12.7857C30.6572 14.3873 29.3588 15.6857 27.7572 15.6857V15.6857C26.1556 15.6857 24.8572 14.3873 24.8572 12.7857V3.67143Z" fill="#1B1F26" fill-opacity="0.72"/>
<path d="M38.1143 3.67143C38.1143 2.0698 39.4126 0.771423 41.0143 0.771423V0.771423C42.6159 0.771423 43.9143 2.0698 43.9143 3.67142V12.7857C43.9143 14.3873 42.6159 15.6857 41.0143 15.6857V15.6857C39.4126 15.6857 38.1143 14.3873 38.1143 12.7857V3.67143Z" fill="#1B1F26" fill-opacity="0.72"/>
<path d="M51.3713 3.67143C51.3713 2.0698 52.6697 0.771423 54.2713 0.771423V0.771423C55.873 0.771423 57.1713 2.0698 57.1713 3.67142V12.7857C57.1713 14.3873 55.873 15.6857 54.2713 15.6857V15.6857C52.6697 15.6857 51.3713 14.3873 51.3713 12.7857V3.67143Z" fill="#1B1F26" fill-opacity="0.72"/>
<path d="M64.6287 3.67143C64.6287 2.0698 65.927 0.771423 67.5287 0.771423V0.771423C69.1303 0.771423 70.4287 2.0698 70.4287 3.67142V12.7857C70.4287 14.3873 69.1303 15.6857 67.5287 15.6857V15.6857C65.927 15.6857 64.6287 14.3873 64.6287 12.7857V3.67143Z" fill="#1B1F26" fill-opacity="0.72"/>
<path d="M13.2571 23.5571C13.2571 22.8707 13.8135 22.3143 14.4999 22.3143H67.5285C68.2149 22.3143 68.7714 22.8707 68.7714 23.5571V23.5571C68.7714 24.2435 68.2149 24.8 67.5285 24.8H14.4999C13.8135 24.8 13.2571 24.2435 13.2571 23.5571V23.5571Z" fill="black" fill-opacity="0.2"/>
<path d="M13.2571 26.8714C13.2571 26.185 13.8135 25.6285 14.4999 25.6285H33.5571C34.2435 25.6285 34.7999 26.185 34.7999 26.8714V26.8714C34.7999 27.5578 34.2435 28.1143 33.5571 28.1143H14.4999C13.8135 28.1143 13.2571 27.5578 13.2571 26.8714V26.8714Z" fill="black" fill-opacity="0.2"/>
</svg>
