<svg width="104" height="108" viewBox="0 0 104 108" fill="none" xmlns="http://www.w3.org/2000/svg">
<path d="M27 92.6219C29.4747 92.6899 31.9537 92.6984 34.4285 92.6899C31.9537 92.6686 29.4747 92.6814 27 92.6219ZM50.7822 92.7197C50.8077 92.7664 50.8332 92.7664 50.863 92.7197C50.8375 92.7197 50.8119 92.7197 50.7822 92.7197ZM66.2387 92.4688C64.1424 92.5198 62.0376 92.5666 59.937 92.6049C58.5253 92.6304 57.1179 92.6516 55.7061 92.6686C58.9718 92.7027 62.2374 92.7367 65.4988 92.6601C67.1061 92.6219 68.7262 92.6474 70.3165 92.3242C68.9941 92.5368 67.5824 92.439 66.2387 92.4688ZM71.8642 91.882C74.5388 90.8615 76.1504 88.9098 76.9583 86.3202C76.1291 88.9098 74.407 90.8275 71.8642 91.882ZM77.2134 41.6005C77.2134 41.6005 77.2134 41.6218 77.2134 41.6346C77.2134 41.6558 77.2134 41.6813 77.2219 41.7026C77.2219 41.6643 77.2219 41.6346 77.2219 41.6005H77.2134ZM77.2559 32.7178C77.2942 36.6426 77.0901 38.5092 77.1922 41.1498C77.375 38.3434 77.2985 35.5285 77.2559 32.7178ZM77.2645 42.8847C77.2645 42.9995 77.2729 43.1015 77.2729 43.1866L77.2645 42.8847ZM77.2262 41.7791C77.2262 41.7791 77.2262 41.7664 77.2177 41.7494C77.2262 41.8939 77.2304 42.047 77.2389 42.2086L77.2262 41.7791ZM77.2729 43.1866C77.2729 43.2291 77.2729 43.2716 77.2729 43.3014C77.2729 43.3397 77.2729 43.3652 77.2729 43.3864V43.3014L77.2645 43.1866H77.2729ZM99.6264 36.5363C99.6732 36.5745 99.72 36.6043 99.7667 36.6383C99.7667 36.6128 99.7667 36.5873 99.7752 36.5618C99.7242 36.5533 99.6774 36.5405 99.6307 36.5363H99.6264Z" fill="#6F9CCD"/>
<path d="M98.474 36.3109C98.8567 36.4045 99.2436 36.4682 99.6306 36.5363C99.6816 36.5448 99.7284 36.5533 99.7752 36.5618C99.7837 36.3662 99.7879 36.1451 99.7752 35.9155C99.7667 35.7581 99.7497 35.5966 99.7242 35.4265C99.6986 35.2649 99.6646 35.1118 99.6263 34.9672C99.7837 34.4102 99.6136 33.8532 99.6136 33.2962C99.6221 27.2071 99.6348 21.118 99.6136 15.029C99.6051 13.8341 99.4478 12.6393 99.3967 11.4402C99.3755 10.8747 99.3117 10.3219 99.1799 9.78186C98.4868 6.97545 96.8837 4.7686 94.6726 2.96144C92.3807 1.08625 89.7231 0.0657406 86.8147 0.0444799C70.091 -0.0533191 53.3674 0.0444801 36.6438 0.0189674C28.5392 0.00621096 20.4304 0.0402277 12.3258 0.0402277C10.9906 0.0402277 9.66825 0.405911 8.43513 0.894906C7.21902 1.37965 6.10921 2.09826 5.08019 2.95294C1.98039 5.52973 0.202989 8.62953 0.126451 12.6606C-0.0989124 24.6218 0.045659 36.6086 0.045659 48.5741C0.045659 59.4255 0.0541716 70.2684 0.0541716 81.1199V94.3313C0.0881887 94.4801 0.13071 94.6289 0.160475 94.7777C0.334812 95.6707 0.436855 96.5806 0.683479 97.4481C1.56792 100.522 3.32406 102.997 5.95188 104.843C8.23952 106.45 10.7823 107.347 13.5632 107.39C30.1338 107.649 46.7383 107.441 63.3259 107.39C68.1946 107.377 73.0633 107.36 77.932 107.343C82.3542 107.33 87.2101 107.989 91.3559 106.199C96.6456 103.907 99.2522 99.774 99.5838 94.1739C99.7667 91.1422 99.6689 88.0849 99.5923 85.0446C99.5626 83.9263 99.6306 82.8165 99.6306 81.7024C99.6136 71.4165 99.6221 61.1349 99.6179 50.8532C99.6264 50.7384 99.6306 50.6193 99.6391 50.5045C99.6306 50.3004 99.6178 50.1048 99.6093 49.9007C99.3287 50.2409 99.0438 50.5853 98.7547 50.9212V50.934C98.6696 51.0318 98.5038 51.0531 98.4868 51.2146C98.0701 51.7674 97.6704 52.3372 97.2409 52.8815C96.2034 54.1911 95.1616 55.4923 94.0986 56.7807C93.3629 57.6736 92.7124 58.6474 91.8407 59.4213C91.2369 59.957 90.4885 60.0336 89.7869 59.7699C89.0088 59.485 88.6303 58.8472 88.5963 57.9798C88.5665 57.2314 88.8599 56.6276 89.2426 56.0493C90.2546 54.5398 91.441 53.1579 92.5721 51.7376C93.6691 50.3557 94.7534 48.9653 95.8675 47.6003C96.6881 46.5926 97.3472 45.4785 98.0828 44.4155C98.3507 44.0285 98.5123 43.5906 98.0913 43.2036C97.394 42.5615 96.6371 42.0003 95.7612 41.6133C95.6251 41.6473 95.506 41.7026 95.4337 41.8302C94.7704 42.957 93.8732 43.9095 93.0823 44.9385C91.0158 47.6088 88.9535 50.2877 86.887 52.958C86.853 52.9963 86.8232 53.0388 86.7891 53.0813L86.7764 53.0983C86.7466 53.1323 86.7169 53.1664 86.6871 53.1961C85.0926 55.2924 83.4937 57.3887 81.8992 59.485C80.496 61.2582 79.0885 63.0271 77.6981 64.8087C77.494 65.0723 77.2729 65.3062 77.0263 65.5188C77.3069 65.6676 77.2899 65.876 77.2176 66.1524C77.0433 66.8497 77.1071 67.5598 77.1879 68.2614C77.1411 70.5916 77.2814 72.9175 77.2091 75.2519C77.1538 77.1144 77.2601 78.9811 77.2942 80.8477C77.3027 81.4473 77.1793 82.0383 77.2006 82.6464C77.2346 83.6882 77.3877 84.7852 77.1283 85.7717C77.0815 85.9546 77.0305 86.1331 76.971 86.3117C76.1631 88.9013 74.5515 90.8573 71.8769 91.8735C71.8089 91.9033 71.7366 91.9331 71.6686 91.9586C71.2391 92.1287 70.7841 92.2392 70.3292 92.3157C68.7431 92.6389 67.1188 92.6091 65.5115 92.6517C62.2501 92.7325 58.9845 92.6942 55.7188 92.6602C54.1073 92.6814 52.4915 92.6984 50.8757 92.7112C50.8501 92.758 50.8246 92.758 50.7949 92.7112C45.4414 92.7537 40.088 92.7452 34.7346 92.6857C34.6368 92.6857 34.539 92.6857 34.4412 92.6857C31.9664 92.6942 29.4874 92.6857 27.0127 92.6176C26.5705 92.6091 26.1283 92.5964 25.686 92.5794C24.9207 92.5539 24.1808 92.4008 23.4579 92.2094C21.9059 91.8097 20.6345 90.9296 19.5927 89.7304C18.2235 88.1444 17.3561 86.35 17.3561 84.2027C17.3561 63.869 17.3561 43.5353 17.3774 23.1973C17.3774 22.5 17.4624 21.7984 17.6835 21.0968C18.8401 17.4442 22.3056 14.995 26.0347 14.9865C40.0795 14.9567 54.12 14.9695 68.1648 14.978C68.8196 14.978 69.4872 15.0247 70.1208 15.1821C71.6133 15.5605 72.9782 16.1941 74.1773 17.2273C76.0355 18.8261 77.1581 20.7651 77.1963 23.2526C77.2219 24.9365 77.1964 26.6246 77.2048 28.3127C77.2134 29.6733 77.2559 31.034 77.2729 32.3904C77.2729 32.501 77.2729 32.6073 77.2729 32.7136C77.3154 35.52 77.392 38.3349 77.2091 41.1456C77.2091 41.1881 77.2176 41.2859 77.2176 41.4092C77.2176 41.4645 77.2261 41.524 77.2261 41.5878V41.5963C77.2261 41.6303 77.2261 41.6643 77.2261 41.6984V41.7451C77.2261 41.7621 77.2346 41.7749 77.2346 41.7749L77.2474 42.2044L77.2559 42.3617L77.2644 42.6083L77.2729 42.8805L77.2814 43.1824L77.2899 43.2972C77.3834 43.1398 77.477 42.9868 77.562 42.8252C77.7831 42.4212 78.1743 42.2724 78.4167 41.9407C79.08 41.1328 79.7391 40.3164 80.4152 39.5128C82.3457 37.2209 84.2804 34.9375 86.2194 32.6541C86.938 31.8079 87.7204 31.0298 88.6601 30.4132C90.3312 29.3289 92.0448 29.4225 93.6776 30.3664C94.898 31.0723 96.046 31.9312 97.024 32.9815C97.2196 33.1941 97.4365 33.3982 97.5088 33.6959C97.7299 34.3762 98.0488 35.0395 97.985 35.7836C97.951 36.1621 98.2189 36.2429 98.4783 36.3067L98.474 36.3109ZM77.5025 65.5103C77.5238 65.5018 77.5663 65.5316 77.596 65.5486C77.5833 65.5783 77.5748 65.6294 77.5535 65.6379C77.5323 65.6464 77.494 65.6166 77.46 65.5996C77.4727 65.5698 77.4812 65.5188 77.5025 65.5103Z" fill="#6F9CCD"/>
<path d="M62.08 67.2962C62.9389 64.6386 63.7893 61.9768 64.6653 59.3235C65.0224 58.2434 65.673 57.3249 66.4001 56.4745C68.2158 54.3485 69.9294 52.1416 71.7195 50.0028C72.7741 48.7399 73.8711 47.5025 74.8533 46.1759C75.2233 45.6699 75.7165 45.2574 76.1503 44.7982C76.5797 44.3432 76.9539 43.8372 77.2771 43.3099L77.2686 43.1951L77.2601 42.8932L77.2516 42.6211L77.2431 42.3745L77.2346 42.2171L77.2218 41.7877C77.2218 41.7877 77.2218 41.7749 77.2133 41.7579V41.7154C77.2133 41.6771 77.2133 41.6473 77.2133 41.6133V41.6048C77.2133 41.5368 77.2048 41.4773 77.2048 41.4262C77.1835 41.3497 77.1835 41.2561 77.1963 41.1626C77.3791 38.3562 77.3026 35.5413 77.2601 32.7306C77.2601 32.6201 77.2601 32.5138 77.2601 32.4075C77.2431 31.051 77.2005 29.6903 77.192 28.3297C77.1835 26.6416 77.209 24.9535 77.1835 23.2696C77.1453 20.7821 76.0227 18.8474 74.1645 17.2444C72.9654 16.2111 71.6005 15.5775 70.108 15.1991C69.4787 15.0417 68.8068 14.995 68.152 14.995C54.1072 14.9865 40.0667 14.9737 26.0219 15.0035C22.2928 15.012 18.8273 17.4612 17.6707 21.1138C17.4496 21.8154 17.3645 22.517 17.3645 23.2143C17.3433 43.548 17.3475 63.8817 17.3433 84.2197C17.3433 86.367 18.2107 88.1614 19.5799 89.7475C20.6217 90.9508 21.8973 91.8267 23.4451 92.2264C24.1679 92.4135 24.9078 92.5666 25.6732 92.5964C26.1154 92.6134 26.5576 92.6262 26.9999 92.6347C29.4746 92.7027 31.9536 92.7112 34.4284 92.7027C37.0009 92.6942 39.5692 92.6772 42.1417 92.6942C45.0161 92.7154 47.8948 92.7027 50.7693 92.7027C50.8076 92.7027 50.8458 92.7027 50.8841 92.7027C51.5772 92.5836 52.266 92.6219 52.9676 92.6644C53.733 92.7112 54.5069 92.6729 55.2808 92.6814C55.4254 92.6814 55.5657 92.6814 55.7103 92.6814C58.9759 92.7154 62.2415 92.7495 65.5029 92.6729C67.1102 92.6347 68.7303 92.6602 70.3206 92.337C70.8096 92.2392 71.2943 92.1074 71.7705 91.9331C71.8046 91.9203 71.8386 91.9075 71.8684 91.8948C74.543 90.8743 76.1545 88.9225 76.9624 86.333C77.0177 86.1544 77.073 85.9758 77.1197 85.793C77.3791 84.8107 77.226 83.7137 77.192 82.6677C77.1708 82.0596 77.2898 81.4686 77.2856 80.869C77.2558 79.0023 77.1453 77.1356 77.2005 75.2732C77.2728 72.9388 77.1325 70.6129 77.1793 68.2827C77.0985 67.5811 77.0347 66.8667 77.209 66.1736C77.2771 65.893 77.2983 65.6889 77.0177 65.5401C76.8561 65.7059 76.635 65.7059 76.4266 65.7314C76.1715 66.5351 75.5039 67.0113 74.9214 67.5301C73.2716 68.9843 71.3156 69.975 69.4276 71.0763C67.5992 72.1436 65.7495 73.1726 63.8871 74.1847C63.2535 74.5248 62.6072 74.865 61.9184 75.1159C61.4251 75.2987 60.9914 75.3667 60.596 74.9883C60.1707 74.5886 60.1665 74.0698 60.2728 73.5341C60.7023 71.408 61.4166 69.367 62.08 67.309V67.2962ZM40.9511 49.5776C37.6174 49.5776 34.288 49.5776 30.9629 49.5776C29.4959 49.5776 28.5817 48.7739 28.3818 47.3409C28.2075 46.1248 28.9984 44.9555 30.1762 44.6323C30.7077 44.4878 31.235 44.424 31.7878 44.424C38.2723 44.4325 44.7568 44.424 51.2455 44.4325C52.8358 44.4325 53.8733 45.2446 54.0094 46.8137C54.137 48.3019 53.0569 49.6116 51.3561 49.6031C49.8551 49.5946 48.3583 49.5861 46.8573 49.5818C44.8886 49.5818 42.9198 49.5818 40.9554 49.5818L40.9511 49.5776ZM42.2395 62.925C42.2268 64.2432 41.0064 65.4635 39.6925 65.4678C36.8308 65.4678 33.9691 65.4763 31.1074 65.4593C30.4696 65.4593 29.836 65.3615 29.381 64.8215C28.1777 64.1028 28.1564 61.7259 29.1472 61.0753C29.3981 60.48 29.9296 60.3355 30.4781 60.327C33.5949 60.3099 36.7075 60.3014 39.8243 60.327C41.2403 60.3355 42.2523 61.4708 42.2395 62.9293V62.925ZM54.4346 82.4465C53.0952 82.9143 51.7685 83.4203 50.3143 83.297C50.2675 83.297 50.2208 83.297 50.1782 83.297C48.8346 83.4628 47.7673 82.8122 46.8531 81.9873C46.3173 81.5111 45.9941 80.784 45.7518 80.0739C45.4201 79.0874 45.1395 78.0881 44.625 77.1654C44.3826 76.7317 44.0679 76.7359 43.7235 76.8252C42.9071 77.0463 42.18 77.4673 41.4316 77.8627C39.701 78.7897 38.3105 80.1589 36.7883 81.3665C36.1292 81.8895 34.8025 82.0681 34.2157 81.6514C33.3313 81.0263 32.9359 80.0568 33.2037 78.9853C33.4929 77.8245 34.3816 77.1611 35.1895 76.4851C36.7245 75.2052 38.3998 74.1124 40.1942 73.2152C42.0184 72.3095 43.9233 71.846 45.9644 72.0076C47.1465 72.0969 48.5752 73.3682 48.9069 74.5759C49.1917 75.6006 49.5022 76.6254 49.8423 77.6289C50.1655 78.5856 50.6205 78.7259 51.5899 78.4368C52.7593 78.0839 53.9244 77.6629 55.1405 77.5183C56.1227 77.3993 56.9902 77.8075 57.5132 78.8407C57.8661 79.5338 57.8151 80.4353 57.0284 81.1241C56.263 81.796 55.3573 82.1191 54.4304 82.4423L54.4346 82.4465ZM49.0387 34.1253C48.4561 34.1338 47.8736 34.1508 47.291 34.1508C41.9249 34.1508 36.5586 34.1508 31.1882 34.1381C31.0096 34.1381 30.8013 34.2401 30.6482 34.0403C29.33 33.7596 28.3308 32.6711 28.3265 31.489C28.318 30.4557 29.1727 29.3204 30.1422 29.0738C30.78 28.9122 31.3923 28.8824 32.0216 28.8824C38.74 28.8739 45.4541 28.8824 52.1682 28.8824C52.2873 28.8824 52.4021 28.8739 52.5212 28.8654C53.108 28.6953 53.699 28.7081 54.29 28.8569H54.5112C54.7493 28.7124 54.9874 28.7124 55.2298 28.8569H56.3821C56.4671 28.7591 56.5522 28.7634 56.633 28.8569C56.9774 28.8569 57.3218 28.8569 57.6662 28.8654C57.7513 28.7634 57.8363 28.7634 57.9171 28.8654H58.4826C59.5032 28.6996 60.5194 28.6953 61.5399 28.8654C62.1522 29.1758 62.9219 29.2481 63.2791 29.9752C63.734 30.8937 63.8276 31.8292 63.3046 32.7349C62.8071 33.6023 62.0587 34.1253 61.0169 34.1253C57.0284 34.1253 53.0357 34.1168 49.0472 34.1168L49.0387 34.1253ZM99.8559 36.5745L99.7794 35.9155C99.7921 36.1493 99.7879 36.3662 99.7794 36.5618C99.8049 36.5618 99.8304 36.5703 99.8559 36.5745Z" fill="white"/>
<path d="M102.739 45.8017C101.842 46.9455 101.047 48.1659 100.052 49.2331C99.9665 49.3267 99.924 49.4628 99.8602 49.5818C99.7326 49.6541 99.6646 49.7732 99.6093 49.905C99.3287 50.2451 99.0438 50.5896 98.7547 50.9255V50.9382C98.6696 51.036 98.5038 51.0573 98.4868 51.2189C98.0701 51.7717 97.6704 52.3415 97.2409 52.8857C96.2034 54.1954 95.1616 55.4965 94.0986 56.7849C93.363 57.6779 92.7124 58.6516 91.8407 59.4255C91.2369 59.9613 90.4885 60.0378 89.7869 59.7742C89.0088 59.4893 88.6303 58.8515 88.5963 57.984C88.5666 57.2357 88.86 56.6319 89.2427 56.0536C90.2547 54.5441 91.441 53.1621 92.5721 51.7419C93.6691 50.36 94.7534 48.9695 95.8675 47.6046C96.6881 46.5968 97.3472 45.4828 98.0828 44.4197C98.3507 44.0328 98.5123 43.5948 98.0913 43.2079C97.394 42.5658 96.6371 42.0045 95.7612 41.6176C95.7144 41.422 95.825 41.2902 95.9483 41.1583C96.7689 40.3249 97.4237 39.3767 98.0105 38.3689C98.2487 37.9607 98.2997 37.5355 98.2699 37.0465C98.2402 36.5405 97.7427 36.3917 97.6576 35.975C97.53 35.3542 97.4365 34.7249 97.2069 34.1253C97.1218 33.9042 97.1091 33.6321 97.5088 33.7044C97.7299 34.3847 98.0488 35.048 97.985 35.7922C97.951 36.1706 98.2189 36.2514 98.4783 36.3152C98.861 36.4087 99.2479 36.4725 99.6349 36.5405C99.6816 36.5788 99.7284 36.6086 99.7752 36.6426C99.7752 36.6171 99.7752 36.5916 99.7837 36.566C99.8092 36.566 99.8347 36.5745 99.8602 36.5788C100.26 36.9913 100.868 37.1018 101.263 37.527C101.297 37.6461 101.408 37.6291 101.493 37.6546C102.407 38.5348 103.317 39.449 103.717 40.6864C104.316 42.5488 103.951 44.2624 102.743 45.8017H102.739Z" fill="#0B3C71"/>
<path d="M99.7751 36.566C99.7751 36.5916 99.7751 36.6171 99.7665 36.6426C99.7198 36.6086 99.673 36.5745 99.6262 36.5405C99.6772 36.549 99.724 36.5575 99.7708 36.566H99.7751Z" fill="#6F9CCD"/>
<path d="M101.484 37.6588C101.399 37.6333 101.289 37.6503 101.255 37.5313C101.45 37.3612 101.463 37.5143 101.484 37.6588Z" fill="white"/>
<path d="M58.4826 107.441C58.4699 107.513 58.4614 107.606 58.3636 107.606C58.2658 107.606 58.2573 107.513 58.2488 107.436C58.3253 107.436 58.4061 107.436 58.4826 107.436V107.441Z" fill="white"/>
<path d="M70.7502 107.441C70.7375 107.513 70.729 107.606 70.6354 107.606C70.5419 107.606 70.5291 107.513 70.5164 107.441H70.7502Z" fill="white"/>
<path d="M98.0063 38.3689C97.4237 39.3724 96.7647 40.3249 95.944 41.1583C95.8164 41.2859 95.7101 41.422 95.7569 41.6176C95.6208 41.6516 95.5018 41.7069 95.4295 41.8344C94.7662 42.9612 93.869 43.9137 93.0781 44.9427C91.0115 47.6131 88.9493 50.2919 86.8827 52.9623C86.8487 53.0005 86.8189 53.0431 86.7849 53.0856L86.7722 53.1026C86.7424 53.1366 86.7126 53.1706 86.6829 53.2004C85.0883 55.2967 83.4895 57.393 81.8949 59.4893C80.4917 61.2624 79.0843 63.0313 77.6939 64.813C77.4898 65.0766 77.2686 65.3105 77.022 65.5231C76.8604 65.6889 76.6393 65.6889 76.431 65.7144C75.8484 65.2169 75.2872 64.6939 74.6833 64.2304C71.9365 62.1341 69.1853 60.0506 66.4215 57.984C66.0515 57.7034 66.0515 57.4865 66.3236 57.1846C66.6723 56.7934 67.038 56.4192 67.3697 56.011C69.0705 53.9317 70.6864 51.7844 72.4595 49.7647C73.514 48.5613 74.543 47.3324 75.6018 46.1291C76.6393 44.9598 77.4175 43.5863 78.5358 42.485C78.7356 42.2894 78.7229 42.0598 78.4125 41.9407C79.0758 41.1328 79.7349 40.3164 80.411 39.5128C82.3414 37.2209 84.2762 34.9375 86.2151 32.6541C86.9337 31.8079 87.7161 31.0298 88.6558 30.4132C90.3269 29.3289 92.0405 29.4225 93.6734 30.3664C94.8937 31.0723 96.0418 31.9312 97.0198 32.9815C97.2154 33.1941 97.4322 33.3982 97.5045 33.6959C97.1048 33.6236 97.1176 33.9 97.2026 34.1168C97.4322 34.7164 97.5258 35.3457 97.6534 35.9665C97.7384 36.3832 98.2359 36.532 98.2657 37.038C98.2954 37.5313 98.2444 37.9522 98.0063 38.3604V38.3689Z" fill="#1469C7"/>
<path d="M77.596 65.5486C77.5833 65.5784 77.5748 65.6294 77.5535 65.6379C77.5323 65.6464 77.494 65.6166 77.46 65.5996C77.4727 65.5698 77.4812 65.5188 77.5025 65.5103C77.5238 65.5018 77.5663 65.5316 77.596 65.5486Z" fill="white"/>
<path d="M63.2919 32.7477C62.7944 33.6151 62.046 34.1381 61.0042 34.1381C57.0157 34.1381 53.023 34.1296 49.0345 34.1296C48.4519 34.1381 47.8694 34.1551 47.2869 34.1551C41.9207 34.1551 36.5545 34.1551 31.184 34.1424C31.0054 34.1424 30.7971 34.2444 30.644 34.0446C29.3258 33.7639 28.3266 32.6754 28.3223 31.4933C28.3138 30.46 29.1685 29.3247 30.138 29.0781C30.7758 28.9165 31.3881 28.8867 32.0174 28.8867C38.7358 28.8782 45.4499 28.8867 52.164 28.8867C52.2831 28.8867 52.3979 28.8782 52.517 28.8697C53.108 28.908 53.6948 28.9165 54.2858 28.8612H54.507C54.7451 28.908 54.9832 28.908 55.2256 28.8612H56.3779C56.463 28.8612 56.548 28.8612 56.6288 28.8612C56.9732 28.8612 57.3176 28.8612 57.662 28.8697H58.4827C59.5032 28.8697 60.5195 28.8697 61.54 28.8697C62.1523 29.1801 62.9219 29.2524 63.2791 29.9795C63.7341 30.898 63.8276 31.8334 63.3046 32.7392L63.2919 32.7477Z" fill="#1469C7"/>
<path d="M67.3656 56.0196C69.0664 53.9403 70.6822 51.7929 72.4554 49.7732C73.5099 48.5698 74.5389 47.341 75.5977 46.1376C76.6352 44.9683 77.4134 43.5948 78.5317 42.4935C78.7315 42.2979 78.7188 42.0683 78.4084 41.9492C78.1702 42.2852 77.7748 42.4297 77.5537 42.8337C77.4686 42.991 77.3751 43.1484 77.2815 43.3057C76.9584 43.8414 76.5842 44.3432 76.1547 44.7982C75.721 45.2574 75.2277 45.6699 74.8578 46.1759C73.8756 47.5025 72.7785 48.7399 71.724 50.0028C69.9338 52.1416 68.2202 54.3527 66.4046 56.4745C65.6775 57.325 65.0226 58.2434 64.6697 59.3235C63.7938 61.9768 62.9433 64.6386 62.0844 67.2962C61.4211 69.3542 60.7025 71.3953 60.2773 73.5213C60.171 74.0571 60.1795 74.5716 60.6004 74.9756C61.0001 75.354 61.4296 75.286 61.9228 75.1031C62.6117 74.8523 63.258 74.5121 63.8916 74.1719C65.754 73.1642 67.6037 72.1351 69.4321 71.0636C71.3158 69.9666 73.276 68.9715 74.9259 67.5173C75.5084 66.9986 76.176 66.5223 76.4311 65.7187C75.8486 65.2212 75.2873 64.6982 74.6835 64.2347C71.9366 62.1384 69.1855 60.0548 66.4216 57.9883C66.0517 57.7077 66.0516 57.4908 66.3238 57.1889C66.6725 56.7977 67.0381 56.4235 67.3698 56.0153L67.3656 56.0196ZM66.4641 71.8332C66.9106 72.1564 66.4301 72.3222 66.209 72.4158C65.2523 72.807 64.3848 73.3512 63.5259 73.9168C63.139 74.1677 62.7137 74.3633 62.2928 74.5546C62.0461 74.6652 61.7825 74.7502 61.5359 74.7162C60.8683 74.7162 60.6004 74.4228 60.711 73.802C60.9576 72.3988 61.217 70.9913 61.8506 69.6944C61.9696 69.4563 61.9654 69.2097 61.9739 68.9588C61.9824 68.793 62.0674 68.6526 62.212 68.5846C62.3863 68.5038 62.4331 68.6909 62.5351 68.7674C63.4111 69.4393 64.2743 70.1281 65.163 70.783C65.6137 71.1146 66.0091 71.5101 66.4684 71.8375L66.4641 71.8332Z" fill="#6F9CCD"/>
<path d="M51.3476 49.5988C49.8466 49.5903 48.3498 49.5818 46.8488 49.5776C44.8801 49.5776 42.9114 49.5776 40.9469 49.5776C37.6132 49.5776 34.2838 49.5776 30.9586 49.5776C29.4916 49.5776 28.5774 48.7739 28.3776 47.3409C28.2032 46.1248 28.9941 44.9555 30.172 44.6323C30.7035 44.4878 31.2308 44.424 31.7835 44.424C38.268 44.4325 44.7525 44.424 51.2413 44.4325C52.8316 44.4325 53.8691 45.2446 54.0052 46.8137C54.1327 48.3019 53.0527 49.6116 51.3519 49.6031L51.3476 49.5988Z" fill="#6F9CCD"/>
<path d="M42.2397 62.9292C42.2269 64.2474 41.0066 65.4678 39.6926 65.472C36.831 65.472 33.9693 65.4805 31.1076 65.4635C30.4698 65.4635 29.8362 65.3657 29.3812 64.8257C28.1779 64.1071 28.1566 61.7301 29.1474 61.0796C29.3982 60.4843 29.9298 60.3397 30.4783 60.3312C33.5951 60.3142 36.7077 60.3057 39.8245 60.3312C41.2404 60.3397 42.2524 61.475 42.2397 62.9335V62.9292Z" fill="#6F9CCD"/>
<path d="M61.5273 28.8739C60.5067 28.8739 59.4905 28.8739 58.47 28.8739C59.4905 28.7081 60.5067 28.7038 61.5273 28.8739Z" fill="#6F9CCD"/>
<path d="M54.2774 28.8612C53.6864 28.9164 53.0996 28.9079 52.5085 28.8697C53.0953 28.6996 53.6864 28.7123 54.2774 28.8612Z" fill="#6F9CCD"/>
<path d="M55.2171 28.8612C54.979 28.9079 54.7409 28.9079 54.4985 28.8612C54.7367 28.7166 54.9748 28.7166 55.2171 28.8612Z" fill="#6F9CCD"/>
<path d="M57.9044 28.8697H57.6536C57.7386 28.7676 57.8236 28.7676 57.9044 28.8697Z" fill="#6F9CCD"/>
<path d="M56.6203 28.8654C56.5352 28.8654 56.4502 28.8654 56.3694 28.8654C56.4544 28.7676 56.5395 28.7719 56.6203 28.8654Z" fill="#6F9CCD"/>
<path d="M50.3101 83.3012C50.2634 83.3012 50.2166 83.3012 50.1741 83.3012C50.2208 83.2332 50.2676 83.2374 50.3101 83.3012Z" fill="#6F9CCD"/>
<path d="M50.88 92.6857C50.88 92.6857 50.8714 92.7069 50.8629 92.7197C50.8374 92.7665 50.8119 92.7665 50.7821 92.7197C50.7736 92.7112 50.7694 92.6984 50.7651 92.6857C50.8034 92.6857 50.8417 92.6857 50.88 92.6857Z" fill="#6F9CCD"/>
<path d="M66.2089 72.4115C65.2522 72.8027 64.3848 73.347 63.5258 73.9125C63.1389 74.1634 62.7137 74.359 62.2927 74.5503C62.0461 74.6609 61.7825 74.7459 61.5358 74.7119C60.8683 74.7119 60.6004 74.4185 60.7109 73.7977C60.9575 72.3945 61.2169 70.987 61.8505 69.6901C61.9696 69.452 61.9653 69.2054 61.9738 68.9545C61.9823 68.7887 62.0673 68.6484 62.2119 68.5803C62.3863 68.4995 62.433 68.6866 62.5351 68.7632C63.411 69.435 64.2742 70.1238 65.1629 70.7787C65.6136 71.1103 66.0091 71.5058 66.4683 71.8332C66.9148 72.1564 66.4343 72.3222 66.2132 72.4157L66.2089 72.4115Z" fill="#1469C7"/>
<path d="M57.0327 81.1326C56.2673 81.8045 55.3616 82.1276 54.4346 82.4508C53.0952 82.9185 51.7685 83.4245 50.3143 83.3012C50.2718 83.2332 50.225 83.2332 50.1782 83.3012C48.8346 83.467 47.7673 82.8165 46.8531 81.9916C46.3173 81.5153 45.9941 80.7882 45.7517 80.0781C45.4201 79.0916 45.1395 78.0924 44.6249 77.1696C44.3826 76.7359 44.0679 76.7402 43.7235 76.8295C42.9071 77.0506 42.18 77.4715 41.4316 77.867C39.701 78.794 38.3105 80.1631 36.7883 81.3707C36.1292 81.8938 34.8025 82.0723 34.2157 81.6556C33.3313 81.0306 32.9358 80.0611 33.2037 78.9896C33.4929 77.8287 34.3816 77.1654 35.1895 76.4893C36.7245 75.2094 38.3998 74.1166 40.1942 73.2194C42.0184 72.3137 43.9233 71.8502 45.9644 72.0118C47.1464 72.1011 48.5752 73.3725 48.9068 74.5801C49.1917 75.6049 49.5022 76.6296 49.8423 77.6331C50.1655 78.5899 50.6205 78.7302 51.5899 78.441C52.7593 78.0881 53.9244 77.6671 55.1405 77.5226C56.1227 77.4035 56.9901 77.8117 57.5132 78.845C57.8661 79.5381 57.8151 80.4395 57.0284 81.1284L57.0327 81.1326Z" fill="#1469C7"/>
</svg>
