<svg width="327" height="250" viewBox="0 0 327 250" fill="none" xmlns="http://www.w3.org/2000/svg">
<path d="M316.51 175.268V175.298C316.51 175.298 316.48 175.268 316.462 175.25C316.462 175.25 316.432 175.214 316.42 175.202C316.372 175.153 316.329 175.105 316.287 175.051C316.113 174.852 315.975 174.647 315.854 174.43C315.812 174.358 315.776 174.292 315.74 174.213C315.271 173.256 315.211 172.171 315.253 171.062V171.026L315.295 171.081C316.233 172.322 316.426 173.774 316.51 175.268Z" fill="#176BB4"/>
<path d="M317.093 177.708L317.081 177.696H317.075C317.075 177.696 317.039 177.672 317.021 177.654C316.143 177.033 316.516 176.087 316.462 175.25V175.232C316.462 175.232 316.492 175.256 316.51 175.268C317.388 175.906 316.871 176.901 317.093 177.708Z" fill="#176BB4"/>
<path d="M315.295 171.081C315.295 171.081 315.265 171.068 315.253 171.062C315.144 171.02 315.054 170.966 314.982 170.906C314.958 170.882 314.94 170.864 314.922 170.846C314.898 170.821 314.88 170.803 314.862 170.779C314.844 170.755 314.825 170.731 314.813 170.707C314.753 170.611 314.717 170.508 314.693 170.394C314.681 170.351 314.675 170.303 314.669 170.261C314.651 170.123 314.645 169.972 314.645 169.821C315.331 169.996 315.198 170.599 315.295 171.081Z" fill="#176BB4"/>
<path d="M317.514 178.25C317.358 178.051 317.196 177.853 317.039 177.648C317.196 177.847 317.358 178.045 317.514 178.25Z" fill="#176BB4"/>
<path d="M324.907 234.342C324.907 234.372 324.907 234.384 324.907 234.402L324.955 234.33C324.955 234.33 324.925 234.342 324.913 234.342H324.907ZM317.075 177.69L317.081 177.696H317.075V177.69ZM316.462 175.232V175.25C316.462 175.25 316.492 175.28 316.51 175.298L316.462 175.232ZM315.253 171.026V171.062C315.253 171.062 315.283 171.075 315.295 171.081L315.253 171.026ZM162.433 134.931C162.433 134.931 162.457 134.925 162.469 134.925V134.895C162.469 134.895 162.445 134.919 162.433 134.931Z" fill="#287DBF"/>
<path d="M326.279 218.021C325.274 208.321 323.596 198.928 320.931 189.487C320.456 187.794 319.963 186.113 319.469 184.426C316.51 174.376 313.755 164.435 309.797 154.741C308.058 150.481 305.808 146.517 302.993 142.866C292.954 129.864 277.885 125.092 263.484 118.549C258.606 117.061 254.064 114.856 249.787 112.091C249.769 113.603 249.439 115.049 248.969 116.483C246.509 123.996 243.91 131.455 240.199 138.474C237.751 143.77 235.29 149.065 232.854 154.367C228.439 163.965 224.048 173.575 219.62 183.167C217.942 186.806 215.939 190.282 214.628 194.102C214.369 194.072 214.116 194.041 213.864 194.017C212.781 189.493 211.506 185.004 210.658 180.431C209.094 172.045 207.415 163.646 206.513 155.169C206.206 152.289 205.701 149.433 205.394 146.553C205.027 143.095 205.611 139.564 204.769 136.166C204.492 136.281 204.516 136.672 204.564 136.967C204.684 137.709 204.113 137.931 203.848 137.202C203.686 136.751 204.035 135.997 204.083 135.534C204.287 133.521 204.089 131.382 204.095 129.358C204.095 125.237 204.095 121.122 204.095 117.001C204.095 116.941 204.209 116.844 204.281 116.832C204.372 116.814 204.474 116.874 204.57 116.898C205.388 116.429 205.057 115.645 205.093 114.964C201.021 117.115 196.906 119.17 192.503 120.568C192.317 120.519 192.136 120.531 191.956 120.616C189.724 122.026 186.692 122.743 184.214 123.628C181.249 124.695 178.319 125.87 175.444 127.159C170.505 129.37 165.669 131.949 161.47 135.395C157.043 139.022 154.348 143.541 151.07 148.114C151.07 114.916 151.076 82.225 151.07 49.5278C151.07 43.7439 148.699 40.4904 143.213 38.695C142.486 39.4602 141.541 39.183 140.681 39.1891C132.35 39.2011 124.018 39.1891 115.693 39.183C115.717 42.4184 115.747 45.6478 115.777 48.8832C122.34 48.8832 128.903 48.9012 135.466 48.8651C137.415 48.8591 139.009 49.3169 139.749 51.3353C139.887 51.3293 140.031 51.3232 140.17 51.3293C141.258 52.1667 140.807 53.3657 140.807 54.402C140.831 113.741 140.831 173.087 140.807 232.432C140.807 233.456 141.313 234.674 140.122 235.457C139.989 235.457 139.863 235.457 139.731 235.457C139.37 236.397 138.738 237.071 137.788 237.439V237.867C137.054 238.891 135.965 238.505 135.021 238.511C95.0846 238.523 55.1547 238.523 15.2188 238.517C14.6293 238.517 14.0398 238.469 13.4503 238.421C13.3901 238.421 13.2999 238.301 13.2879 238.222C13.2759 238.132 13.342 238.035 13.3721 237.939C13.342 237.813 13.324 237.686 13.324 237.559C12.145 237.276 11.375 236.517 10.8757 235.445C10.7434 235.445 10.6111 235.445 10.4847 235.457C9.45611 234.878 9.78695 233.878 9.78094 233.029C9.7689 173.069 9.78094 113.109 9.78094 53.1548C9.78094 52.7572 9.82304 52.3656 9.86515 51.9739C9.87117 51.9077 9.98546 51.8173 10.0576 51.7992C10.1479 51.7872 10.2501 51.8414 10.3464 51.8715C10.4727 51.8474 10.599 51.8354 10.7193 51.8354C11.3209 49.5158 12.9089 48.8229 15.1827 48.853C21.565 48.9374 27.9533 48.8952 34.3416 48.9012C34.4018 46.0996 34.4619 43.2981 34.5221 40.4904C34.4559 40.0506 34.3837 39.6108 34.3176 39.177C25.1321 39.1891 15.9467 39.2011 6.75521 39.2132C3.37458 40.5507 1.17297 42.9546 0.21051 46.4792C1.17898 47.6239 0.709784 48.9916 0.709784 50.2388C0.739861 112.741 0.739861 175.238 0.721815 237.734C0.721815 238.795 1.1068 239.957 0.228556 240.897C0.962429 244.705 3.00163 247.446 6.68303 248.856C8.28913 247.916 9.91929 248.856 11.5314 248.856C54.2464 248.778 96.9614 248.79 139.676 248.814C140.837 248.814 142.083 248.422 143.165 249.224C148.555 247.356 151.009 243.319 151.082 236.198C154.216 234.734 157.53 235.752 160.748 235.553C162.583 235.439 163.407 235.529 163.202 233.017C161.999 218.575 160.556 204.115 161.344 189.607C161.813 180.865 163.046 172.183 164.742 163.586C164.977 162.387 165.609 161.82 166.836 162.067C168.111 162.32 167.979 163.339 167.822 164.206C166.33 172.334 165.007 180.516 164.484 188.746C164.075 195.108 163.894 201.536 164.754 207.929C165.284 211.881 164.839 215.894 165.404 219.894C166.012 224.124 166.078 228.456 166.054 232.746C166.036 235.095 166.866 235.571 169.019 235.553C180.833 235.463 192.654 235.499 204.474 235.529C205.52 235.529 206.693 235.089 207.59 236.071C207.782 236.126 207.975 236.18 208.167 236.234C209.966 233.348 211.764 230.468 213.563 227.582C211.247 224.811 212.889 222.395 214.249 219.955C213.551 219.497 213.599 218.78 213.599 218.081C213.599 211.194 213.581 204.302 213.605 197.415C213.605 196.705 213.226 195.524 214.393 195.524C215.332 195.524 215.434 196.584 215.428 197.403C215.368 202.687 216.312 207.929 216.023 213.225C215.963 214.267 215.644 215.454 216.655 216.31C218.658 213.984 221.19 212.55 224.09 211.592C225.461 211.134 226.701 210.261 228 209.574C236.241 199.669 244.392 189.716 252.585 179.768C254.311 177.672 260.2 172.087 260.543 177.931C260.663 180.022 260.014 181.805 258.696 183.389C258.756 184.161 258.816 184.938 258.149 185.522C252.308 192.547 246.473 199.572 240.638 206.597C244.56 206.302 247.935 207.929 251.231 209.73C254.335 211.423 257.385 213.213 260.459 214.966C261.361 212.749 263.418 212.405 265.373 212.068C270.474 211.2 275.587 210.387 280.712 209.682C282.168 209.483 282.794 209.375 282.409 207.549C280.159 196.915 278.078 186.245 275.948 175.587C275.611 173.93 275.208 172.279 275.01 170.599C274.908 169.725 274.402 168.363 275.924 168.201C277.085 168.074 277.211 169.171 277.398 170.08C278.775 176.72 280.219 183.347 281.555 189.993C282.655 195.469 283.636 200.964 284.652 206.453C284.983 208.236 285.699 209.152 287.81 209.092C291.907 208.989 295.955 208.116 300.07 208.405C301.58 208.513 303.553 208.327 303.487 210.309C303.438 211.893 301.55 212.08 300.13 212.044C290.415 211.761 280.821 212.96 271.262 214.478C268.808 214.864 266.312 215.129 264.05 216.316C269.007 223.365 269.837 231.155 268.417 239.439C267.93 242.283 265.548 243.59 264.134 245.663C263.893 246.012 268.694 247.332 269.169 247.35C273.548 247.489 278.005 246.808 282.403 246.796C287.029 246.784 291.666 247.019 296.292 246.91C303.829 246.729 312.089 246.247 318.483 241.771C325.352 236.969 327.229 228.124 326.495 220.214C326.429 219.485 326.357 218.756 326.279 218.027V218.021ZM210.243 197.385C209.232 197.861 208.793 197.042 208.396 196.361C206.381 192.909 204.299 189.493 202.411 185.974C198.308 178.322 194.428 170.544 190.199 162.965C188.635 160.157 189.249 158.139 191.09 155.982C193.371 153.311 193.075 151.01 190.199 149.078C189.285 148.463 188.461 147.686 187.48 147.228C185.832 146.445 185.658 145.131 186.127 143.709C188.124 137.751 190.193 131.816 192.287 125.888C192.485 125.327 192.407 124.231 193.418 124.43C194.38 124.616 194.38 125.562 194.344 126.942C193.851 128.424 193.177 130.4 192.545 132.389C191.487 135.72 190.602 139.118 189.351 142.372C188.623 144.27 189.363 145.149 190.765 146.029C192.455 147.089 194.121 148.186 195.764 149.319C197.58 150.572 197.827 152.15 196.582 153.964C196.076 154.705 195.709 155.657 195.018 156.139C191.703 158.446 192.449 160.862 194.067 163.971C199.228 173.906 204.39 183.841 210.056 193.505C210.363 194.023 210.622 194.572 210.88 195.108C211.337 196.054 211.271 196.903 210.243 197.385ZM263.136 146.469C259.797 147.812 256.501 149.246 253.21 150.692C252.109 151.18 250.876 151.608 252.067 153.289C253.559 155.398 255.755 157.549 255.989 159.856C256.23 162.23 253.078 163.616 251.442 165.453C242.762 175.208 234.015 184.914 225.293 194.632C224.89 195.084 224.475 195.524 224.024 195.915C223.38 196.482 222.676 197.524 221.774 196.668C220.86 195.795 221.864 195.054 222.436 194.415C226.177 190.264 230.25 186.366 233.618 181.931C239.297 174.442 246.581 168.375 251.983 160.663C252.681 159.669 252.747 158.989 252.025 158.012C250.84 156.404 249.854 154.651 248.669 153.042C247.279 151.156 247.796 149.915 249.775 149.035C253.156 147.535 256.489 145.908 259.947 144.619C262.095 143.818 262.552 142.86 261.92 140.625C260.501 135.642 259.406 130.563 258.257 125.502C258.035 124.514 257.565 122.978 259.051 122.773C260.062 122.628 260.308 123.99 260.549 125.026C261.902 130.852 263.352 136.66 264.772 142.468C264.892 142.956 265.048 143.432 265.223 144.035C265.223 145.342 264.369 145.969 263.136 146.469Z" fill="#287DBF"/>
<path d="M281.639 100.167C281.47 105.306 276.55 114.037 270.288 116.35C268.038 117.182 265.848 118.115 263.484 118.549C258.606 117.061 254.064 114.856 249.787 112.09C248.398 109.813 247.947 106.987 248.121 104.686C248.362 101.414 247.55 97.8596 249.378 94.7809C251.598 91.0514 253.667 87.2497 255.093 83.1407C255.4 82.249 255.544 81.5983 256.699 81.3573C265.066 79.6222 269.199 73.1815 268.435 65.9215C267.87 60.5352 262.275 57.2938 257.301 59.5833C256.308 60.0352 255.592 60.0111 255.237 58.8483C254.949 57.9084 254.702 56.9504 254.401 56.0105C253.529 53.2632 252.139 51.4497 248.837 51.052C245.865 50.6905 242.966 49.3711 240.416 47.666C233.299 42.9063 225.834 38.5383 221.251 30.8565C220.661 29.8624 219.981 29.5611 218.754 30.6516C215.031 33.9714 212.167 38.0261 207.758 40.8518C201.021 45.1717 194.32 49.3409 186.674 51.7449C185.02 52.263 184.737 52.9499 184.725 54.4079C184.647 60.7642 185.044 67.0602 185.868 73.3864C186.951 81.7188 189.183 89.4548 193.652 96.6847C196.858 101.86 200.738 106.078 205.839 109.265C205.857 110.385 205.869 111.506 205.887 112.627C205.833 113.476 205.827 114.344 205.093 114.964C201.021 117.115 196.906 119.17 192.503 120.568C192.317 120.519 192.136 120.531 191.956 120.616C184.677 119.447 178.373 116.736 174.102 110.229C170.547 104.812 170.656 98.926 171.107 92.9071C171.149 92.3287 171.486 91.7564 171.468 91.19C171.275 84.5024 171.883 77.8268 172.226 71.1692C172.935 57.3722 172.983 43.4184 178.09 30.2178C183.216 16.9871 191.787 7.03998 205.334 2.15377C209.136 0.780093 213.208 -0.0995448 217.419 0.00890373C225.1 0.213751 232.812 -0.48514 240.265 2.40682C250.401 6.34109 257.944 13.1131 263.551 22.3131C268.91 31.1035 270.853 40.9241 272.556 50.8472C274.354 61.3426 275.353 72.0006 278.625 82.2069C280.496 88.0571 281.849 93.9314 281.639 100.167Z" fill="#262627"/>
<path d="M115.777 48.8771C115.609 51.6667 115.862 54.655 112.499 55.9685C112.451 55.9082 112.403 55.854 112.355 55.8058C112.331 55.7817 112.307 55.7576 112.289 55.7395C112.24 55.6973 112.192 55.6612 112.15 55.6371C111.892 55.4925 111.669 55.625 111.488 56.101C111.488 56.101 111.464 56.1251 111.446 56.1432C111.428 56.1552 111.41 56.1733 111.41 56.1733C89.737 56.1432 68.0637 56.1131 46.3904 56.095C42.9075 56.095 39.4065 56.348 36.0981 54.89C35.2439 54.5767 34.9492 53.8899 34.883 53.0524C33.8183 51.7811 34.7206 50.2508 34.3356 48.8892C34.3957 46.0876 34.4559 43.286 34.516 40.4784C34.5521 40.6471 34.5882 40.8218 34.6243 40.9965C34.5942 40.8218 34.5582 40.6471 34.5221 40.4784C34.4499 40.0386 34.3777 39.5988 34.3115 39.165L34.5341 39.2011C34.6724 38.9902 34.8168 38.7794 34.9552 38.5685C34.9612 38.5685 34.9612 38.5625 34.9612 38.5625C35.5266 38.3636 35.5627 37.8937 35.5266 37.3876C36.7357 35.2909 38.7749 35.0499 40.8863 35.0258C43.7797 35.0017 46.6731 34.9535 49.5665 35.056C50.8658 35.0981 51.3049 34.7306 51.2688 33.3991C51.2086 30.9891 52.3215 29.0973 54.2344 27.6694C57.8737 27.0187 61.5551 27.1573 65.2244 27.1513C73.9948 27.1332 82.7712 27.1031 91.5476 27.085C96.5403 26.8018 98.1885 28.4647 99.2473 33.2907C99.6322 35.0319 100.324 34.9656 101.569 35.0379C104.631 35.2186 107.675 34.827 110.773 35.4355C113.034 35.8814 114.442 36.9357 115.609 38.683C115.609 38.8517 115.645 39.0143 115.693 39.177C115.717 42.4124 115.747 45.6417 115.777 48.8771Z" fill="#1B3C60"/>
<path d="M34.9373 38.5745C34.9373 38.5745 34.9433 38.5745 34.9553 38.5625C34.9553 38.5625 34.9433 38.5745 34.9373 38.5745Z" fill="#1B3C60"/>
<path d="M0.715827 237.722C0.715827 238.783 1.10081 239.945 0.222568 240.885C0.150384 239.295 0.0721842 237.704 0 236.119C0.0360921 213.14 0.0962456 190.161 0.102261 167.182C0.120307 128.147 0.102261 89.1175 0.102261 50.0821C0.102261 48.8771 0.174445 47.6781 0.204522 46.4732C1.17299 47.6179 0.703796 48.9856 0.703796 50.2327C0.733873 112.735 0.733873 175.232 0.715827 237.728V237.722Z" fill="#176BB4"/>
<path d="M34.5342 39.2011L34.3116 39.165C25.1262 39.177 15.9407 39.1891 6.74927 39.2011C6.94176 38.5022 7.57337 38.683 8.04858 38.5444C16.8791 38.5986 25.7097 38.6528 34.5402 38.701C34.4921 38.8697 34.4861 39.0384 34.5342 39.2011Z" fill="#176BB4"/>
<path d="M143.213 38.689C142.486 39.4542 141.541 39.177 140.681 39.183C132.35 39.1951 124.018 39.183 115.693 39.177C115.645 39.0143 115.615 38.8517 115.609 38.683L115.549 38.5444C124.548 38.5384 133.547 38.5384 142.54 38.5384C142.762 38.5866 142.985 38.6408 143.213 38.689Z" fill="#176BB4"/>
<path d="M34.5402 38.7071C25.7096 38.6529 16.8731 38.6047 8.04254 38.5504C9.11327 37.719 10.3585 38.0986 11.5254 38.0865C19.3273 38.0142 27.1293 37.9961 34.9252 37.96C34.9252 38.1648 34.9251 38.3697 34.9312 38.5806L34.9673 38.5444C34.8289 38.6047 34.6845 38.6589 34.5342 38.7071H34.5402Z" fill="#A6B0B5"/>
<path d="M142.54 38.5444C133.541 38.5444 124.548 38.5444 115.549 38.5444C116.319 37.8876 117.245 38.0865 118.129 38.0865C125.306 38.0744 132.482 38.0684 139.652 38.0865C140.627 38.0865 141.661 37.8756 142.54 38.5444Z" fill="#A6B0B5"/>
<path d="M162.433 134.931C162.433 134.931 162.457 134.907 162.469 134.895V134.925C162.469 134.925 162.445 134.931 162.433 134.931Z" fill="#176BB4"/>
<path d="M162.469 134.895V134.925C162.469 134.925 162.445 134.931 162.433 134.931C162.445 134.919 162.457 134.907 162.469 134.895Z" fill="#176BB4"/>
<path d="M34.9612 38.5624C34.9612 38.5624 34.9612 38.5685 34.9552 38.5685C34.9492 38.5685 34.9432 38.5685 34.9372 38.5685V38.5504C34.9312 38.3516 34.9312 38.1528 34.9312 37.9539C35.1297 37.7611 35.3282 37.5744 35.5267 37.3816C35.5628 37.8877 35.5267 38.3576 34.9612 38.5564V38.5624Z" fill="#262627"/>
<path d="M268.411 239.427C267.924 242.271 265.542 243.578 264.128 245.651C259.406 246.187 254.852 247.681 250.07 247.928C244.223 248.23 238.412 248.332 232.963 245.771C231.609 245.139 229.901 244.344 230.99 242.193C235.333 241.373 239.676 240.548 244.019 239.728C242.22 238.108 240.548 238.897 239.038 239.301C235.982 240.114 232.542 239.728 229.931 242.018C228.114 242.422 226.634 241.488 225.221 240.65C223.109 239.397 223.512 237.794 224.98 236.234C226.953 236.385 227.916 234.143 229.42 233.999C233.059 233.643 235.934 231.269 239.435 230.733C240.109 230.631 241.336 230.968 241.011 229.739C240.746 228.757 239.531 228.594 238.701 228.974C233.402 231.39 227.693 232.758 222.526 235.487C222.189 235.493 221.846 235.499 221.503 235.499C219.945 234.402 218.965 233.228 218.556 232.029C217.828 229.914 218.893 227.721 221.702 225.751C222.977 224.853 224.337 224.184 225.744 223.642C228.216 222.678 230.833 222.106 233.384 221.346C235.375 220.756 237.324 220.033 238.948 218.617C238.25 217.719 237.462 217.936 236.885 218.111C233.985 218.979 231.038 219.75 228.204 220.768C224.812 221.979 221.576 223.527 218.73 225.986C217.202 227.311 215.572 227.986 213.557 227.57C211.241 224.799 212.883 222.383 214.243 219.943C215.789 219.22 215.656 217.382 216.649 216.298C218.652 213.972 221.185 212.538 224.084 211.58C225.455 211.122 226.695 210.249 227.994 209.562C228.583 209.797 228.992 210.104 229.847 209.917C230.623 209.742 231.393 209.556 232.163 209.351C232.277 209.327 232.385 209.297 232.493 209.266C232.933 209.152 233.366 209.031 233.799 208.905C234.238 208.778 234.671 208.652 235.098 208.513C235.399 208.423 235.694 208.333 235.988 208.23C236.566 208.049 237.137 207.857 237.709 207.658C238.124 207.513 238.539 207.363 238.954 207.212C239.381 207.055 239.808 206.899 240.229 206.736C240.361 206.688 240.5 206.64 240.632 206.585C244.554 206.29 247.929 207.917 251.225 209.718C254.329 211.411 257.379 213.201 260.453 214.954C261.65 215.4 262.847 215.852 264.044 216.304C269.001 223.353 269.831 231.143 268.411 239.427Z" fill="#F7BC8D"/>
<path d="M207.584 236.065C190.65 236.083 173.717 236.107 156.784 236.132C154.883 236.138 152.976 236.168 151.075 236.192C154.209 234.728 157.524 235.746 160.742 235.547C162.577 235.433 163.401 235.523 163.196 233.011C161.993 218.569 160.55 204.109 161.338 189.601C161.807 180.859 163.04 172.177 164.736 163.579C164.971 162.381 165.603 161.814 166.83 162.061C168.105 162.314 167.973 163.332 167.816 164.2C166.324 172.328 165.001 180.509 164.478 188.74C164.069 195.102 163.888 201.53 164.748 207.923C165.278 211.875 164.833 215.888 165.398 219.888C166.006 224.118 166.072 228.45 166.048 232.739C166.03 235.089 166.86 235.565 169.013 235.547C180.827 235.457 192.648 235.493 204.468 235.523C205.514 235.523 206.687 235.083 207.584 236.065Z" fill="#176BB4"/>
<path d="M228.205 220.768L225.744 223.642C224.337 224.184 222.977 224.853 221.702 225.751C218.893 227.721 217.828 229.914 218.556 232.029L207.307 245.157C206.254 245.898 205.148 246.585 203.963 247.163C204.384 242.91 206.495 239.65 208.161 236.222C209.96 233.336 211.759 230.456 213.557 227.57C215.572 227.986 217.202 227.311 218.73 225.986C221.576 223.527 224.812 221.979 228.205 220.768Z" fill="#262627"/>
<path d="M143.159 249.212C142.564 249.314 141.974 249.423 141.385 249.525C140.386 249.477 139.394 249.386 138.395 249.386C117.666 249.374 96.9434 249.362 76.2206 249.38C53.8916 249.398 31.5686 249.441 9.24562 249.471C8.4155 249.151 7.36883 249.73 6.67706 248.844C8.28316 247.904 9.91332 248.844 11.5254 248.844C54.2405 248.766 96.9555 248.778 139.67 248.802C140.831 248.802 142.077 248.41 143.159 249.212Z" fill="#176BB4"/>
<path d="M9.24564 249.477C31.5686 249.447 53.8976 249.398 76.2206 249.386C96.9435 249.368 117.672 249.386 138.395 249.386C139.394 249.386 140.386 249.477 141.385 249.525C140.386 250.242 139.249 249.911 138.179 249.911C96.4622 249.929 54.7458 249.929 13.0293 249.905C11.7661 249.905 10.4246 250.308 9.23962 249.477H9.24564Z" fill="#A6B0B5"/>
<path d="M222.526 235.493C227.693 232.764 233.402 231.39 238.695 228.98C239.531 228.6 240.74 228.763 241.005 229.745C241.33 230.974 240.103 230.637 239.429 230.739C235.928 231.275 233.053 233.649 229.413 234.005C227.91 234.149 226.947 236.391 224.968 236.24C224.192 235.86 223.049 236.698 222.52 235.499L222.526 235.493Z" fill="#E18B40"/>
<path d="M229.931 242.018C232.548 239.728 235.982 240.114 239.038 239.301C240.548 238.897 242.22 238.108 244.019 239.728C239.676 240.548 235.333 241.367 230.99 242.193C230.635 242.132 230.286 242.078 229.931 242.018Z" fill="#E18B40"/>
<path d="M139.749 51.3353C139.009 49.3169 137.415 48.859 135.466 48.865C128.903 48.9012 122.34 48.8831 115.778 48.8831C115.609 51.6727 115.862 54.661 112.499 55.9745C112.162 56.0227 111.825 56.0648 111.489 56.113C111.483 56.113 111.465 56.1311 111.447 56.1492C111.428 56.1612 111.41 56.1793 111.41 56.1793C89.7371 56.1492 68.0638 56.119 46.3905 56.101C42.9076 56.101 39.4067 56.354 36.0982 54.896C35.244 54.5827 34.9493 53.8959 34.8831 53.0584C33.8184 51.7871 34.7207 50.2568 34.3357 48.8952C27.9474 48.8891 21.5591 48.9313 15.1768 48.847C12.903 48.8168 11.315 49.5097 10.7134 51.8293C10.8097 60.8607 11.2608 69.886 10.5029 78.9053C10.5029 79.3391 10.5029 79.7789 10.5089 80.2187C10.8819 84.5988 11.6879 88.979 10.5029 93.3591V95.2328C10.6292 95.287 10.7375 95.3352 10.8277 95.3834C10.8759 95.4136 10.918 95.4377 10.9601 95.4618C11.0984 95.5461 11.1947 95.6305 11.2548 95.7148C11.2729 95.7389 11.2909 95.763 11.3029 95.7871C11.309 95.7871 11.309 95.7992 11.309 95.7992C11.327 95.8293 11.339 95.8534 11.3451 95.8775C11.5496 96.4499 10.6052 97.0102 10.5029 97.5765V100.083C11.2428 103.86 11.0022 107.644 10.5029 111.422C10.5029 112.663 10.5089 113.904 10.5089 115.139C11.339 118.471 10.8638 121.857 10.8277 125.201C10.7736 130.647 11.3451 136.106 10.5029 141.534C10.5029 141.968 10.4969 142.402 10.4969 142.836C11.0744 144.011 11.0804 145.185 10.5089 146.36C10.5089 146.794 10.5149 147.222 10.5149 147.656C11.1105 151.24 11.0924 154.819 10.5089 158.398V159.699C11.0744 160.874 11.0804 162.037 10.5029 163.212C10.5089 165.056 10.5089 166.893 10.5089 168.737C11.1225 175.732 11.1165 182.721 10.5029 189.71C10.5029 190.342 10.5089 190.981 10.5089 191.613C11.1044 193.596 11.1044 195.56 10.5089 197.53C10.5089 198.566 10.5029 199.608 10.5029 200.645C11.1345 201.555 10.8638 202.591 10.8638 203.567C10.8879 214.189 10.8759 224.817 10.8759 235.439C11.3751 236.511 12.1451 237.27 13.3241 237.553C13.5226 237.626 13.7211 237.698 13.9196 237.77C14.7558 237.776 15.5859 237.788 16.416 237.794C18.389 237.174 20.3621 237.192 22.3351 237.788C24.9698 237.782 27.6045 237.782 30.2393 237.782C31.4123 237.21 32.5913 237.204 33.7643 237.782C34.3959 237.788 35.0275 237.788 35.6591 237.788C38.4322 237.18 41.2053 237.192 43.9783 237.788C44.4114 237.788 44.8445 237.782 45.2776 237.782C45.8491 237.288 46.4146 237.288 46.986 237.782C49.4222 237.782 51.8584 237.788 54.2947 237.788H54.3007C54.3789 237.716 54.4571 237.656 54.5353 237.608C54.6015 237.572 54.6616 237.535 54.7218 237.511C54.7939 237.475 54.8661 237.457 54.9383 237.439C55.0045 237.427 55.0767 237.415 55.1428 237.415C55.4316 237.415 55.7203 237.541 56.003 237.788C56.6406 237.788 57.2723 237.788 57.9039 237.794C58.4753 237.294 59.0468 237.3 59.6122 237.794C60.6529 237.788 61.6875 237.788 62.7222 237.782C67.9435 236.963 73.2009 237.499 78.4343 237.457C81.9773 237.433 85.5564 236.957 89.0814 237.788H90.3747C91.7463 237.222 93.1178 237.216 94.4893 237.788C95.9269 237.788 97.3586 237.788 98.7962 237.782C103.621 236.957 108.487 237.469 113.323 237.463C117.865 237.463 122.431 236.945 126.96 237.794C128.596 237.788 130.232 237.788 131.869 237.788H131.875C133.812 237.011 135.821 237.596 137.788 237.433C138.738 237.065 139.37 236.391 139.731 235.451C139.719 174.376 139.707 113.308 139.701 52.233C139.701 51.9317 139.731 51.6305 139.749 51.3353ZM26.0646 110.807C26.0706 101.619 26.0827 92.4312 26.0887 83.2432C26.3413 82.46 26.5338 81.6346 27.4662 81.3394C28.6813 80.2609 30.1731 80.2428 31.6709 80.2428C38.6247 80.2488 45.5784 80.2488 52.5261 80.2669C52.7968 80.2669 53.0735 80.2669 53.3442 80.2669C53.4645 80.2669 53.5849 80.2669 53.7052 80.2729C53.8195 80.2729 53.9337 80.2729 54.048 80.291C54.1683 80.297 54.2947 80.3091 54.415 80.3272C54.5413 80.3392 54.6616 80.3573 54.7819 80.3814C54.8541 80.3934 54.9323 80.4115 55.0045 80.4296C55.0165 80.4296 55.0285 80.4296 55.0406 80.4356C55.1128 80.4537 55.1789 80.4718 55.2511 80.4959C55.5098 80.5682 55.7564 80.6706 55.997 80.8092C56.0632 80.8453 56.1233 80.8815 56.1835 80.9236C56.2376 80.9538 56.2857 80.9899 56.3339 81.0261C56.4542 81.1104 56.5685 81.2068 56.6828 81.3213C56.6888 81.3273 56.6888 81.3333 56.6948 81.3333C56.7489 81.3755 56.8091 81.4177 56.8572 81.4538C56.9414 81.5141 57.0256 81.5743 57.1099 81.6346C57.2542 81.731 57.3926 81.8334 57.5369 81.9358C57.8016 82.3756 58.0723 82.8094 58.343 83.2493C58.355 92.4312 58.3671 101.619 58.3731 110.801C58.0242 112.446 57.0196 113.434 55.3834 113.79C46.601 113.79 37.8246 113.79 29.0482 113.79C28.3023 113.627 27.5564 113.44 26.8045 113.308C24.8555 112.964 24.9698 112.03 26.0586 110.795L26.0646 110.807ZM25.9864 165.339C26.0105 156.44 26.0466 147.535 26.0827 138.636C26.3173 137.841 26.4556 136.973 27.4602 136.738C28.5069 135.473 29.9325 135.533 31.3641 135.636C32.7898 135.636 34.2154 135.63 35.6411 135.63C41.6023 135.618 47.5695 135.6 53.5307 135.594C54.7218 135.588 55.9549 135.491 56.7008 136.732L56.6647 136.714L56.6828 136.732C56.7128 136.763 56.7489 136.793 56.779 136.829C56.9474 136.992 57.1099 137.16 57.2783 137.323C57.3324 137.335 57.3745 137.359 57.4166 137.389C57.4587 137.413 57.5008 137.443 57.5369 137.474C57.561 137.498 57.5851 137.516 57.6031 137.54C57.6813 137.63 57.7415 137.733 57.7776 137.841C57.7956 137.895 57.8136 137.949 57.8257 138.01C57.8377 138.046 57.8437 138.088 57.8497 138.13C57.8738 138.269 57.8918 138.413 57.9099 138.552C58.5656 139.022 58.4573 139.751 58.4573 140.426C58.4332 149.21 58.3971 158 58.361 166.791C58.0061 168.026 57.17 168.779 55.973 169.165C47.0883 169.647 38.2036 169.345 29.3189 169.303C28.7775 169.297 28.2362 168.899 27.6948 168.689C27.5203 168.532 27.3399 168.375 27.1654 168.219C26.7022 167.893 26.3834 167.496 26.5458 166.881C25.8661 166.55 25.9804 165.905 25.9864 165.339ZM58.4513 194.319C58.4453 203.019 58.4212 211.713 58.4031 220.413C58.0122 222.039 57.0377 223.064 55.3654 223.365C46.595 223.377 37.8186 223.395 29.0422 223.407C27.8031 222.913 26.9729 221.925 26.1188 220.961C26.1127 211.387 26.1007 201.808 26.0947 192.234C26.5579 190.788 27.6767 190.149 29.0482 189.818C37.3254 189.788 45.6085 189.758 53.8856 189.74C54.1022 189.74 54.3247 189.728 54.5473 189.728C54.6796 189.728 54.806 189.734 54.9323 189.746C54.9985 189.752 55.0586 189.758 55.1188 189.77C55.1849 189.782 55.2451 189.794 55.3052 189.812C55.3534 189.824 55.4015 189.842 55.4496 189.86C55.5459 189.89 55.6361 189.939 55.7263 189.999C55.7684 190.023 55.8105 190.053 55.8526 190.089C55.9308 190.143 55.997 190.21 56.0692 190.294C56.2617 190.276 56.4482 190.312 56.6226 190.402C57.2422 190.577 57.6452 190.963 57.7896 191.601C57.8798 191.77 57.9219 191.945 57.9159 192.144C57.9761 192.192 58.0302 192.24 58.0783 192.288C58.1264 192.336 58.1685 192.391 58.2046 192.445C58.2287 192.469 58.2467 192.499 58.2588 192.523C58.2768 192.553 58.2949 192.583 58.3069 192.608C58.331 192.662 58.355 192.716 58.3791 192.776C58.3971 192.812 58.4092 192.855 58.4152 192.897C58.4212 192.915 58.4272 192.933 58.4272 192.951C58.4453 193.029 58.4573 193.114 58.4633 193.198C58.4633 193.222 58.4753 193.246 58.4633 193.27C58.4693 193.294 58.4693 193.318 58.4693 193.343C58.4753 193.397 58.4753 193.451 58.4753 193.499C58.4753 193.77 58.4513 194.047 58.4453 194.319H58.4513ZM109.612 112.645C110.412 113.067 110.418 113.482 109.618 113.91C109.636 114.748 109.095 114.958 108.403 115.001C107.579 115.001 106.755 115.001 105.93 115.001C104.751 115.001 103.566 115.007 102.387 115.007C101.557 115.013 100.733 115.013 99.9031 115.013C99.3376 115.013 98.7662 115.013 98.1947 115.007H93.2802C90.1101 115.007 86.94 115.007 83.7699 115.013C80.5276 115.013 77.2853 115.013 74.0491 115.013C72.6776 115.013 71.3061 115.013 69.9346 115.013C69.5075 115.001 69.0744 114.995 68.6473 114.989C67.8232 115.025 66.9449 115.121 67.3841 113.808V112.735C67.5465 111.133 68.8458 111.596 69.706 111.59C82.1758 111.554 94.6457 111.566 107.115 111.59C107.452 111.59 107.813 111.554 108.162 111.572C108.21 111.572 108.258 111.572 108.307 111.572C108.433 111.578 108.559 111.603 108.679 111.639C108.728 111.651 108.776 111.669 108.824 111.687C108.902 111.717 108.98 111.759 109.052 111.807C109.082 111.825 109.113 111.85 109.137 111.874C109.155 111.88 109.167 111.892 109.179 111.91C109.209 111.934 109.233 111.958 109.257 111.988C109.305 112.03 109.341 112.078 109.377 112.133C109.389 112.157 109.401 112.181 109.419 112.199C109.449 112.247 109.473 112.295 109.498 112.35C109.54 112.428 109.576 112.518 109.606 112.621H109.612V112.645ZM68.3044 138.932C69.2669 138.516 70.2594 138.57 71.2519 138.57C88.1611 138.564 105.076 138.558 121.985 138.564C123.357 138.564 125.125 138.263 125.192 140.287C125.264 142.607 123.315 142.191 121.889 142.191C117.107 142.209 112.331 142.209 107.549 142.209H96.0713C92.7147 142.209 89.3521 142.209 85.9896 142.209C80.9427 142.209 75.9018 142.209 70.8549 142.197C69.9707 142.197 69.0443 142.173 68.2142 141.914C67.5826 141.721 66.9871 141.161 66.9931 140.359C66.9931 139.528 67.6187 139.221 68.3044 138.926V138.932ZM124.59 169.285C124.205 170.147 123.411 169.894 122.761 169.894C105.551 169.882 88.3476 169.845 71.1376 169.815C69.6037 169.538 66.9149 171.002 67.5465 167.441C68.154 166.405 69.1586 166.869 69.9767 166.869C87.3851 166.839 104.794 166.845 122.196 166.869C123.02 166.869 124.031 166.435 124.626 167.484C125.156 168.092 124.945 168.689 124.59 169.285ZM66.8788 154.892C66.8427 154.753 66.8427 154.608 66.8848 154.446C66.8848 154.416 66.9028 154.379 66.9149 154.343C66.9329 154.283 66.957 154.217 66.9931 154.15C67.0171 154.096 67.0472 154.036 67.0833 153.982C67.1254 153.909 67.1795 153.831 67.2337 153.753C67.2698 153.705 67.3119 153.656 67.354 153.602C67.4021 153.53 67.4563 153.464 67.5104 153.409C67.6006 153.313 67.6969 153.229 67.7991 153.168C67.8232 153.156 67.8473 153.138 67.8713 153.126C67.9495 153.084 68.0217 153.048 68.0999 153.03C68.1179 153.018 68.13 153.012 68.148 153.012C68.2142 152.988 68.2804 152.97 68.3465 152.964C68.4007 152.958 68.4488 152.952 68.5029 152.946C68.551 152.939 68.6052 152.933 68.6593 152.933C69.0443 152.909 69.4473 152.97 69.8203 152.97C82.3743 152.946 94.9284 152.946 107.482 152.952C108.114 152.952 108.824 152.777 109.341 153.247C109.359 153.265 109.377 153.283 109.395 153.301C109.461 153.367 109.522 153.446 109.576 153.536C109.582 153.548 109.594 153.56 109.6 153.578H109.606C109.606 153.578 109.612 153.59 109.618 153.596C109.666 153.632 109.708 153.668 109.75 153.705C109.913 153.843 110.027 153.982 110.093 154.126C110.111 154.157 110.129 154.193 110.141 154.223C110.153 154.259 110.165 154.289 110.171 154.325C110.183 154.349 110.189 154.373 110.189 154.398C110.195 154.428 110.201 154.464 110.201 154.494C110.207 154.542 110.201 154.584 110.189 154.632C110.183 154.681 110.171 154.735 110.153 154.783C110.099 154.934 110.003 155.084 109.858 155.235C109.792 155.301 109.714 155.374 109.624 155.446C109.618 155.458 109.612 155.458 109.606 155.464C109.606 155.464 109.602 155.468 109.594 155.476C109.594 155.476 109.558 155.53 109.534 155.56C109.516 155.584 109.498 155.609 109.473 155.633C109.407 155.705 109.347 155.759 109.275 155.801C109.185 155.868 109.095 155.922 108.992 155.958C108.505 156.145 107.94 156.042 107.428 156.042C94.3268 156.03 81.2254 156.006 68.1179 155.982C68.0518 155.952 67.9796 155.922 67.9134 155.886C67.4563 155.663 67.1074 155.404 66.945 155.084C66.9149 155.024 66.8908 154.958 66.8788 154.892ZM107.813 211.357H73.4596C71.9618 211.369 70.4639 211.429 68.9661 211.375C68.0097 211.339 67.0893 210.875 67.0051 209.857C66.9028 208.628 67.9194 208.176 68.9601 208.013C69.6458 207.905 70.3557 207.935 71.0534 207.935C82.651 207.929 94.2426 207.917 105.84 207.959C107.146 207.959 108.673 207.471 109.606 208.989C110.466 210.971 110.316 211.164 107.813 211.357ZM122.37 197.024H95.9329C87.3189 197.012 78.711 197.018 70.097 197.006C68.7435 197.006 66.8968 197.343 66.9991 195.246C67.0893 193.493 68.6954 193.331 70.1993 193.331C87.6197 193.343 105.046 193.337 122.467 193.343C123.82 193.343 125.264 193.355 125.222 195.234C125.18 197.12 123.694 197.024 122.37 197.024ZM124.795 100.197C124.68 100.294 124.566 100.378 124.446 100.462C124.343 100.529 124.247 100.583 124.145 100.637C124.127 100.649 124.103 100.661 124.079 100.667C123.989 100.715 123.892 100.752 123.796 100.788C123.688 100.83 123.573 100.866 123.459 100.896C123.351 100.926 123.237 100.956 123.122 100.975C123.008 100.999 122.888 101.017 122.773 101.029C122.034 101.125 121.264 101.071 120.518 101.071C104.938 101.095 89.3581 101.095 73.7784 101.077C72.0881 101.071 70.3917 100.95 68.7014 100.794C67.4442 100.673 66.572 100.149 67.2818 98.6489C67.4683 98.426 67.6548 98.2091 67.8533 97.9862C68.5691 97.4681 69.3932 97.6307 70.1752 97.6307C87.4994 97.6187 104.824 97.6187 122.148 97.6368C123.002 97.6368 123.977 97.2933 124.656 98.185C125.51 98.7996 125.378 99.4804 124.795 100.197ZM124.915 86.2075C124.398 86.816 123.688 86.804 122.984 86.7979C104.703 86.7738 86.4166 86.7437 68.136 86.7136C66.5539 85.2314 66.7946 84.647 69.321 83.8096C87.0663 83.7855 104.818 83.7553 122.569 83.7312C123.339 83.7312 124.193 83.5565 124.758 84.3458C125.528 84.9061 125.414 85.5387 124.915 86.2075Z" fill="white"/>
<path d="M268.435 65.9216C267.87 60.5353 262.275 57.2939 257.301 59.5834C256.308 60.0353 255.592 60.0112 255.237 58.8483C254.949 57.9085 254.702 56.9505 254.401 56.0106C253.529 53.2633 252.14 51.4498 248.837 51.0521C245.866 50.6906 242.966 49.3712 240.416 47.6661C233.299 42.9064 225.834 38.5384 221.251 30.8566C220.661 29.8625 219.981 29.5612 218.754 30.6517C215.031 33.9715 212.168 38.0262 207.758 40.8519C201.021 45.1718 194.32 49.341 186.674 51.745C185.02 52.2631 184.738 52.95 184.725 54.408C184.647 60.7643 185.044 67.0603 185.868 73.3865C186.951 81.7189 189.183 89.4549 193.652 96.6848C196.858 101.86 200.738 106.078 205.839 109.265C218.321 115.784 234.563 113.922 247.586 98.2453C247.093 102.909 245.282 106.307 242.052 109.253C237.685 113.223 233.017 116.543 227.11 117.507C220.625 118.567 214.177 118.772 208.564 114.392C207.716 113.729 206.17 114.139 205.888 112.627C205.833 113.476 205.827 114.344 205.093 114.964C205.057 115.645 205.388 116.428 204.57 116.898V136.154C205.593 136.992 204.853 138.239 205.28 139.209C216.222 143.306 227.104 143.39 237.949 138.817C238.617 138.534 239.357 137.949 240.199 138.474C243.911 131.455 246.509 123.996 248.969 116.483C249.439 115.049 249.77 113.603 249.788 112.091C248.398 109.813 247.947 106.987 248.121 104.686C248.362 101.414 247.55 97.8597 249.379 94.781C251.598 91.0515 253.667 87.2498 255.093 83.1408C255.4 82.2491 255.544 81.5984 256.699 81.3574C265.067 79.6223 269.199 73.1816 268.435 65.9216ZM212.029 78.9836C213.407 74.8023 214.742 70.603 216.059 66.3976C216.336 65.5179 216.835 64.9275 217.768 65.1504C218.947 65.4276 218.508 66.4578 218.327 67.1085C217.461 70.2113 216.541 73.3021 215.53 76.3628C214.417 79.7428 214.123 81.0502 218.682 81.9539C219.584 82.1347 221.022 81.1345 221.287 82.8456C221.401 83.5686 220.487 83.8096 217.894 83.7795C216.721 84.0325 215.392 83.5264 214.11 83.0866C212.192 82.4359 211.331 81.1044 212.029 78.9836ZM204.48 65.7047C204.354 67.5062 203.265 69.157 201.322 69.2052C199.361 69.2534 198.573 67.705 198.567 65.9276C198.428 63.8069 199.776 62.8127 201.382 62.8489C202.916 62.879 204.618 63.7587 204.48 65.7047ZM208.667 53.2934C208.48 53.9621 207.861 54.5104 207.067 54.2754C202.483 52.9018 198.122 53.6669 193.899 55.625C193.087 56.0046 192.762 55.5286 192.636 54.9924C192.317 53.6488 193.273 52.8054 194.29 52.5523C196.648 51.9739 199.078 51.6727 201.478 51.275C201.767 51.2268 202.074 51.275 202.501 51.275C204.179 51.0822 205.857 51.6847 207.53 52.1788C207.957 52.3053 208.889 52.5222 208.667 53.2994V53.2934ZM226.947 93.3289C223.97 93.829 221.281 95.7148 218.147 95.1485C215.506 95.5823 213.304 94.4436 211.103 93.3771C210.501 93.088 209.707 92.7084 210.176 91.8348C210.616 91.0274 211.217 91.0033 212.137 91.4673C216.829 93.835 221.425 94.2327 225.81 90.6117C226.334 90.1779 227.603 89.8285 227.97 91.166C228.235 92.1179 228.018 93.1482 226.947 93.3289ZM232.975 69.0606C231.302 69.1088 230.063 67.1386 230.033 65.5782C230.009 64.3792 230.947 62.644 232.836 62.7465C234.785 62.8489 235.76 64.0479 235.898 65.9517C236.018 68.0484 233.979 69.0365 232.975 69.0606ZM240.44 55.4864C239.778 55.6009 238.822 55.39 238.563 55.2334C235.555 53.3958 232.391 53.8838 229.191 54.2333C228.565 54.3056 227.681 54.5948 227.453 53.6127C227.224 52.6608 227.813 52.1607 228.68 51.8835C232.975 50.54 237.065 51.3835 241.083 53.0283C241.613 53.2452 241.859 53.6127 241.841 54.2815C241.667 54.9201 241.21 55.3539 240.44 55.4864Z" fill="#F7BC8D"/>
<path d="M240.199 138.474C237.751 143.77 235.291 149.066 232.854 154.367C228.439 163.965 224.048 173.575 219.621 183.167C217.942 186.806 215.939 190.282 214.628 194.102C214.369 194.072 214.116 194.042 213.864 194.017C212.781 189.493 211.506 185.004 210.658 180.431C209.094 172.045 207.415 163.646 206.513 155.169C205.948 149.891 204.714 144.601 205.28 139.209C216.222 143.306 227.104 143.39 237.949 138.817C238.617 138.534 239.357 137.95 240.199 138.474Z" fill="#E18B40"/>
<path d="M258.143 185.51C252.302 192.535 246.467 199.56 240.632 206.585C240.5 206.64 240.361 206.688 240.229 206.736C239.808 206.899 239.381 207.055 238.954 207.212C238.539 207.363 238.124 207.513 237.709 207.658C237.137 207.857 236.566 208.049 235.988 208.23C235.694 208.333 235.399 208.423 235.098 208.513C234.671 208.652 234.238 208.778 233.799 208.905C233.366 209.031 232.933 209.152 232.493 209.266C232.385 209.297 232.277 209.327 232.163 209.351C231.399 209.556 230.623 209.742 229.847 209.917C228.992 210.104 228.583 209.797 227.994 209.562C233.323 203.157 238.743 196.819 243.941 190.306C246.088 187.619 247.953 184.715 250.383 182.281C250.942 181.721 251.532 181.184 252.164 180.684C252.687 183.546 254.822 185.269 258.143 185.51Z" fill="#262627"/>
<path d="M303.48 210.297C303.432 211.881 301.543 212.068 300.124 212.032C290.409 211.749 280.815 212.948 271.256 214.466C268.802 214.852 266.306 215.117 264.044 216.304C262.847 215.852 261.65 215.4 260.453 214.954C261.355 212.737 263.412 212.393 265.367 212.056C270.468 211.188 275.581 210.375 280.706 209.67C282.162 209.471 282.788 209.363 282.403 207.537C280.153 196.903 278.072 186.233 275.942 175.575C275.605 173.918 275.202 172.267 275.004 170.586C274.902 169.713 274.396 168.351 275.918 168.189C277.079 168.062 277.205 169.159 277.392 170.068C278.769 176.708 280.213 183.335 281.548 189.981C282.649 195.457 283.63 200.952 284.646 206.441C284.977 208.224 285.693 209.14 287.804 209.08C291.901 208.977 295.949 208.104 300.064 208.393C301.574 208.501 303.547 208.315 303.48 210.297Z" fill="#176BB4"/>
<path d="M265.223 144.035C265.223 145.342 264.369 145.969 263.136 146.469C259.797 147.812 256.501 149.246 253.21 150.692C252.109 151.18 250.876 151.608 252.067 153.289C253.559 155.398 255.755 157.549 255.989 159.856C256.23 162.23 253.078 163.616 251.442 165.453C242.762 175.208 234.015 184.914 225.293 194.632C224.89 195.084 224.475 195.524 224.024 195.915C223.38 196.482 222.676 197.524 221.774 196.668C220.86 195.795 221.864 195.054 222.436 194.415C226.177 190.264 230.25 186.366 233.618 181.931C239.297 174.442 246.581 168.375 251.983 160.663C252.681 159.669 252.747 158.989 252.025 158.012C250.84 156.404 249.854 154.651 248.669 153.042C247.279 151.156 247.796 149.915 249.775 149.035C253.156 147.535 256.489 145.908 259.947 144.619C262.095 143.818 262.552 142.86 261.92 140.625C260.501 135.642 259.406 130.563 258.257 125.502C258.035 124.514 257.565 122.978 259.051 122.773C260.062 122.628 260.308 123.99 260.549 125.026C261.902 130.852 263.352 136.66 264.772 142.468C264.892 142.956 265.048 143.432 265.223 144.035Z" fill="#176BB4"/>
<path d="M210.243 197.385C209.232 197.861 208.793 197.042 208.396 196.361C206.381 192.909 204.299 189.493 202.411 185.974C198.308 178.322 194.428 170.544 190.199 162.965C188.635 160.157 189.249 158.139 191.09 155.982C193.372 153.311 193.075 151.009 190.199 149.077C189.285 148.463 188.461 147.686 187.48 147.228C185.832 146.445 185.658 145.131 186.127 143.709C188.124 137.751 190.193 131.816 192.287 125.888C192.485 125.327 192.407 124.231 193.418 124.43C194.38 124.616 194.38 125.562 194.344 126.942C193.851 128.424 193.177 130.4 192.545 132.388C191.487 135.72 190.602 139.118 189.351 142.372C188.623 144.27 189.363 145.149 190.765 146.029C192.455 147.089 194.121 148.186 195.764 149.318C197.58 150.572 197.827 152.15 196.582 153.964C196.076 154.705 195.709 155.657 195.018 156.139C191.703 158.446 192.449 160.862 194.067 163.971C199.228 173.906 204.39 183.841 210.056 193.505C210.363 194.023 210.622 194.572 210.88 195.108C211.337 196.054 211.271 196.903 210.243 197.385Z" fill="#176BB4"/>
<path d="M10.5087 158.392V159.693C10.244 160.868 10.244 162.031 10.5027 163.206C10.5087 165.05 10.5087 166.887 10.5087 168.731C10.22 175.72 10.22 182.709 10.5027 189.704C10.5027 190.336 10.5087 190.975 10.5087 191.607C10.22 193.584 10.238 195.554 10.5087 197.524C10.5087 198.56 10.5027 199.603 10.5027 200.639C10.2019 212.237 10.244 223.841 10.4846 235.445C9.45602 234.866 9.78687 233.866 9.78085 233.017C9.76882 173.057 9.78085 113.097 9.78085 53.1428C9.78085 52.7451 9.82296 52.3535 9.86507 51.9619C9.87108 51.8956 9.98537 51.8053 10.0576 51.7872C10.1478 51.7751 10.2501 51.8294 10.3463 51.8595C10.4004 60.8728 10.4546 69.886 10.5087 78.8993C10.5087 79.3331 10.5087 79.7729 10.5147 80.2127C10.22 84.5929 10.214 88.973 10.5087 93.3531V100.077C10.226 103.855 10.214 107.638 10.5087 111.416C10.5087 112.657 10.5147 113.898 10.5147 115.133C10.22 123.93 10.22 132.726 10.5087 141.528C10.5087 141.962 10.5027 142.396 10.5027 142.83C10.25 144.005 10.238 145.179 10.5147 146.354C10.5147 146.788 10.5207 147.216 10.5207 147.65C10.232 151.228 10.22 154.813 10.5147 158.392H10.5087Z" fill="#176BB4"/>
<path d="M140.122 235.451C140.17 234.457 140.26 233.456 140.26 232.456C140.266 197.349 140.272 162.248 140.254 127.141C140.242 101.866 140.2 76.5978 140.17 51.3232C141.258 52.1607 140.807 53.3597 140.807 54.3959C140.831 113.735 140.831 173.081 140.807 232.426C140.807 233.45 141.313 234.668 140.122 235.451Z" fill="#176BB4"/>
<path d="M140.26 232.456C140.26 233.456 140.17 234.457 140.122 235.451C139.989 235.451 139.863 235.451 139.731 235.451C139.719 174.376 139.707 113.308 139.701 52.233C139.701 51.9317 139.731 51.6305 139.749 51.3353C139.887 51.3292 140.031 51.3232 140.17 51.3292C140.2 76.6038 140.242 101.872 140.254 127.147C140.272 162.254 140.266 197.355 140.26 232.462V232.456Z" fill="#A6B0B5"/>
<path d="M137.788 237.861C137.054 238.885 135.965 238.499 135.021 238.505C95.0846 238.517 55.1547 238.517 15.2188 238.511C14.6293 238.511 14.0398 238.463 13.4503 238.415C13.3901 238.415 13.2999 238.294 13.2879 238.216C13.2759 238.126 13.342 238.029 13.3721 237.933C13.5706 237.933 13.7571 237.879 13.9195 237.77C14.7556 237.776 15.5857 237.788 16.4159 237.794C18.3889 238.041 20.3619 238.053 22.335 237.788C24.9697 237.782 27.6044 237.782 30.2391 237.782C31.4121 238.035 32.5851 238.029 33.7641 237.782C34.3958 237.788 35.0274 237.788 35.659 237.788C38.4321 238.041 41.2051 238.066 43.9782 237.788C44.4113 237.788 44.8444 237.782 45.2775 237.782H46.9859C49.4221 237.782 51.8583 237.788 54.2945 237.788H56.0029C56.6405 237.788 57.2721 237.788 57.9037 237.794H59.6121C60.6528 237.788 61.6874 237.788 62.722 237.782C71.5045 238.06 80.2929 238.06 89.0813 237.788H90.3746C91.7461 238.035 93.1176 238.047 94.4891 237.788C95.9268 237.788 97.3584 237.788 98.7961 237.782C108.18 238.06 117.57 238.06 126.96 237.794C128.596 237.788 130.232 237.788 131.869 237.788H131.875C133.848 237.812 135.815 237.837 137.788 237.861Z" fill="#176BB4"/>
<path d="M216.649 216.298C215.656 217.382 215.789 219.22 214.243 219.943C213.545 219.485 213.593 218.768 213.593 218.069C213.593 211.182 213.575 204.29 213.599 197.403C213.599 196.692 213.22 195.512 214.387 195.512C215.326 195.512 215.428 196.572 215.422 197.391C215.362 202.675 216.306 207.917 216.017 213.213C215.957 214.255 215.638 215.442 216.649 216.298Z" fill="#176BB4"/>
<path d="M258.69 183.377C256.08 183.877 253.806 183.811 253.535 180.317C253.517 180.058 253.252 179.811 253.102 179.558C254.197 178.407 255.268 177.226 256.386 176.105C257.235 175.256 258.317 175.015 259.418 175.412C260.579 175.822 260.477 176.895 260.537 177.919C260.657 180.009 260.008 181.793 258.69 183.377Z" fill="#262627"/>
<path d="M10.8637 203.561C10.8877 214.183 10.8757 224.811 10.8757 235.433C10.7433 235.433 10.611 235.433 10.4847 235.445C10.2441 223.841 10.202 212.237 10.5027 200.639C11.1343 201.549 10.8637 202.585 10.8637 203.561Z" fill="#A6B0B5"/>
<path d="M10.5029 78.8993C10.4488 69.886 10.3947 60.8727 10.3405 51.8595C10.4668 51.8354 10.5932 51.8233 10.7135 51.8233C10.8097 60.8547 11.2609 69.88 10.5029 78.8993Z" fill="#A6B0B5"/>
<path d="M258.143 185.51C254.822 185.269 252.687 183.546 252.164 180.684C252.482 180.299 252.789 179.931 253.102 179.558C253.252 179.811 253.517 180.058 253.535 180.317C253.806 183.811 256.08 183.877 258.69 183.377C258.75 184.149 258.811 184.926 258.143 185.51Z" fill="#1B3C60"/>
<path d="M204.57 116.898V136.154C204.528 136.714 204.492 137.275 204.456 137.835C204.336 137.835 204.209 137.823 204.083 137.811C204.083 130.876 204.083 123.936 204.095 117.001C204.095 116.941 204.209 116.844 204.282 116.832C204.372 116.814 204.474 116.874 204.57 116.898Z" fill="#176BB4"/>
<path d="M137.788 237.427V237.855C135.815 237.831 133.848 237.807 131.875 237.782C133.811 237.005 135.821 237.59 137.788 237.427Z" fill="#A6B0B5"/>
<path d="M13.9196 237.764C13.7571 237.873 13.5707 237.927 13.3722 237.927C13.3421 237.8 13.324 237.674 13.324 237.547C13.5225 237.62 13.721 237.692 13.9196 237.764Z" fill="#A6B0B5"/>
<path d="M205.839 109.271C218.321 115.784 234.563 113.928 247.586 98.2513C247.087 102.915 245.282 106.313 242.052 109.259C237.685 113.229 233.017 116.549 227.11 117.519C220.625 118.579 214.177 118.784 208.564 114.404C207.716 113.741 206.164 114.151 205.882 112.639C205.863 111.518 205.851 110.398 205.833 109.283L205.839 109.271Z" fill="#E18B40"/>
<path d="M112.499 55.9685C112.162 56.0167 111.825 56.0588 111.489 56.107C111.669 55.6251 111.892 55.4925 112.15 55.6371C112.192 55.6672 112.24 55.6974 112.289 55.7395C112.307 55.7576 112.331 55.7817 112.355 55.8058C112.403 55.854 112.451 55.9082 112.499 55.9685Z" fill="#262627"/>
<path d="M34.9732 38.5444C34.9732 38.5444 34.9672 38.5444 34.9612 38.5564C34.9612 38.5564 34.9612 38.5685 34.9552 38.5685C34.8168 38.7794 34.6724 38.9902 34.5341 39.2011C34.486 39.0384 34.492 38.8697 34.5401 38.701C34.6784 38.6649 34.8108 38.6167 34.9371 38.5564C34.9431 38.5564 34.9552 38.5504 34.9612 38.5504C34.9672 38.5504 34.9612 38.5504 34.9732 38.5504V38.5444Z" fill="#262627"/>
<path d="M58.349 83.2553C58.0783 82.8155 57.8076 82.3817 57.543 81.9418C57.3986 81.8394 57.2602 81.737 57.1159 81.6406C57.0317 81.5804 56.9474 81.5201 56.8632 81.4599C56.8091 81.4237 56.7489 81.3815 56.6948 81.3394H27.4662C26.5338 81.6346 26.3413 82.46 26.0887 83.2432C26.2571 83.5927 26.5639 83.9421 26.5639 84.2916C26.588 92.7867 26.5819 101.282 26.5519 109.771C26.5519 110.12 26.2331 110.464 26.0646 110.807C24.9758 112.042 24.8616 112.976 26.8105 113.32C27.5624 113.452 28.3083 113.639 29.0543 113.802C37.8307 113.802 46.6071 113.802 55.3895 113.802C57.0256 113.446 58.0302 112.458 58.3791 110.813C58.3731 101.631 58.361 92.4433 58.349 83.2613V83.2553ZM55.4316 110.566C55.3353 110.855 55.4015 111.452 54.8541 110.867C51.8284 110.886 48.8087 110.904 45.789 110.922C43.4129 110.922 41.0368 110.928 38.6608 110.928H36.7659C35.996 111.699 35.226 111.699 34.456 110.928C33.6199 110.928 32.7898 110.928 31.9537 110.928C31.1476 111.717 30.3596 111.705 29.5956 110.867C28.7054 109.958 29.0182 108.801 29.0182 107.735C28.9941 99.6611 29.0001 91.5817 29.0001 83.5083C29.3249 82.5142 30.1671 82.5684 30.9611 82.5684C38.3239 82.5684 45.6807 82.5684 53.0435 82.5684C53.7352 82.5684 54.4571 82.5383 54.8481 83.3035C55.6602 84.3458 55.4195 85.5688 55.4256 86.7437C55.4316 94.6845 55.4316 102.631 55.4316 110.572V110.566Z" fill="#A6B0B5"/>
<path d="M27.6947 168.695C27.5202 168.538 27.3398 168.381 27.1653 168.225C27.2014 167.664 27.1412 167.152 26.5457 166.881L26.5638 166.899C26.5758 158.223 26.5939 149.554 26.5939 140.878C26.5939 140.106 26.8044 139.263 26.0886 138.642C26.3232 137.847 26.4555 136.979 27.4601 136.738C28.7594 136.365 30.552 137.739 31.364 135.642C32.7897 135.642 34.2153 135.642 35.6409 135.63C35.9838 137.287 37.3252 136.714 38.2937 136.726C44.4294 136.769 50.565 136.745 56.7007 136.738L56.6646 136.714C56.8811 136.925 57.0917 137.142 57.3082 137.359L57.2842 137.323C57.2722 137.853 57.3323 138.347 57.9158 138.576L57.8797 138.528C57.8737 147.107 57.8556 155.681 57.8677 164.26C57.8677 165.122 57.591 166.074 58.3669 166.803C58.012 168.038 57.1759 168.791 55.9788 169.177C55.251 168.393 54.2945 168.701 53.4344 168.701C44.8565 168.683 36.2786 168.701 27.7007 168.701L27.6947 168.695ZM35.653 138.516C35.2199 138.516 34.7928 138.516 34.3597 138.516C32.513 137.787 30.6843 137.269 29 138.871C29 147.029 28.994 155.181 29.018 163.339C29.018 164.393 28.6812 165.556 29.6557 166.423C29.8782 167.737 30.9189 167.46 31.761 167.46C38.799 167.478 45.837 167.472 52.8749 167.46C53.6329 167.46 54.5412 167.676 54.7577 166.538C55.7563 165.676 55.4134 164.501 55.4194 163.447C55.4495 156.253 55.4435 149.059 55.4375 141.86C55.4375 140.775 55.636 139.649 54.9743 138.654C54.2284 137.715 53.1697 137.98 52.2012 137.974C48.5198 137.95 44.8324 137.883 41.157 138.004C39.3223 138.064 37.3914 137.389 35.653 138.516Z" fill="#A6B0B5"/>
<path d="M95.9328 197.018C87.3188 197.018 78.7108 197.024 70.0968 197.012C68.7434 197.012 66.8967 197.349 66.9989 195.253C67.0892 193.499 68.6893 193.331 70.1931 193.331C87.6196 193.349 105.04 193.343 122.467 193.343C123.82 193.343 125.264 193.355 125.222 195.234C125.179 197.12 123.694 197.024 122.37 197.024C113.558 197.024 104.745 197.024 95.9328 197.018Z" fill="#A6B0B5"/>
<path d="M96.071 142.215C87.6676 142.215 79.2581 142.221 70.8547 142.203C69.9704 142.203 69.0441 142.179 68.2079 141.92C67.5763 141.721 66.9868 141.161 66.9868 140.359C66.9868 139.528 67.6124 139.227 68.2982 138.932C69.2606 138.516 70.2532 138.564 71.2517 138.564C88.1609 138.564 105.07 138.558 121.979 138.564C123.351 138.564 125.119 138.263 125.185 140.287C125.258 142.607 123.309 142.185 121.883 142.191C113.275 142.215 104.673 142.203 96.065 142.209L96.071 142.215Z" fill="#A6B0B5"/>
<path d="M29.0421 223.407C27.8029 222.913 26.9728 221.925 26.1186 220.961C26.9066 211.387 26.9488 201.808 26.0886 192.234C26.5517 190.788 27.6766 190.149 29.0481 189.818C29.7579 190.631 30.7144 190.342 31.5746 190.342C39.7494 190.354 47.9243 190.342 56.0992 190.33L56.0691 190.294C56.1834 190.686 56.3398 190.884 56.6285 190.402C57.2481 190.577 57.6511 190.957 57.7955 191.595C57.7233 191.662 57.6571 191.722 57.585 191.788C57.6992 191.909 57.8075 192.023 57.9218 192.144L57.8857 192.107C57.8797 200.699 57.8617 209.291 57.8737 217.876C57.8737 218.738 57.591 219.702 58.409 220.407C58.0241 222.033 57.0496 223.057 55.3773 223.359C55.0284 223.202 54.6735 222.901 54.3246 222.901C46.246 222.871 38.1614 222.871 30.0828 222.901C29.7399 222.901 29.397 223.226 29.0541 223.401L29.0421 223.407ZM44.0745 192.692C43.0398 192.692 41.9992 192.692 40.9645 192.692C39.599 191.873 38.2275 191.879 36.8621 192.692C34.2394 193.27 31.4482 192.017 28.8977 193.403C27.5864 193.596 27.809 194.62 27.809 195.475C27.7969 202.934 27.809 210.393 27.7969 217.852C27.7969 218.997 27.845 220.081 29.2286 220.443C32.7656 220.473 36.3086 220.503 39.8457 220.533C41.2292 222.334 42.6127 222.334 43.9902 220.533C44.6158 220.533 45.2354 220.533 45.861 220.533C46.8355 222.31 47.816 222.316 48.8025 220.533C49.2236 220.533 49.6507 220.533 50.0718 220.533C51.8523 222.22 54.078 222.124 55.4254 220.298C55.4074 220.123 55.4435 219.961 55.5397 219.816C56.8631 219.617 56.6285 218.587 56.6345 217.719C56.6466 210.303 56.6466 202.88 56.6345 195.463C56.6345 194.584 56.821 193.572 55.5097 193.385C55.4194 193.258 55.3954 193.12 55.4375 192.969C55.2029 192.288 54.866 192.005 54.2946 192.686C51.6538 192.686 49.0191 192.686 46.3783 192.686C45.6084 191.933 44.8444 191.927 44.0745 192.686V192.692Z" fill="#A6B0B5"/>
<path d="M124.915 86.2075C124.397 86.816 123.688 86.804 122.984 86.7979C104.703 86.7738 86.4165 86.7437 68.1358 86.7136C66.5538 85.2315 66.7944 84.6471 69.3209 83.8096C87.0662 83.7855 104.817 83.7554 122.569 83.7313C123.339 83.7313 124.193 83.5565 124.758 84.3458C125.528 84.9061 125.414 85.5387 124.915 86.2075Z" fill="#A6B0B5"/>
<path d="M71.1377 169.821C69.6038 169.544 66.9209 171.002 67.5465 167.448C86.5731 167.46 105.6 167.472 124.626 167.484C125.162 168.092 124.945 168.695 124.59 169.285C107.711 169.279 90.8319 169.267 73.9589 169.285C73.0085 169.285 71.9377 168.924 71.1377 169.821Z" fill="#A6B0B5"/>
<path d="M107.813 211.357C96.36 211.357 84.9128 211.357 73.4595 211.357C72.4911 208.827 69.6999 211.399 67.9495 208.989H109.606C109.648 210.267 108.12 210.345 107.813 211.357Z" fill="#A6B0B5"/>
<path d="M109.618 113.91C109.636 114.748 109.094 114.958 108.403 115.001C107.579 115.001 106.754 115.001 105.93 115.001C104.751 115.001 103.566 115.007 102.387 115.007C101.557 115.013 100.733 115.013 99.903 115.013C99.3375 115.013 98.7661 115.013 98.1946 115.007H93.2801C90.11 115.007 86.9399 115.007 83.7698 115.013C80.5275 115.013 77.2853 115.013 74.049 115.013C72.6775 115.013 71.306 115.013 69.9345 115.013C69.5074 115.001 69.0743 114.995 68.6472 114.989C67.8231 115.025 66.9449 115.121 67.384 113.808V112.735C67.5464 111.133 68.8457 111.597 69.7059 111.59C82.1757 111.554 94.6456 111.566 107.115 111.59C107.452 111.59 107.813 111.554 108.162 111.572C108.21 111.572 108.258 111.572 108.306 111.572C108.433 111.578 108.559 111.603 108.679 111.639C108.728 111.651 108.776 111.669 108.824 111.687C108.902 111.717 108.98 111.759 109.052 111.807C109.082 111.825 109.112 111.85 109.137 111.874C109.155 111.88 109.167 111.892 109.179 111.91C109.209 111.934 109.233 111.958 109.257 111.988C109.305 112.03 109.341 112.078 109.377 112.133C109.389 112.157 109.401 112.181 109.419 112.199C109.449 112.247 109.473 112.295 109.497 112.35C109.54 112.428 109.576 112.518 109.606 112.621V113.898C109.606 113.898 109.612 113.892 109.618 113.892V113.91Z" fill="#A6B0B5"/>
<path d="M109.618 113.91C109.618 113.91 109.612 113.916 109.606 113.916C109.606 113.916 109.612 113.91 109.618 113.91Z" fill="#A6B0B5"/>
<path d="M68.1178 155.982C66.9689 155.476 66.3553 154.801 67.3539 153.602C81.4418 153.602 95.5238 153.602 109.612 153.602L109.594 153.584C109.594 154.217 109.594 154.849 109.594 155.482L109.618 155.452C96.6246 155.44 83.6254 155.428 70.6322 155.434C69.772 155.434 68.8036 155.139 68.1178 155.988V155.982Z" fill="#A6B0B5"/>
<path d="M124.801 100.203C124.686 100.3 124.566 100.39 124.446 100.462C124.566 100.378 124.68 100.294 124.795 100.197H124.801V100.203Z" fill="#8A989E"/>
<path d="M109.606 208.989H67.9494C69.6938 211.399 72.491 208.827 73.4594 211.357C71.9616 211.369 70.4578 211.435 68.966 211.375C68.0095 211.339 67.0892 210.875 67.005 209.863C66.9027 208.628 67.9133 208.176 68.9599 208.013C69.6457 207.905 70.3555 207.935 71.0533 207.935C82.6449 207.935 94.2425 207.917 105.834 207.959C107.139 207.959 108.673 207.477 109.606 208.989Z" fill="#8A989E"/>
<path d="M124.626 167.484C105.599 167.472 86.5729 167.46 67.5464 167.448C68.1539 166.411 69.1645 166.875 69.9826 166.875C87.391 166.851 104.793 166.851 122.202 166.875C123.026 166.875 124.037 166.441 124.632 167.484H124.626Z" fill="#8A989E"/>
<path d="M67.853 97.9802V97.9861L67.8472 97.9802H67.853Z" fill="#8A989E"/>
<path d="M56.6947 81.3394H27.4661C28.6812 80.2609 30.173 80.2429 31.6708 80.2429C38.6245 80.2489 45.5783 80.2489 52.526 80.267C52.7967 80.267 53.0734 80.267 53.3441 80.267C53.4644 80.267 53.5847 80.267 53.705 80.273C53.8193 80.273 53.9336 80.273 54.0479 80.2911C54.1682 80.2971 54.2945 80.3091 54.4148 80.3272C54.5412 80.3393 54.6615 80.3573 54.7818 80.3814C54.854 80.3935 54.9322 80.4116 55.0043 80.4296C55.0164 80.4296 55.0284 80.4296 55.0404 80.4357C55.1126 80.4537 55.1788 80.4718 55.251 80.4959C55.5096 80.5682 55.7563 80.6706 55.9969 80.8092C56.063 80.8454 56.1232 80.8815 56.1834 80.9237C56.2375 80.9538 56.2856 80.99 56.3337 81.0261C56.454 81.1104 56.5683 81.2069 56.6826 81.3213C56.6886 81.3273 56.6886 81.3334 56.6947 81.3334V81.3394Z" fill="#8A989E"/>
<path d="M71.1375 169.821C71.9375 168.93 73.0083 169.285 73.9587 169.285C90.8378 169.267 107.717 169.285 124.59 169.285C124.205 170.147 123.411 169.894 122.761 169.894C105.551 169.882 88.3414 169.845 71.1315 169.815L71.1375 169.821Z" fill="#8A989E"/>
<path d="M109.618 153.596C95.5299 153.596 81.4479 153.596 67.36 153.596C67.9976 152.674 68.9721 152.97 69.8263 152.964C82.3803 152.939 94.9344 152.939 107.482 152.946C108.24 152.946 109.113 152.698 109.618 153.59V153.596Z" fill="#8A989E"/>
<path d="M68.1178 155.982C68.8096 155.133 69.772 155.428 70.6322 155.428C83.6254 155.422 96.6245 155.44 109.618 155.446C109.058 156.271 108.192 156.036 107.428 156.036C94.3267 156.03 81.2192 156 68.1178 155.976V155.982Z" fill="#8A989E"/>
<path d="M56.7006 136.738C50.565 136.738 44.4293 136.769 38.2936 136.726C37.3252 136.72 35.9837 137.293 35.6409 135.63C41.6021 135.618 47.5693 135.6 53.5305 135.594C54.7216 135.594 55.9547 135.491 56.7006 136.738Z" fill="#8A989E"/>
<path d="M26.0945 192.24C26.9487 201.814 26.9066 211.387 26.1246 220.967C26.1126 211.393 26.1066 201.814 26.0945 192.24Z" fill="#8A989E"/>
<path d="M27.6946 168.695C36.2725 168.695 44.8504 168.683 53.4283 168.695C54.2885 168.695 55.2449 168.387 55.9728 169.171C47.0941 169.653 38.2034 169.351 29.3247 169.303C28.7834 169.303 28.242 168.906 27.7006 168.689L27.6946 168.695Z" fill="#8A989E"/>
<path d="M58.361 166.797C57.585 166.074 57.8677 165.122 57.8617 164.254C57.8496 155.675 57.8617 147.101 57.8737 138.522C58.5715 139.004 58.4572 139.745 58.4512 140.426C58.4271 149.216 58.391 158.006 58.3549 166.797H58.361Z" fill="#8A989E"/>
<path d="M126.96 237.788C117.57 238.054 108.186 238.054 98.7961 237.782C103.62 236.957 108.487 237.463 113.323 237.463C117.865 237.463 122.43 236.945 126.954 237.794L126.96 237.788Z" fill="#A6B0B5"/>
<path d="M58.4031 220.413C57.5851 219.708 57.8678 218.75 57.8678 217.882C57.8557 209.291 57.8678 200.699 57.8798 192.113C58.6618 192.692 58.4513 193.547 58.4513 194.319C58.4453 203.019 58.4212 211.713 58.3971 220.413H58.4031Z" fill="#8A989E"/>
<path d="M26.0827 138.642C26.7985 139.263 26.588 140.106 26.588 140.878C26.588 149.554 26.5699 158.223 26.5579 166.899C25.8661 166.568 25.9804 165.917 25.9804 165.339C26.0045 156.44 26.0466 147.541 26.0827 138.642Z" fill="#8A989E"/>
<path d="M26.5517 109.777C26.5517 110.126 26.2329 110.47 26.0645 110.813C26.0705 101.625 26.0825 92.4373 26.0885 83.2493C26.2569 83.5987 26.5637 83.9482 26.5637 84.2976C26.5878 92.7927 26.5818 101.288 26.5517 109.777Z" fill="#8A989E"/>
<path d="M56.0991 190.336C47.9242 190.342 39.7493 190.36 31.5745 190.348C30.7143 190.348 29.7578 190.637 29.048 189.824C37.3252 189.794 45.6023 189.758 53.8794 189.746C54.6554 189.746 55.5036 189.595 56.0931 190.336H56.0991Z" fill="#8A989E"/>
<path d="M89.0813 237.782C80.2929 238.06 71.5105 238.053 62.722 237.782C67.9434 236.957 73.2008 237.493 78.4341 237.457C81.9772 237.433 85.5563 236.951 89.0813 237.782Z" fill="#A6B0B5"/>
<path d="M10.5029 141.528C10.2202 132.732 10.2202 123.929 10.5029 115.133C11.333 118.465 10.8578 121.845 10.8217 125.195C10.7675 130.635 11.339 136.1 10.4969 141.528H10.5029Z" fill="#A6B0B5"/>
<path d="M29.0421 223.407C29.3849 223.232 29.7278 222.907 30.0707 222.907C38.1493 222.877 46.2339 222.883 54.3125 222.907C54.6675 222.907 55.0163 223.202 55.3652 223.365C46.5888 223.377 37.8185 223.395 29.0421 223.407Z" fill="#8A989E"/>
<path d="M10.5028 189.704C10.2201 182.715 10.2201 175.726 10.5088 168.737C11.1224 175.726 11.1103 182.715 10.5028 189.704Z" fill="#A6B0B5"/>
<path d="M10.5029 93.3591C10.2142 88.979 10.2142 84.5929 10.5029 80.2127C10.8819 84.5929 11.6819 88.979 10.5029 93.3591Z" fill="#A6B0B5"/>
<path d="M10.5027 111.416C10.208 107.638 10.214 103.855 10.5027 100.077C11.2487 103.855 11.002 107.638 10.5027 111.416Z" fill="#A6B0B5"/>
<path d="M10.5088 158.398C10.214 154.813 10.226 151.234 10.5088 147.656C11.1043 151.24 11.0862 154.819 10.5088 158.398Z" fill="#A6B0B5"/>
<path d="M43.9782 237.782C41.2051 238.059 38.432 238.035 35.6589 237.782C38.432 237.174 41.2051 237.186 43.9782 237.782Z" fill="#A6B0B5"/>
<path d="M31.364 135.642C30.5459 137.745 28.7593 136.365 27.46 136.739C28.5127 135.479 29.9323 135.534 31.364 135.642Z" fill="#8A989E"/>
<path d="M10.5089 197.524C10.2382 195.554 10.2202 193.584 10.5089 191.613C11.1044 193.584 11.1104 195.554 10.5089 197.524Z" fill="#A6B0B5"/>
<path d="M22.329 237.782C20.3559 238.047 18.3829 238.041 16.4159 237.794C18.3889 237.174 20.3559 237.192 22.329 237.782Z" fill="#A6B0B5"/>
<path d="M107.813 211.357C108.12 210.345 109.648 210.267 109.606 208.989C110.46 210.971 110.316 211.17 107.813 211.357Z" fill="#8A989E"/>
<path d="M94.4893 237.788C93.1178 238.047 91.7463 238.035 90.3748 237.788C91.7463 237.222 93.1178 237.222 94.4893 237.788Z" fill="#A6B0B5"/>
<path d="M33.7641 237.782C32.5911 238.023 31.4121 238.029 30.2391 237.782C31.4181 237.21 32.5911 237.204 33.7641 237.782Z" fill="#A6B0B5"/>
<path d="M10.5028 163.206C10.2442 162.031 10.2442 160.862 10.5028 159.693C11.0623 160.868 11.0683 162.037 10.5028 163.206Z" fill="#A6B0B5"/>
<path d="M10.5088 146.354C10.2381 145.179 10.2442 144.005 10.5028 142.836C11.0803 144.011 11.0803 145.179 10.5088 146.354Z" fill="#A6B0B5"/>
<path d="M10.5029 97.5705C10.5029 96.7873 10.5029 96.004 10.5029 95.2208C12.3977 96.004 10.6412 96.7873 10.5029 97.5705Z" fill="#A6B0B5"/>
<path d="M109.618 113.91C109.618 113.91 109.612 113.916 109.606 113.916C109.606 113.916 109.612 113.91 109.618 113.91Z" fill="#8A989E"/>
<path d="M109.594 155.482C109.594 154.849 109.594 154.217 109.594 153.584C110.424 154.217 110.376 154.849 109.594 155.482Z" fill="#8A989E"/>
<path d="M59.6122 237.788C59.0407 237.788 58.4693 237.788 57.9038 237.788C58.4753 237.288 59.0467 237.294 59.6122 237.788Z" fill="#A6B0B5"/>
<path d="M56.0029 237.788C55.4315 237.788 54.866 237.788 54.2946 237.788C54.866 237.294 55.4315 237.294 56.0029 237.788Z" fill="#A6B0B5"/>
<path d="M46.9858 237.776C46.4144 237.776 45.8489 237.776 45.2775 237.776C45.8489 237.282 46.4144 237.282 46.9858 237.776Z" fill="#A6B0B5"/>
<path d="M57.9097 138.57C57.3262 138.341 57.2721 137.847 57.2781 137.317C57.8436 137.552 57.8375 138.082 57.9097 138.57Z" fill="#8A989E"/>
<path d="M26.5458 166.881C27.1413 167.146 27.2014 167.664 27.1653 168.225C26.7022 167.899 26.3833 167.502 26.5458 166.881Z" fill="#8A989E"/>
<path d="M109.618 113.91C109.618 113.91 109.612 113.916 109.606 113.916V112.639H109.612C110.412 113.061 110.418 113.476 109.618 113.904V113.91Z" fill="#8A989E"/>
<path d="M57.9157 192.15C57.8014 192.029 57.6931 191.915 57.5789 191.794C57.651 191.728 57.7172 191.668 57.7894 191.601C57.8796 191.77 57.9217 191.957 57.9157 192.15Z" fill="#8A989E"/>
<path d="M56.6224 190.408C56.3337 190.884 56.1833 190.686 56.063 190.3C56.2615 190.282 56.448 190.318 56.6224 190.408Z" fill="#8A989E"/>
<path d="M68.0759 98.2212C67.8774 98.42 67.6729 98.6188 67.4683 98.8177L67.2819 98.649C67.4683 98.4261 67.6548 98.2092 67.8533 97.9862C67.9315 98.0646 68.0037 98.1369 68.0759 98.2212Z" fill="#8A989E"/>
<path d="M217.894 83.7794C216.721 84.0325 215.386 83.5264 214.104 83.0926C212.192 82.4359 211.331 81.1044 212.023 78.9896C213.401 74.8083 214.73 70.609 216.053 66.4036C216.33 65.5179 216.829 64.9335 217.762 65.1504C218.941 65.4275 218.502 66.4578 218.321 67.1085C217.455 70.2113 216.535 73.3081 215.524 76.3628C214.411 79.7427 214.116 81.0502 218.676 81.9539C219.572 82.1346 221.016 81.1345 221.281 82.8456C221.395 83.5746 220.481 83.8096 217.888 83.7794H217.894Z" fill="#262627"/>
<path d="M218.147 95.1485C215.512 95.5823 213.31 94.4496 211.103 93.3772C210.507 93.088 209.707 92.7084 210.182 91.8348C210.622 91.0214 211.223 91.0034 212.143 91.4673C216.835 93.8351 221.431 94.2327 225.816 90.6117C226.34 90.184 227.609 89.8285 227.976 91.166C228.241 92.118 228.024 93.1482 226.953 93.329C223.97 93.829 221.287 95.7148 218.147 95.1485Z" fill="#262627"/>
<path d="M202.501 51.2751C204.179 51.0823 205.857 51.6848 207.53 52.1788C207.951 52.3053 208.883 52.5222 208.666 53.2994C208.48 53.9682 207.86 54.5165 207.066 54.2815C202.483 52.9078 198.122 53.679 193.893 55.6371C193.081 56.0167 192.756 55.5407 192.63 55.0045C192.317 53.6609 193.267 52.8174 194.29 52.5644C196.648 51.986 199.072 51.6848 201.478 51.2871C201.767 51.2389 202.074 51.2811 202.501 51.2811V51.2751Z" fill="#262627"/>
<path d="M241.841 54.2875C241.667 54.9261 241.21 55.3539 240.44 55.4864C239.778 55.6009 238.822 55.39 238.563 55.2334C235.555 53.3958 232.385 53.8838 229.191 54.2332C228.565 54.3055 227.681 54.5947 227.446 53.6127C227.224 52.6547 227.807 52.1547 228.674 51.8835C232.969 50.5339 237.059 51.3835 241.077 53.0283C241.607 53.2452 241.853 53.6127 241.835 54.2875H241.841Z" fill="#262627"/>
<path d="M198.567 65.9277C198.429 63.8129 199.776 62.8128 201.376 62.8489C202.91 62.8791 204.612 63.7647 204.48 65.7048C204.354 67.5062 203.265 69.157 201.316 69.2052C199.355 69.2534 198.567 67.699 198.567 65.9216V65.9277Z" fill="#262627"/>
<path d="M235.898 65.9578C236.024 68.0484 233.979 69.0365 232.975 69.0666C231.302 69.1148 230.063 67.1447 230.033 65.5782C230.009 64.3853 230.947 62.6441 232.842 62.7465C234.791 62.8549 235.76 64.0479 235.898 65.9517V65.9578Z" fill="#262627"/>
<path d="M54.8479 83.2975C46.2339 83.3698 37.6139 82.9299 29 83.5083C29 91.5817 28.9939 99.6611 29.018 107.735C29.018 108.801 28.7052 109.958 29.5955 110.867C30.3835 110.886 31.1715 110.91 31.9535 110.928C32.7896 110.928 33.6197 110.928 34.4559 110.928C35.2258 110.928 35.9958 110.928 36.7658 110.928H38.6606C41.0367 110.928 43.4127 110.922 45.7888 110.922C48.8085 110.904 51.8282 110.886 54.8539 110.867C55.0464 110.765 55.2389 110.669 55.4314 110.566C55.4314 102.625 55.4314 94.6785 55.4254 86.7377C55.4194 85.5628 55.66 84.3398 54.8479 83.2975ZM51.0703 93.9375C47.6957 97.3656 44.309 100.782 40.9224 104.198C40.2065 104.921 39.3584 105.258 38.5523 104.475C36.844 102.8 35.1176 101.119 33.6077 99.2695C33.0543 98.5887 32.3204 97.5464 33.4032 96.4258C34.6002 95.1846 35.4905 96.233 36.2063 96.8053C37.3673 97.7271 38.2877 98.9502 39.4366 100.179C41.9751 97.5886 44.3211 95.1545 46.7272 92.7807C47.425 92.0938 48.225 91.3769 49.1093 91.0636C49.8552 90.7985 50.9259 90.5816 51.5635 91.5395C52.1951 92.4794 51.738 93.2627 51.0703 93.9375Z" fill="white"/>
<path d="M54.8479 83.2974C46.2339 83.3697 37.6139 82.9299 28.9999 83.5083C29.3248 82.5142 30.1669 82.5684 30.9609 82.5684C38.3237 82.5684 45.6805 82.5684 53.0433 82.5684C53.7351 82.5684 54.4569 82.5383 54.8479 83.3035V83.2974Z" fill="#8A989E"/>
<path d="M36.7657 110.934C35.9957 111.705 35.2258 111.705 34.4558 110.934C35.2258 110.934 35.9957 110.934 36.7657 110.934Z" fill="#8A989E"/>
<path d="M31.9536 110.934C31.1475 111.723 30.3595 111.711 29.5956 110.874C30.3836 110.892 31.1716 110.916 31.9536 110.934Z" fill="#8A989E"/>
<path d="M55.4314 110.566C55.3351 110.855 55.4013 111.452 54.8539 110.868C55.0464 110.765 55.2389 110.669 55.4314 110.566Z" fill="#8A989E"/>
<path d="M29.6558 166.423C28.6753 165.556 29.0182 164.393 29.0182 163.339C28.9941 155.181 29.0001 147.029 29.0001 138.871C30.7566 138.251 32.5792 138.733 34.3598 138.516C34.7929 138.516 35.22 138.516 35.6531 138.516C42.0955 138.564 48.532 138.606 54.9744 138.654C55.6301 139.649 55.4316 140.775 55.4376 141.86C55.4436 149.053 55.4496 156.253 55.4195 163.447C55.4195 164.507 55.7564 165.676 54.7578 166.538C46.3905 166.502 38.0231 166.459 29.6558 166.423ZM34.3778 151.855C32.9582 151.807 32.5792 152.536 33.0304 153.97C33.7282 156.199 35.6531 157.368 37.0787 158.989C38.6548 160.784 39.9481 160.694 41.5361 159.013C44.4295 155.958 47.4432 153.03 50.3787 150.011C51.2329 149.132 52.7728 148.168 51.3532 146.83C50.2283 145.77 48.8087 146.174 47.6718 147.312C45.41 149.578 43.0099 151.71 40.8504 154.066C39.2683 155.789 37.987 155.916 37.0667 153.723C36.4832 152.331 35.2621 152.373 34.3778 151.849V151.855Z" fill="white"/>
<path d="M29.6557 166.423C38.0231 166.459 46.3904 166.496 54.7578 166.538C54.5412 167.682 53.6269 167.46 52.875 167.466C45.837 167.478 38.799 167.478 31.7611 167.466C30.9249 167.466 29.8783 167.749 29.6557 166.429V166.423Z" fill="#8A989E"/>
<path d="M54.9743 138.654C48.5318 138.606 42.0954 138.564 35.653 138.516C37.3914 137.383 39.3223 138.064 41.157 138.004C44.8324 137.883 48.5198 137.95 52.2012 137.974C53.1636 137.974 54.2223 137.715 54.9743 138.654Z" fill="#8A989E"/>
<path d="M34.3596 138.516C32.5791 138.739 30.7504 138.251 28.9999 138.871C30.6903 137.263 32.5189 137.787 34.3596 138.516Z" fill="#8A989E"/>
<path d="M55.5397 219.822C55.4435 219.967 55.4074 220.129 55.4254 220.304C53.6388 220.382 51.8583 220.461 50.0717 220.539C49.6507 220.539 49.2236 220.539 48.8025 220.539C47.822 220.539 46.8415 220.539 45.861 220.539C45.2354 220.539 44.6158 220.539 43.9902 220.539C42.6067 220.539 41.2292 220.539 39.8456 220.539C36.3086 220.509 32.7656 220.479 29.2285 220.449C29.1263 219.256 28.9458 218.069 28.9398 216.876C28.9037 209.056 28.9037 201.229 28.8977 193.409C31.4542 192.023 34.2393 193.276 36.862 192.698C38.2275 192.698 39.599 192.698 40.9645 192.698C41.9991 192.698 43.0398 192.698 44.0744 192.698C44.8444 192.698 45.6084 192.698 46.3783 192.698C49.0191 192.698 51.6538 192.698 54.2945 192.698C54.6735 192.794 55.0525 192.885 55.4374 192.981C55.3953 193.132 55.4194 193.27 55.5096 193.397C55.5217 202.205 55.5277 211.014 55.5397 219.822Z" fill="white"/>
<path d="M28.8977 193.409C28.9097 201.229 28.9037 209.056 28.9398 216.876C28.9398 218.069 29.1263 219.256 29.2285 220.449C27.845 220.087 27.7969 219.003 27.7969 217.858C27.8029 210.399 27.7969 202.94 27.8089 195.481C27.8089 194.62 27.5863 193.596 28.8977 193.409Z" fill="#8A989E"/>
<path d="M55.5397 219.822C55.5277 211.014 55.5217 202.205 55.5096 193.397C56.821 193.584 56.6345 194.596 56.6345 195.475C56.6405 202.892 56.6465 210.315 56.6345 217.731C56.6345 218.599 56.8631 219.629 55.5397 219.828V219.822Z" fill="#8A989E"/>
<path d="M50.0718 220.539C51.8583 220.461 53.6389 220.382 55.4254 220.304C54.078 222.13 51.8523 222.226 50.0718 220.539Z" fill="#8A989E"/>
<path d="M39.8517 220.539C41.2352 220.539 42.6127 220.539 43.9963 220.539C42.6127 222.347 41.2352 222.347 39.8517 220.539Z" fill="#8A989E"/>
<path d="M45.8671 220.539C46.8476 220.539 47.8281 220.539 48.8086 220.539C47.8281 222.316 46.8476 222.31 45.8671 220.539Z" fill="#8A989E"/>
<path d="M40.9705 192.698C39.605 192.698 38.2335 192.698 36.868 192.698C38.2395 191.891 39.605 191.885 40.9705 192.698Z" fill="#8A989E"/>
<path d="M46.3844 192.698C45.6145 192.698 44.8505 192.698 44.0806 192.698C44.8505 191.939 45.6145 191.945 46.3844 192.698Z" fill="#8A989E"/>
<path d="M55.4375 192.981C55.0585 192.885 54.6795 192.794 54.2946 192.698C54.866 192.017 55.1969 192.3 55.4375 192.981Z" fill="#8A989E"/>
<path d="M124.794 100.203C124.68 100.3 124.566 100.384 124.446 100.469C124.343 100.535 124.247 100.589 124.145 100.643C124.127 100.655 124.103 100.667 124.079 100.673C123.988 100.722 123.892 100.758 123.796 100.794C123.688 100.836 123.573 100.872 123.459 100.902C123.351 100.932 123.236 100.963 123.122 100.981C123.008 101.005 122.888 101.023 122.773 101.035C122.033 101.131 121.263 101.077 120.518 101.077C104.938 101.101 89.358 101.101 73.7783 101.083C72.0879 101.077 70.3916 100.957 68.7013 100.8C67.4441 100.679 66.5719 100.155 67.2817 98.655L67.4682 98.8237C67.6727 98.6249 67.8772 98.4261 68.0757 98.2273C68.0035 98.1429 67.9313 98.0706 67.8531 97.9923C68.569 97.4741 69.3931 97.6368 70.1751 97.6368C87.4993 97.6248 104.823 97.6248 122.148 97.6428C123.002 97.6428 123.976 97.2994 124.656 98.1911C125.51 98.8056 125.378 99.4865 124.794 100.203Z" fill="#A6B0B5"/>
<path d="M39.4366 100.185C41.9811 97.5946 44.3211 95.1606 46.7332 92.7867C47.431 92.0999 48.2251 91.3829 49.1153 91.0696C49.8552 90.8106 50.932 90.5876 51.5696 91.5456C52.1952 92.4855 51.744 93.2687 51.0763 93.9435C47.7017 97.3717 44.3151 100.782 40.9284 104.204C40.2126 104.927 39.3644 105.27 38.5584 104.481C36.844 102.806 35.1176 101.125 33.6077 99.2756C33.0543 98.5948 32.3205 97.5525 33.4032 96.4318C34.6063 95.1907 35.4906 96.239 36.2064 96.8054C37.3673 97.7272 38.2937 98.9563 39.4366 100.179V100.185Z" fill="#176BB4"/>
<path d="M34.3838 151.855C35.2741 152.379 36.4892 152.343 37.0727 153.729C37.993 155.922 39.2803 155.795 40.8563 154.072C43.0159 151.716 45.416 149.584 47.6778 147.318C48.8147 146.18 50.2343 145.776 51.3591 146.836C52.7788 148.174 51.2388 149.138 50.3847 150.017C47.4552 153.03 44.4355 155.964 41.5421 159.019C39.954 160.694 38.6607 160.79 37.0847 158.995C35.6591 157.374 33.7342 156.205 33.0364 153.976C32.5852 152.536 32.9582 151.813 34.3838 151.861V151.855Z" fill="#176BB4"/>
<path d="M238.948 218.617C237.324 220.033 235.375 220.756 233.384 221.346C230.833 222.106 228.217 222.678 225.744 223.642L228.205 220.768C231.038 219.75 233.985 218.979 236.885 218.111C237.462 217.936 238.25 217.719 238.948 218.617Z" fill="#E18B40"/>
</svg>
